<?xml version="1.0" encoding="utf-8"?>
<svg width="52px" height="52px" viewBox="0 0 52 52" fill="none" xmlns="http://www.w3.org/2000/svg">
  <g filter="url(#filter0_d_277_61)" transform="matrix(1, 0, 0, 1, -12, -8)">
    <circle cx="38" cy="34" r="26" fill="#F44F0C"/>
  </g>
  <g clip-path="url(#clip0_277_61)" transform="matrix(1, 0, 0, 1, -12, -8)">
    <path d="M37.9953 38.9827C36.8482 38.9827 35.915 39.9129 35.915 41.0556C35.915 42.1987 36.8482 43.1292 37.9953 43.1292C39.1427 43.1292 40.0759 42.1987 40.0759 41.0556C40.0759 39.9129 39.1426 38.9827 37.9953 38.9827Z" fill="white"/>
    <path d="M43.0706 36.1585C41.7163 34.8049 39.9135 34.0591 37.9951 34.0591C36.0841 34.0591 34.2862 34.8 32.9323 36.1451C32.3854 36.6893 32.3845 37.5759 32.93 38.121C33.195 38.3864 33.5478 38.5322 33.9234 38.5322C34.2972 38.5322 34.6487 38.3872 34.9133 38.1241C35.7373 37.3052 36.8317 36.8541 37.9951 36.8541C39.1628 36.8541 40.2603 37.308 41.0848 38.1318C41.3498 38.3964 41.7025 38.5426 42.0776 38.5426C42.4518 38.5426 42.8032 38.3976 43.068 38.1345C43.6156 37.5902 43.6165 36.704 43.0706 36.1585Z" fill="white"/>
    <path d="M49.5903 29.6599C46.494 26.5712 42.3757 24.8707 37.9949 24.8707C33.6199 24.8707 29.5058 26.5672 26.4104 29.6486C25.8635 30.1928 25.8631 31.0794 26.4096 31.6246C26.6744 31.8886 27.0267 32.0338 27.4015 32.0338C27.7761 32.0338 28.128 31.8892 28.3928 31.6253C30.9585 29.0715 34.3685 27.6647 37.9949 27.6647C41.6265 27.6647 45.0399 29.0743 47.6062 31.635C47.8711 31.8992 48.2239 32.045 48.5985 32.045C48.9729 32.045 49.3248 31.8996 49.5894 31.6361C50.1364 31.0915 50.137 30.2046 49.5903 29.6599Z" fill="white"/>
    <path d="M46.2473 32.9908C44.0433 30.7919 41.1124 29.581 37.9944 29.581C34.8822 29.581 31.9556 30.7881 29.7535 32.9792C29.4883 33.2429 29.3424 33.5937 29.3418 33.9671C29.3418 34.3402 29.4872 34.6913 29.752 34.9554C30.0168 35.2196 30.3692 35.3654 30.744 35.3654C31.1182 35.3654 31.4701 35.22 31.7353 34.9569C33.4082 33.2925 35.6312 32.3756 37.9944 32.3756C40.3626 32.3756 42.5886 33.2957 44.2626 34.9658C44.5278 35.2304 44.8801 35.3762 45.2551 35.3762C45.6295 35.3762 45.9816 35.2308 46.246 34.9673C46.5108 34.7036 46.6571 34.3529 46.6573 33.9794C46.6577 33.606 46.5119 33.2552 46.2473 32.9908Z" fill="white"/>
  </g>
  <defs>
    <filter id="filter0_d_277_61" x="0" y="0" width="76" height="76" filterUnits="userSpaceOnUse" color-interpolation-filters="sRGB">
      <feFlood flood-opacity="0" result="BackgroundImageFix"/>
      <feColorMatrix in="SourceAlpha" type="matrix" values="0 0 0 0 0 0 0 0 0 0 0 0 0 0 0 0 0 0 127 0" result="hardAlpha"/>
      <feOffset dy="4"/>
      <feGaussianBlur stdDeviation="6"/>
      <feComposite in2="hardAlpha" operator="out"/>
      <feColorMatrix type="matrix" values="0 0 0 0 0.956863 0 0 0 0 0.309804 0 0 0 0 0.0470588 0 0 0 0.2 0"/>
      <feBlend mode="normal" in2="BackgroundImageFix" result="effect1_dropShadow_277_61"/>
      <feBlend mode="normal" in="SourceGraphic" in2="effect1_dropShadow_277_61" result="shape"/>
    </filter>
    <clipPath id="clip0_277_61">
      <rect width="24" height="24" fill="white" transform="translate(26 22)"/>
    </clipPath>
  </defs>
</svg>