<?xml version="1.0" encoding="utf-8"?>
<svg width="52px" height="52px" viewBox="0 0 52 52" fill="none" xmlns="http://www.w3.org/2000/svg">
  <g filter="url(#filter0_d_2_2456)" transform="matrix(1, 0, 0, 1, -12, -8)">
    <circle cx="38" cy="34" r="26" fill="#F44F0C"/>
  </g>
  <path d="M 23.188 15.03 C 22.976 14.71 22.836 14.498 22.836 14 L 21.43 14 C 21.43 14.92 21.754 15.411 22.015 15.806 C 22.227 16.127 22.367 16.338 22.367 16.836 C 22.367 17.334 22.227 17.545 22.015 17.866 C 21.754 18.261 21.43 18.752 21.43 19.672 L 22.836 19.672 C 22.836 19.174 22.976 18.962 23.188 18.642 C 23.449 18.247 23.773 17.756 23.773 16.836 C 23.773 15.916 23.449 15.425 23.188 15.03 Z" fill="white"/>
  <path d="M 20.376 15.03 C 20.164 14.71 20.023 14.498 20.023 14 L 18.617 14 C 18.617 14.92 18.942 15.411 19.203 15.806 C 19.415 16.127 19.555 16.338 19.555 16.836 C 19.555 17.334 19.415 17.545 19.203 17.866 C 18.942 18.261 18.617 18.752 18.617 19.672 L 20.023 19.672 C 20.023 19.174 20.164 18.962 20.376 18.642 C 20.636 18.247 20.961 17.756 20.961 16.836 C 20.961 15.916 20.636 15.425 20.376 15.03 Z" fill="white"/>
  <path d="M 26.001 15.03 C 25.789 14.71 25.648 14.498 25.648 14 L 24.242 14 C 24.242 14.92 24.567 15.411 24.828 15.806 C 25.04 16.127 25.18 16.338 25.18 16.836 C 25.18 17.334 25.04 17.545 24.828 17.866 C 24.567 18.261 24.242 18.752 24.242 19.672 L 25.648 19.672 C 25.648 19.174 25.789 18.962 26.001 18.642 C 26.261 18.247 26.586 17.756 26.586 16.836 C 26.586 15.916 26.261 15.425 26.001 15.03 Z" fill="white"/>
  <path d="M 28.813 15.03 C 28.601 14.71 28.461 14.498 28.461 14 L 27.055 14 C 27.055 14.92 27.379 15.411 27.64 15.806 C 27.852 16.127 27.992 16.338 27.992 16.836 C 27.992 17.334 27.852 17.545 27.64 17.866 C 27.379 18.261 27.055 18.752 27.055 19.672 L 28.461 19.672 C 28.461 19.174 28.601 18.962 28.813 18.642 C 29.074 18.247 29.398 17.756 29.398 16.836 C 29.398 15.916 29.074 15.425 28.813 15.03 Z" fill="white"/>
  <path d="M 31.626 15.03 C 31.414 14.71 31.273 14.498 31.273 14 L 29.867 14 C 29.867 14.92 30.192 15.411 30.453 15.806 C 30.665 16.127 30.805 16.338 30.805 16.836 C 30.805 17.334 30.665 17.545 30.453 17.866 C 30.192 18.261 29.867 18.752 29.867 19.672 L 31.273 19.672 C 31.273 19.174 31.414 18.962 31.626 18.642 C 31.886 18.247 32.211 17.756 32.211 16.836 C 32.211 15.916 31.886 15.425 31.626 15.03 Z" fill="white"/>
  <path d="M 28.156 21.078 C 27.121 21.078 26.281 21.918 26.281 22.953 L 26.281 36.125 C 26.281 37.161 27.121 38 28.156 38 C 29.192 38 30.031 37.161 30.031 36.125 L 30.031 22.953 C 30.031 21.918 29.192 21.078 28.156 21.078 Z" fill="white"/>
  <path d="M 17.516 21.078 C 16.48 21.078 15.641 21.918 15.641 22.953 L 15.641 23.656 L 14 23.656 L 14 25.063 L 15.641 25.063 L 15.641 36.125 C 15.641 37.161 16.48 38 17.516 38 C 18.551 38 19.391 37.161 19.391 36.125 L 19.391 22.953 C 19.391 21.918 18.551 21.078 17.516 21.078 Z" fill="white"/>
  <path d="M 23 21.078 C 21.965 21.078 21.125 21.918 21.125 22.953 L 21.125 36.125 C 21.125 37.161 21.965 38 23 38 C 24.036 38 24.875 37.161 24.875 36.125 L 24.875 22.953 C 24.875 21.918 24.036 21.078 23 21.078 Z" fill="white"/>
  <path d="M 36.594 21.969 L 36.594 23.656 L 35.188 23.656 L 35.188 22.953 C 35.188 21.918 34.348 21.078 33.313 21.078 C 32.277 21.078 31.438 21.918 31.438 22.953 L 31.438 36.125 C 31.438 37.161 32.277 38 33.313 38 C 34.348 38 35.188 37.161 35.188 36.125 L 35.188 25.063 L 38 25.063 L 38 21.969 L 36.594 21.969 Z" fill="white"/>
  <defs>
    <filter id="filter0_d_2_2456" x="0" y="0" width="76" height="76" filterUnits="userSpaceOnUse" color-interpolation-filters="sRGB">
      <feFlood flood-opacity="0" result="BackgroundImageFix"/>
      <feColorMatrix in="SourceAlpha" type="matrix" values="0 0 0 0 0 0 0 0 0 0 0 0 0 0 0 0 0 0 127 0" result="hardAlpha"/>
      <feOffset dy="4"/>
      <feGaussianBlur stdDeviation="6"/>
      <feComposite in2="hardAlpha" operator="out"/>
      <feColorMatrix type="matrix" values="0 0 0 0 0.956863 0 0 0 0 0.309804 0 0 0 0 0.0470588 0 0 0 0.2 0"/>
      <feBlend mode="normal" in2="BackgroundImageFix" result="effect1_dropShadow_2_2456"/>
      <feBlend mode="normal" in="SourceGraphic" in2="effect1_dropShadow_2_2456" result="shape"/>
    </filter>
  </defs>
</svg>