<?xml version="1.0" encoding="utf-8"?>
<svg width="52px" height="52px" viewBox="0 0 52 52" fill="none" xmlns="http://www.w3.org/2000/svg">
  <g filter="url(#filter0_d_2_2522)" transform="matrix(1, 0, 0, 1, -15, -10)">
    <circle cx="41" cy="36" r="26" fill="#5096FF"/>
  </g>
  <g clip-path="url(#clip0_2_2522)" transform="matrix(1, 0, 0, 1, -15, -10)">
    <path d="M48.2256 38.3498C48.2272 38.3473 48.2289 38.3451 48.2305 38.3427C48.2437 38.3203 48.2246 38.3508 48.2256 38.3498Z" fill="white"/>
    <path d="M48.2306 33.5299C48.2292 33.5272 48.2276 33.5248 48.2261 33.5222C48.2291 33.5276 48.2329 33.5344 48.2357 33.5394C48.2339 33.5362 48.2322 33.5331 48.2306 33.5299Z" fill="white"/>
    <path d="M48.3972 26.6339C48.4159 26.6117 48.378 26.6559 48.3972 26.6339V26.6339Z" fill="white"/>
    <path d="M42.9888 42.3124C43.0011 42.3068 42.9981 42.3082 42.9888 42.3124V42.3124Z" fill="white"/>
    <path d="M51.2528 24.911C51.1967 24.7962 51.1406 24.6813 51.0846 24.5664C50.894 24.6649 50.7089 24.7743 50.5268 24.8875C50.4232 24.952 50.3208 25.0184 50.2192 25.0861L50.0853 25.1766C50.0443 25.1144 50.0031 25.0522 49.9622 24.9899L50.0944 24.9082C50.2039 24.8417 50.3143 24.7764 50.4259 24.7134C50.6163 24.6058 50.8098 24.5023 51.0081 24.4102C50.97 24.3321 50.9319 24.254 50.8937 24.1759C50.8711 24.1296 50.8486 24.0833 50.8259 24.037C50.8083 24.0011 50.8149 23.9923 50.7761 24.0063C50.4288 24.1317 50.0887 24.2762 49.7561 24.4361C48.9533 24.822 48.1728 25.2933 47.4987 25.8783C46.7991 26.4853 46.1777 27.1862 45.7516 28.0145C45.3245 28.8451 45.1 29.7588 45.0871 30.6925C45.0808 31.1631 45.1418 31.6249 45.2276 32.0865C45.3144 32.5542 45.4722 33 45.6344 33.4457C45.7451 33.7673 45.9191 34.0644 46.0407 34.3821C46.1198 34.5889 46.1773 34.7969 46.2268 35.012C46.2723 35.2101 46.2809 35.431 46.2575 35.6327C46.2346 35.8306 46.1674 36.0021 46.0674 36.1727C45.9625 36.3518 45.8024 36.5065 45.6494 36.6445C45.4875 36.7907 45.3137 36.9227 45.1329 37.0444C44.3619 37.563 43.484 37.9171 42.606 38.2084C42.5777 38.2178 42.5493 38.2265 42.521 38.2357L40.7165 41.957C40.7412 41.9488 40.7661 41.9411 40.7908 41.9328C41.2256 41.7881 41.6579 41.6359 42.0855 41.4709C42.2689 41.4001 42.4513 41.3269 42.6334 41.2527C42.6484 41.2465 42.6836 41.2313 42.6836 41.2313C42.6836 41.2313 42.7072 41.2893 42.7179 41.3132C42.8104 41.5232 42.9029 41.7329 42.9955 41.9429C43.0337 42.0295 43.072 42.1162 43.1101 42.2027C43.1167 42.2177 43.1232 42.2328 43.1298 42.2476C43.1301 42.2485 42.9994 42.3079 42.9725 42.3201C42.9786 42.3172 42.9844 42.3147 42.989 42.3125C42.9842 42.3148 42.9778 42.3177 42.9678 42.3223C42.2505 42.6511 41.5174 42.9455 40.7757 43.2142C40.5089 43.3109 40.2405 43.4033 39.9715 43.4938L37.8208 47.929C38.1472 47.8113 38.4718 47.6883 38.7948 47.5637C39.6555 47.2313 40.506 46.872 41.3435 46.4847C43.0456 45.6979 44.7043 44.7972 46.23 43.7031C47.6881 42.6514 49.0637 41.3998 49.9702 39.8285C50.4253 39.0395 50.7571 38.167 50.8813 37.262C51.0084 36.3374 50.9213 35.39 50.6335 34.5024C50.4438 33.9173 50.1729 33.3511 49.8331 32.8376C49.6823 32.6096 49.5234 32.3901 49.358 32.1727C49.264 32.0495 49.1607 31.9333 49.0588 31.8166C48.9057 31.6411 48.7798 31.4412 48.6547 31.2456C48.4426 30.9142 48.2866 30.5356 48.2095 30.1496C48.1144 29.6732 48.148 29.1962 48.2734 28.729C48.5139 27.833 49.0799 27.0362 49.7033 26.3637C50.0864 25.9502 50.5067 25.5696 50.9536 25.226C51.0426 25.1574 51.133 25.0903 51.2247 25.0254C51.2961 24.9745 51.2886 24.9844 51.2528 24.911ZM48.255 38.2995C48.255 38.2995 48.2454 38.3177 48.2306 38.3427C48.2272 38.3479 48.226 38.3496 48.2258 38.3497C47.8252 38.9576 47.3538 39.4928 46.8042 39.9711C46.2862 40.4219 45.7225 40.8106 45.1423 41.1758C44.9708 40.8838 44.7994 40.5917 44.6279 40.2996C45.355 39.8832 46.0624 39.4254 46.6761 38.8505C46.9785 38.5672 47.2468 38.2589 47.4894 37.9235L47.5466 37.8487L48.255 38.2995ZM48.2262 33.5221C48.2204 33.5118 48.2176 33.5067 48.2307 33.5298C48.2428 33.5517 48.2409 33.5485 48.2357 33.5393C48.6503 34.2917 48.935 35.1238 48.9314 35.9907C48.6808 35.9859 48.4301 35.9811 48.1795 35.9763C48.211 35.333 48.0434 34.6936 47.786 34.1082C47.6436 33.7841 47.4628 33.4793 47.2872 33.1725C47.1354 32.9078 47.0034 32.6378 46.8751 32.3611C46.9725 32.3171 47.0699 32.2732 47.1673 32.2293C47.2299 32.2011 47.4056 32.1211 47.4056 32.1211L47.4215 32.1543C47.5368 32.3769 47.6554 32.5927 47.7874 32.8058C47.935 33.0439 48.0886 33.2782 48.2262 33.5221ZM48.3977 26.6339C47.9617 27.1361 47.5713 27.6677 47.2985 28.278C47.0434 28.8493 46.8984 29.4694 46.9085 30.0961C46.746 30.0937 46.5833 30.0914 46.4207 30.0891C46.4449 29.2546 46.71 28.4459 47.1365 27.731C47.3531 27.3676 47.6096 27.0332 47.8862 26.7139C47.9528 26.6369 48.0243 26.564 48.0942 26.4901C48.1194 26.4636 48.1966 26.3778 48.1966 26.3778C48.1966 26.3778 48.3547 26.531 48.4251 26.5984C48.4261 26.5993 48.4268 26.6001 48.4278 26.601C48.4173 26.6115 48.4073 26.6225 48.3977 26.6339Z" fill="white"/>
    <path d="M42.9097 34.0364C42.9097 30.6759 40.1759 27.942 36.8154 27.942C33.4551 27.942 30.7212 30.6759 30.7212 34.0364C30.7212 35.0211 30.9563 35.9518 31.3727 36.776L36.8154 48L42.259 36.7742C42.675 35.9505 42.9097 35.0203 42.9097 34.0364ZM36.8154 37.4088C34.9558 37.4088 33.4429 35.8959 33.4429 34.0363C33.4429 32.1766 34.9559 30.6637 36.8154 30.6637C38.675 30.6637 40.188 32.1767 40.188 34.0363C40.188 35.8959 38.675 37.4088 36.8154 37.4088Z" fill="white"/>
  </g>
  <defs>
    <filter id="filter0_d_2_2522" x="0" y="0" width="82" height="82" filterUnits="userSpaceOnUse" color-interpolation-filters="sRGB">
      <feFlood flood-opacity="0" result="BackgroundImageFix"/>
      <feColorMatrix in="SourceAlpha" type="matrix" values="0 0 0 0 0 0 0 0 0 0 0 0 0 0 0 0 0 0 127 0" result="hardAlpha"/>
      <feOffset dy="5"/>
      <feGaussianBlur stdDeviation="7.5"/>
      <feColorMatrix type="matrix" values="0 0 0 0 0 0 0 0 0 0 0 0 0 0 0 0 0 0 0.1 0"/>
      <feBlend mode="normal" in2="BackgroundImageFix" result="effect1_dropShadow_2_2522"/>
      <feBlend mode="normal" in="SourceGraphic" in2="effect1_dropShadow_2_2522" result="shape"/>
    </filter>
    <clipPath id="clip0_2_2522">
      <rect width="24" height="24" fill="white" transform="translate(29 24)"/>
    </clipPath>
  </defs>
</svg>