<?xml version="1.0" encoding="utf-8"?>
<svg width="52px" height="52px" viewBox="0 0 52 52" fill="none" xmlns="http://www.w3.org/2000/svg">
  <g filter="url(#filter0_d_2_2542)" transform="matrix(1, 0, 0, 1, -15, -10)">
    <circle cx="41" cy="36" r="26" fill="#5096FF"/>
  </g>
  <path d="M 35.447 16.809 L 35.447 14.766 L 16.043 14.766 L 16.043 16.809 L 14 23.958 L 14 25.128 C 14 26.193 14.632 27.141 15.532 27.615 C 15.532 30.768 15.532 37.234 15.532 37.234 L 19.617 37.234 L 19.617 29.064 L 23.702 29.064 L 23.702 37.234 L 35.957 37.234 L 35.957 27.823 C 37.121 27.479 38 26.385 38 25.128 L 38 23.958 L 35.447 16.809 Z M 16.809 26.915 C 15.967 26.915 15.021 26.24 15.021 24.979 L 18.596 24.979 C 18.596 26.238 17.651 26.915 16.809 26.915 Z M 31.362 16.809 L 32.383 23.958 C 30.38 23.958 30.279 23.958 28.809 23.958 L 28.298 16.809 L 31.362 16.809 Z M 32.383 24.979 C 32.383 26.23 31.445 26.915 30.596 26.915 C 29.727 26.915 28.809 26.214 28.809 24.979 L 32.383 24.979 Z M 21.404 26.915 C 20.563 26.915 19.617 26.24 19.617 24.979 L 23.192 24.979 C 23.192 26.238 22.247 26.915 21.404 26.915 Z M 23.192 23.958 C 21.771 23.958 21.571 23.958 19.617 23.958 L 20.638 16.809 L 23.702 16.809 L 23.192 23.958 Z M 24.213 24.979 L 27.787 24.979 C 27.787 26.238 26.843 26.915 26 26.915 C 25.159 26.915 24.213 26.24 24.213 24.979 Z M 33.915 35.192 L 25.745 35.192 L 25.745 29.064 L 33.915 29.064 L 33.915 35.192 Z M 35.192 26.915 C 34.323 26.915 33.404 26.214 33.404 24.979 L 36.979 24.979 C 36.979 26.23 36.041 26.915 35.192 26.915 Z" fill="white"/>
  <defs>
    <filter id="filter0_d_2_2542" x="0" y="0" width="82" height="82" filterUnits="userSpaceOnUse" color-interpolation-filters="sRGB">
      <feBlend mode="normal" in="SourceGraphic" in2="effect1_dropShadow_2_2542" result="shape"/>
    </filter>
  </defs>
</svg>
