<?xml version="1.0" encoding="utf-8"?>
<svg width="52px" height="52px" viewBox="0 0 52 52" fill="none" xmlns="http://www.w3.org/2000/svg">
  <g filter="url(#filter0_d_2_2429)" transform="matrix(1, 0, 0, 1, -12, -8)">
    <circle cx="38" cy="34" r="26" fill="#F44F0C"/>
  </g>
  <path fill-rule="evenodd" clip-rule="evenodd" d="M 23.192 26.533 C 22.803 26.533 22.488 26.867 22.488 27.279 L 22.488 30.116 C 22.488 30.527 22.804 30.862 23.192 30.862 L 28.966 30.862 C 29.353 30.862 29.67 30.527 29.67 30.116 L 29.67 27.279 C 29.67 26.867 29.354 26.533 28.966 26.533 L 26.846 26.533 L 26.846 27.27 C 26.846 27.682 26.531 28.016 26.142 28.016 C 25.753 28.016 25.438 27.682 25.438 27.27 L 25.438 26.533 L 23.192 26.533 Z" fill="white"/>
  <path fill-rule="evenodd" clip-rule="evenodd" d="M 24.742 32.355 L 23.263 32.355 L 23.263 33.101 C 23.263 33.514 22.947 33.848 22.559 33.848 C 22.17 33.848 21.855 33.514 21.855 33.101 L 21.855 32.355 L 20.376 32.355 C 19.988 32.355 19.671 32.69 19.671 33.101 L 19.671 37.729 C 19.671 38.142 19.987 38.476 20.376 38.476 L 24.742 38.476 C 25.13 38.476 25.446 38.14 25.446 37.729 L 25.446 33.101 C 25.446 32.69 25.13 32.355 24.742 32.355 Z" fill="white"/>
  <path fill-rule="evenodd" clip-rule="evenodd" d="M 31.909 32.355 L 30.438 32.355 L 30.438 33.101 C 30.438 33.514 30.123 33.848 29.734 33.848 C 29.345 33.848 29.03 33.514 29.03 33.101 L 29.03 32.355 L 27.558 32.355 C 27.17 32.355 26.854 32.69 26.854 33.101 L 26.854 37.729 C 26.854 38.14 27.17 38.476 27.558 38.476 L 31.909 38.476 C 32.298 38.476 32.613 38.142 32.613 37.729 L 32.613 33.101 C 32.613 32.69 32.297 32.355 31.909 32.355 Z" fill="white"/>
  <path fill-rule="evenodd" clip-rule="evenodd" d="M 37.727 18.825 L 32.108 14.748 C 32.092 14.736 31.894 14.643 31.894 14.643 L 26.237 13.025 C 26.11 12.99 25.982 12.993 25.864 13.028 L 20.218 14.643 C 20.128 14.668 20.047 14.711 19.976 14.767 L 14.347 18.853 C 14.135 19.006 14.028 19.26 14.042 19.513 L 14.042 37.73 C 14.042 38.14 14.356 38.473 14.743 38.473 L 14.743 38.476 L 17.56 38.476 C 17.949 38.476 18.264 38.142 18.264 37.73 L 18.264 24.145 L 33.848 24.145 L 33.848 37.73 C 33.848 38.142 34.163 38.476 34.552 38.476 L 37.368 38.476 C 37.757 38.476 38.072 38.142 38.072 37.73 L 38.072 19.468 C 38.073 19.194 37.934 18.955 37.727 18.825 Z M 30.891 20.214 L 21.221 20.214 C 20.832 20.214 20.517 19.88 20.517 19.468 C 20.517 19.056 20.832 18.721 21.221 18.721 L 30.891 18.721 C 31.28 18.721 31.595 19.056 31.595 19.468 C 31.595 19.88 31.28 20.214 30.891 20.214 Z" fill="white"/>
  <defs>
    <filter id="filter0_d_2_2429" x="0" y="0" width="76" height="76" filterUnits="userSpaceOnUse" color-interpolation-filters="sRGB">
      <feFlood flood-opacity="0" result="BackgroundImageFix"/>
      <feColorMatrix in="SourceAlpha" type="matrix" values="0 0 0 0 0 0 0 0 0 0 0 0 0 0 0 0 0 0 127 0" result="hardAlpha"/>
      <feOffset dy="4"/>
      <feGaussianBlur stdDeviation="6"/>
      <feComposite in2="hardAlpha" operator="out"/>
      <feColorMatrix type="matrix" values="0 0 0 0 0.956863 0 0 0 0 0.309804 0 0 0 0 0.0470588 0 0 0 0.2 0"/>
      <feBlend mode="normal" in2="BackgroundImageFix" result="effect1_dropShadow_2_2429"/>
      <feBlend mode="normal" in="SourceGraphic" in2="effect1_dropShadow_2_2429" result="shape"/>
    </filter>
  </defs>
</svg>