<?xml version="1.0" encoding="utf-8"?>
<svg width="52px" height="52px" viewBox="0 0 52 52" fill="none" xmlns="http://www.w3.org/2000/svg">
  <g filter="url(#filter0_d_2_2505)" transform="matrix(1, 0, 0, 1, -12, -8)">
    <circle cx="38" cy="34" r="26" fill="#F44F0C"/>
  </g>
  <path d="M 26 18.266 C 23.286 18.266 21.078 20.474 21.078 23.188 C 21.078 25.901 23.286 28.109 26 28.109 C 28.714 28.109 30.922 25.901 30.922 23.188 C 30.922 20.474 28.714 18.266 26 18.266 Z M 26.703 23.891 L 25.297 23.891 L 25.297 26 C 25.297 26.389 24.982 26.703 24.594 26.703 C 24.205 26.703 23.891 26.389 23.891 26 L 23.891 20.375 C 23.891 19.986 24.205 19.672 24.594 19.672 L 26.703 19.672 C 27.866 19.672 28.813 20.618 28.813 21.781 C 28.813 22.944 27.866 23.891 26.703 23.891 Z" fill="white"/>
  <path d="M 26.703 21.078 L 25.297 21.078 L 25.297 22.484 L 26.703 22.484 C 27.091 22.484 27.406 22.169 27.406 21.781 C 27.406 21.393 27.091 21.078 26.703 21.078 Z" fill="white"/>
  <path d="M 26 14 C 20.96 14 16.859 18.148 16.859 23.188 C 16.859 25.177 17.49 27.069 18.682 28.66 L 25.438 37.719 C 25.57 37.896 25.779 38 26 38 C 26.221 38 26.43 37.896 26.562 37.719 L 33.318 28.66 C 34.51 27.069 35.141 25.177 35.141 23.188 C 35.141 18.148 31.04 14 26 14 Z M 26 29.516 C 22.511 29.516 19.672 26.677 19.672 23.188 C 19.672 19.698 22.511 16.859 26 16.859 C 29.49 16.859 32.328 19.698 32.328 23.188 C 32.328 26.677 29.49 29.516 26 29.516 Z" fill="white"/>
  <defs>
    <filter id="filter0_d_2_2505" x="0" y="0" width="76" height="76" filterUnits="userSpaceOnUse" color-interpolation-filters="sRGB">
      <feFlood flood-opacity="0" result="BackgroundImageFix"/>
      <feColorMatrix in="SourceAlpha" type="matrix" values="0 0 0 0 0 0 0 0 0 0 0 0 0 0 0 0 0 0 127 0" result="hardAlpha"/>
      <feOffset dy="4"/>
      <feGaussianBlur stdDeviation="6"/>
      <feComposite in2="hardAlpha" operator="out"/>
      <feColorMatrix type="matrix" values="0 0 0 0 0.956863 0 0 0 0 0.309804 0 0 0 0 0.0470588 0 0 0 0.2 0"/>
      <feBlend mode="normal" in2="BackgroundImageFix" result="effect1_dropShadow_2_2505"/>
      <feBlend mode="normal" in="SourceGraphic" in2="effect1_dropShadow_2_2505" result="shape"/>
    </filter>
  </defs>
</svg>