<?xml version="1.0" encoding="utf-8"?>
<svg width="52px" height="52px" viewBox="0 0 52 52" fill="none" xmlns="http://www.w3.org/2000/svg">
  <g filter="url(#filter0_d_2_2536)" transform="matrix(1, 0, 0, 1, -15, -10)">
    <circle cx="41" cy="36" r="26" fill="#5096FF"/>
  </g>
  <path d="M 36 36.8 L 36 34.302 C 36.527 33.991 36.836 33.411 36.8 32.8 C 36.8 31.916 36.263 31.2 35.6 31.2 C 34.937 31.2 34.4 31.916 34.4 32.8 C 34.364 33.411 34.673 33.991 35.2 34.302 L 35.2 36.8 L 32.4 36.8 L 32.4 24.647 L 30 23.447 L 30 25.6 L 31.2 25.6 L 31.2 26.4 L 30 26.4 L 30 28 L 31.2 28 L 31.2 28.8 L 30 28.8 L 30 30.4 L 31.2 30.4 L 31.2 31.2 L 30 31.2 L 30 32.8 L 31.2 32.8 L 31.2 33.6 L 30 33.6 L 30 35.2 L 31.2 35.2 L 31.2 36 L 30 36 L 30 36.8 L 29.2 36.8 L 29.2 20.702 L 24.4 19.331 L 24.4 20.8 L 27.2 20.8 L 27.2 21.6 L 24.4 21.6 L 24.4 23.2 L 27.2 23.2 L 27.2 24 L 24.4 24 L 24.4 25.6 L 27.2 25.6 L 27.2 26.4 L 24.4 26.4 L 24.4 28 L 27.2 28 L 27.2 28.8 L 24.4 28.8 L 24.4 30.4 L 27.2 30.4 L 27.2 31.2 L 24.4 31.2 L 24.4 32.8 L 27.2 32.8 L 27.2 33.6 L 24.4 33.6 L 24.4 35.2 L 27.2 35.2 L 27.2 36 L 24.4 36 L 24.4 36.8 L 23.6 36.8 L 23.6 14.4 L 16.4 14.4 L 16.4 16 L 20 16 L 20 16.8 L 16.4 16.8 L 16.4 18.4 L 20 18.4 L 20 19.2 L 16.4 19.2 L 16.4 20.8 L 20 20.8 L 20 21.6 L 16.4 21.6 L 16.4 23.2 L 20 23.2 L 20 24 L 16.4 24 L 16.4 25.6 L 20 25.6 L 20 26.4 L 16.4 26.4 L 16.4 28 L 20 28 L 20 28.8 L 16.4 28.8 L 16.4 30.4 L 20 30.4 L 20 31.2 L 16.4 31.2 L 16.4 32.8 L 20 32.8 L 20 33.6 L 16.4 33.6 L 16.4 35.2 L 20 35.2 L 20 36 L 16.4 36 L 16.4 36.8 L 14 36.8 L 14 37.6 L 38 37.6 L 38 36.8 L 36 36.8 Z" fill="white"/>
  <defs>
    <filter id="filter0_d_2_2536" x="0" y="0" width="82" height="82" filterUnits="userSpaceOnUse" color-interpolation-filters="sRGB">
      <feBlend mode="normal" in="SourceGraphic" in2="effect1_dropShadow_2_2536" result="shape"/>
    </filter>
  </defs>
</svg>
