<?xml version="1.0" encoding="utf-8"?>
<svg width="52px" height="52px" viewBox="0 0 52 52" fill="none" xmlns="http://www.w3.org/2000/svg">
  <g filter="url(#filter0_d_2_2562)" transform="matrix(1, 0, 0, 1, -15, -10)">
    <circle cx="41" cy="36" r="26" fill="#5096FF"/>
  </g>
  <g clip-path="url(#clip0_2_2562)" transform="matrix(1, 0, 0, 1, -15, -10)">
    <path d="M40.4663 30.197V37.5306H45.1467V36.2411H41.7575V30.197H40.4663Z" fill="white"/>
    <path d="M53.0727 36.0775C53.0727 29.9325 48.0598 24.9344 41.9066 24.9344C36.3874 24.9344 31.7937 28.9882 30.9051 34.2264H29.1128L32.2036 39.5453L35.385 34.2264H33.5323C34.3801 30.3582 37.817 27.5133 41.9125 27.5133C46.6418 27.5133 50.4904 31.3552 50.4904 36.078C50.4904 40.1592 47.5678 43.5817 43.775 44.4367V47.0656C49.0203 46.1781 53.0727 41.5891 53.0727 36.0775Z" fill="white"/>
    <path d="M31.0086 45.8998L31.8297 45.028C32.3632 44.4482 32.7292 44.0142 32.9279 43.7202C33.1265 43.426 33.2259 43.0892 33.2259 42.7062C33.2259 42.1373 33.039 41.6902 32.6653 41.3626C32.2916 41.0353 31.7713 40.8717 31.1044 40.8717C30.4764 40.8717 29.9721 41.0671 29.5915 41.4568C29.2107 41.8467 29.0273 42.3331 29.0413 42.8936L29.0497 42.9298H30.4251C30.4251 42.6075 30.4855 42.413 30.6064 42.234C30.7273 42.0549 30.8933 41.96 31.1045 41.96C31.3406 41.96 31.5178 42.0265 31.6358 42.1654C31.754 42.3041 31.813 42.4885 31.813 42.7218C31.813 42.8854 31.7546 43.0776 31.6379 43.2995C31.5212 43.5216 31.353 43.7737 31.1059 44.0569L29.169 46.1044V47.0399H33.3652V45.9117H31.0211L31.0086 45.8998Z" fill="white"/>
    <path d="M37.2386 40.9959H35.8668V40.9723L33.4175 44.8873L33.4856 45.7506H35.8668V47.04H37.2386V45.7506H37.8842V44.703H37.2386V40.9959ZM35.8668 44.703H34.661L35.7031 42.9715L35.8266 42.7895L35.8668 42.7871V44.703Z" fill="white"/>
    <path d="M42.4841 47.04V44.4311C42.4841 44.2372 42.4889 44.0594 42.4674 43.8944C42.413 43.4786 42.3002 43.1527 42.1093 42.9202C41.8424 42.5955 41.4799 42.4332 41.0131 42.4332C40.7769 42.4332 40.5783 42.4894 40.3824 42.6018C40.1865 42.7143 39.9825 42.8718 39.9018 43.0743V40.9153H38.4492V47.04H39.9018V43.7443C39.9018 43.6722 40.0364 43.616 40.1366 43.5757C40.2365 43.5356 40.347 43.5155 40.4831 43.5155C40.6971 43.5155 40.854 43.5807 40.9582 43.711C41.0624 43.8414 41.1122 44.0787 41.1122 44.4229V47.04H41.6028H42.4841Z" fill="white"/>
  </g>
  <defs>
    <filter id="filter0_d_2_2562" x="0" y="0" width="82" height="82" filterUnits="userSpaceOnUse" color-interpolation-filters="sRGB">
      <feBlend mode="normal" in="SourceGraphic" in2="effect1_dropShadow_2_2562" result="shape"/>
    </filter>
    <clipPath id="clip0_2_2562">
      <rect width="24.0323" height="24" fill="white" transform="translate(29.0405 24)"/>
    </clipPath>
  </defs>
</svg>
