<?xml version="1.0" encoding="utf-8"?>
<svg width="52px" height="52px" viewBox="0 0 52 52" fill="none" xmlns="http://www.w3.org/2000/svg">
  <g filter="url(#filter0_d_2_2438)" transform="matrix(1, 0, 0, 1, -12, -8)">
    <circle cx="38" cy="34" r="26" fill="#F44F0C"/>
  </g>
  <g clip-path="url(#clip0_2_2438)" transform="matrix(1, 0, 0, 1, -12, -8)">
    <path d="M46.4853 26.2518C44.2188 23.9853 41.2053 22.7371 38 22.7371C34.7947 22.7371 31.7812 23.9853 29.5147 26.2518C27.2482 28.5183 26 31.5317 26 34.7371C26 36.8776 26.5709 38.9794 27.651 40.8148C28.6987 42.5954 30.1969 44.0847 31.9835 45.1218C32.1479 45.2173 32.3276 45.2627 32.505 45.2627C32.8637 45.2627 33.2128 45.0769 33.4059 44.7442C33.6944 44.2473 33.5254 43.6104 33.0284 43.3219C29.9769 41.5506 28.0812 38.2611 28.0812 34.737C28.0812 29.2678 32.5308 24.8183 37.9999 24.8183C43.4692 24.8183 47.9187 29.2678 47.9187 34.737C47.9187 37.0489 47.2927 38.9775 46.1082 40.3142C45.1442 41.4022 43.8499 42.0262 42.5574 42.0262C41.2621 42.0262 39.7945 41.3447 39.2549 39.5398C41.3425 39.1087 42.9169 37.256 42.9169 35.0426V32.0101C42.9169 31.8665 42.8004 31.75 42.6568 31.75H41.2649V28.911C41.2649 28.3363 40.799 27.8704 40.2244 27.8704C39.6496 27.8704 39.1837 28.3363 39.1837 28.911V31.75H36.8165V28.911C36.8165 28.3363 36.3506 27.8704 35.7759 27.8704C35.2011 27.8704 34.7353 28.3363 34.7353 28.911V31.75H33.3433C33.1997 31.75 33.0832 31.8665 33.0832 32.0101V35.0426C33.0832 37.3888 34.8521 39.3294 37.1262 39.6016C37.3706 40.7494 37.8805 41.7363 38.6358 42.5065C39.6481 43.5388 41.041 44.1073 42.5576 44.1073C44.4453 44.1073 46.3072 43.2278 47.666 41.6943C48.7308 40.4926 50.0001 38.3101 50.0001 34.7369C49.9999 31.5317 48.7518 28.5182 46.4853 26.2518Z" fill="white"/>
  </g>
  <defs>
    <filter id="filter0_d_2_2438" x="0" y="0" width="76" height="76" filterUnits="userSpaceOnUse" color-interpolation-filters="sRGB">
      <feBlend mode="normal" in="SourceGraphic" in2="effect1_dropShadow_2_2438" result="shape"/>
    </filter>
    <clipPath id="clip0_2_2438">
      <rect width="24" height="24" fill="white" transform="translate(26 22)"/>
    </clipPath>
  </defs>
</svg>
