<?xml version="1.0" encoding="utf-8"?>
<svg width="52px" height="52px" viewBox="0 0 52 52" fill="none" xmlns="http://www.w3.org/2000/svg">
  <g filter="url(#filter0_d_2_2445)" transform="matrix(1, 0, 0, 1, -12, -8)">
    <circle cx="38" cy="34" r="26" fill="#F44F0C"/>
  </g>
  <path d="M 29.682 14.668 L 29.682 14.678 C 28.998 14.763 28.426 15.185 28.133 15.778 L 26.397 15.778 C 26.054 14.994 25.273 14.444 24.362 14.444 C 23.865 14.444 23.411 14.613 23.041 14.889 L 17.251 14.889 L 17.251 16.667 L 20.719 16.667 C 19.039 17.53 17.7 18.961 16.972 20.716 L 18.615 21.397 C 19.315 19.714 20.734 18.403 22.486 17.846 C 22.722 18.221 23.063 18.522 23.473 18.701 L 23.473 19.423 C 21.445 19.835 19.918 21.628 19.918 23.778 L 19.918 36.222 C 19.918 37.204 20.713 38 21.695 38 L 27.029 38 C 28.011 38 28.806 37.204 28.806 36.222 L 28.806 23.778 C 28.806 21.628 27.279 19.835 25.251 19.423 L 25.251 18.701 C 25.763 18.477 26.173 18.068 26.397 17.556 L 28.133 17.556 C 28.427 18.148 28.999 18.569 29.682 18.653 L 29.682 18.665 L 35.029 19.333 L 35.029 14 L 29.682 14.668 Z M 24.362 36.222 L 21.695 36.222 L 21.695 23.778 L 24.362 23.778 L 24.362 36.222 Z M 25.305 17.61 C 24.795 18.12 23.957 18.113 23.437 17.593 C 22.917 17.073 22.91 16.235 23.42 15.724 C 23.931 15.213 24.769 15.221 25.289 15.741 C 25.809 16.261 25.815 17.099 25.305 17.61 Z" fill="white"/>
  <path d="M 24.657 16.43 C 24.633 16.405 24.607 16.386 24.579 16.37 L 23.732 16.038 L 24.064 16.884 C 24.08 16.912 24.1 16.939 24.124 16.963 C 24.271 17.109 24.51 17.109 24.657 16.963 C 24.804 16.815 24.804 16.577 24.657 16.43 Z" fill="white"/>
  <defs>
    <filter id="filter0_d_2_2445" x="0" y="0" width="76" height="76" filterUnits="userSpaceOnUse" color-interpolation-filters="sRGB">
      <feFlood flood-opacity="0" result="BackgroundImageFix"/>
      <feColorMatrix in="SourceAlpha" type="matrix" values="0 0 0 0 0 0 0 0 0 0 0 0 0 0 0 0 0 0 127 0" result="hardAlpha"/>
      <feOffset dy="4"/>
      <feGaussianBlur stdDeviation="6"/>
      <feComposite in2="hardAlpha" operator="out"/>
      <feColorMatrix type="matrix" values="0 0 0 0 0.956863 0 0 0 0 0.309804 0 0 0 0 0.0470588 0 0 0 0.2 0"/>
      <feBlend mode="normal" in2="BackgroundImageFix" result="effect1_dropShadow_2_2445"/>
      <feBlend mode="normal" in="SourceGraphic" in2="effect1_dropShadow_2_2445" result="shape"/>
    </filter>
  </defs>
</svg>