<?xml version="1.0" encoding="utf-8"?>
<svg width="52px" height="52px" viewBox="0 0 52 52" fill="none" xmlns="http://www.w3.org/2000/svg">
  <g filter="url(#filter0_d_2_2550)" transform="matrix(1, 0, 0, 1, -15, -10)">
    <circle cx="41" cy="36" r="26" fill="#5096FF"/>
  </g>
  <path d="M 31.859 14 L 20.141 14 C 19.623 14 19.203 14.42 19.203 14.938 C 19.203 15.455 19.623 15.875 20.141 15.875 L 31.859 15.875 C 32.377 15.875 32.797 15.455 32.797 14.938 C 32.797 14.42 32.377 14 31.859 14 Z" fill="white"/>
  <path d="M 31.859 36.125 L 20.141 36.125 C 19.623 36.125 19.203 36.545 19.203 37.063 C 19.203 37.58 19.623 38 20.141 38 L 31.859 38 C 32.377 38 32.797 37.58 32.797 37.063 C 32.797 36.545 32.377 36.125 31.859 36.125 Z" fill="white"/>
  <path d="M 30.931 19.621 L 28.041 16.707 C 27.509 16.171 26.801 15.875 26.047 15.875 C 25.293 15.875 24.585 16.171 24.053 16.707 L 21.163 19.621 C 20.798 19.989 20.8 20.582 21.168 20.947 C 21.536 21.312 22.129 21.309 22.494 20.941 L 25.063 18.352 L 25.063 30.547 C 25.063 31.065 25.482 31.484 26 31.484 C 26.518 31.484 26.938 31.065 26.938 30.547 L 26.938 18.257 L 29.6 20.941 C 29.783 21.126 30.024 21.219 30.266 21.219 C 30.504 21.219 30.743 21.128 30.926 20.947 C 31.294 20.582 31.296 19.989 30.931 19.621 Z" fill="white"/>
  <path d="M 30.925 31.053 C 30.558 30.689 29.964 30.691 29.6 31.059 L 26.71 33.972 C 26.532 34.151 26.297 34.25 26.046 34.25 C 25.796 34.25 25.561 34.151 25.383 33.972 L 22.493 31.059 C 22.129 30.691 21.535 30.689 21.167 31.053 C 20.8 31.418 20.797 32.011 21.162 32.379 L 24.052 35.293 C 24.584 35.829 25.293 36.125 26.046 36.125 C 26.8 36.125 27.508 35.829 28.041 35.293 L 30.931 32.379 C 31.295 32.011 31.293 31.418 30.925 31.053 Z" fill="white"/>
  <defs>
    <filter id="filter0_d_2_2550" x="0" y="0" width="82" height="82" filterUnits="userSpaceOnUse" color-interpolation-filters="sRGB">
      <feBlend mode="normal" in="SourceGraphic" in2="effect1_dropShadow_2_2550" result="shape"/>
    </filter>
  </defs>
</svg>
