<svg width="74" height="95" viewBox="0 0 74 95" fill="none" xmlns="http://www.w3.org/2000/svg">
<path d="M73.8318 36.8727C73.8318 16.632 57.5318 0.332031 37.2911 0.332031C17.0505 0.332031 0.750488 16.632 0.750488 36.8727C0.750488 57.1133 37.2911 94.9078 37.2911 94.9078C37.2911 94.9078 73.8318 57.1133 73.8318 36.8727ZM20.2747 36.1562C20.2747 26.8419 27.9769 19.1397 37.2911 19.1397C46.6054 19.1397 54.3076 26.6628 54.3076 36.1562C54.3076 45.4705 46.7846 53.1727 37.2911 53.1727C27.9769 53.1727 20.2747 45.4705 20.2747 36.1562Z" fill="#F44F0C"/>
<circle cx="37.5" cy="36.5" r="28.5" fill="white"/>
<path d="M50.053 37.0683C50.053 37.5784 50.4577 37.9894 50.9552 37.9894H52.5015C52.743 37.9894 52.9412 38.1896 52.9412 38.4383V44.879C52.9412 45.564 52.4726 46.1562 51.8161 46.2996L41.2026 48.6116C40.317 48.8034 39.4829 48.1163 39.4829 47.1911V26.5304C39.4829 25.6052 40.317 24.9181 41.2026 25.1099L51.8161 27.4261C52.4726 27.5695 52.9412 28.1617 52.9412 28.8466V35.6984C52.9412 35.945 52.7451 36.1473 52.5015 36.1473H50.9552C50.4577 36.1473 50.053 36.5604 50.053 37.0683Z" fill="#F44F0C"/>
<path d="M36.128 50.6802L24.1148 47.9487C23.4645 47.8012 23 47.211 23 46.5303V27.469C23 26.7882 23.4624 26.1981 24.1148 26.0505L36.13 23.3191C37.0178 23.1167 37.8622 23.808 37.8622 24.7375V49.2639C37.8601 50.1912 37.0178 50.8825 36.128 50.6802Z" fill="#9DA4B5"/>
</svg>
