<svg width="198" height="52" viewBox="0 0 198 52" fill="none" xmlns="http://www.w3.org/2000/svg">
<g clip-path="url(#clip0)">
<path d="M76.2886 40.1529V39.5125H72.4706C72.3411 39.5125 72.2117 39.4485 72.147 39.3844C72.0823 39.2564 72.0176 39.1923 72.0176 39.0642V33.9411C72.0176 33.6849 72.2117 33.4287 72.5353 33.4287C72.7941 33.4287 72.9883 33.6208 72.9883 33.9411V38.5519H75.6415V33.9411C75.6415 33.6849 75.8357 33.4287 76.0946 33.4287C76.3534 33.4287 76.6122 33.6208 76.6122 33.9411V38.5519H76.8064C77.0652 38.5519 77.2594 38.8081 77.2594 39.0642V40.1529C77.2594 40.2809 77.1947 40.4091 77.1299 40.5371C77.0652 40.6012 76.9358 40.6652 76.8064 40.6652C76.5476 40.6652 76.2886 40.4091 76.2886 40.1529Z" fill="white"/>
<path d="M78.0999 38.8722C77.1939 38.0396 77.1939 36.4387 78.0999 35.6702C78.5529 35.2219 79.0706 35.0298 79.7177 35.0298C80.3649 35.0298 80.8826 35.2219 81.3356 35.6702C81.7885 36.1184 82.0475 36.6308 82.0475 37.2712C82.0475 37.5273 81.8533 37.7194 81.5944 37.7194H78.4882C78.5529 37.9756 78.747 38.2318 78.9412 38.3598C79.1353 38.5519 79.3942 38.616 79.7177 38.616C80.106 38.616 80.3649 38.4879 80.559 38.2958C80.6237 38.2317 80.7532 38.1677 80.8826 38.1677C80.9472 38.1677 81.012 38.1677 81.0768 38.1677C81.1414 38.1677 81.2708 38.2318 81.3356 38.3598C81.4003 38.4239 81.4003 38.5519 81.4003 38.616C81.4003 38.744 81.3356 38.8722 81.2062 39.0002C81.012 39.1923 80.8178 39.2564 80.6237 39.3844C80.3649 39.5126 80.0413 39.5126 79.7177 39.5126C79.1353 39.5765 78.5529 39.3204 78.0999 38.8722ZM81.0768 36.887C81.012 36.5667 80.8178 36.3746 80.6237 36.1825C80.3649 35.9904 80.106 35.9263 79.7825 35.9263C79.4589 35.9263 79.2 35.9904 78.9412 36.1825C78.6824 36.3746 78.5529 36.6308 78.4882 36.887H81.0768Z" fill="white"/>
<path d="M82.8237 39.3844C82.7591 39.3205 82.6943 39.1923 82.6943 39.0643V35.5421C82.6943 35.414 82.7591 35.286 82.8237 35.1579C82.8885 35.0939 83.0179 35.0298 83.1473 35.0298C83.4061 35.0298 83.6003 35.2219 83.6003 35.5421V36.7588H85.6711V35.5421C85.6711 35.286 85.8652 35.0298 86.124 35.0298C86.383 35.0298 86.6418 35.2219 86.6418 35.5421V39.0643C86.6418 39.1923 86.5771 39.3205 86.5124 39.3844C86.383 39.4485 86.3182 39.5126 86.1888 39.5126C85.93 39.5126 85.7358 39.3205 85.7358 39.0643V37.7835H83.665V39.0643C83.665 39.3205 83.4709 39.5126 83.2121 39.5126C83.0179 39.5126 82.8885 39.4485 82.8237 39.3844Z" fill="white"/>
<path d="M89.2297 39.0003V35.9264H87.9354C87.6766 35.9264 87.4824 35.7343 87.4824 35.4782C87.4824 35.222 87.6766 34.9658 87.9354 34.9658H91.4947C91.7535 34.9658 92.0124 35.1579 92.0124 35.4782C92.0124 35.7343 91.8182 35.9264 91.4947 35.9264H90.2004V39.0003C90.2004 39.1284 90.1356 39.2565 90.071 39.3206C89.9416 39.3845 89.8768 39.4486 89.7474 39.4486C89.4238 39.5127 89.2297 39.3206 89.2297 39.0003Z" fill="white"/>
<path d="M92.5293 35.4781C92.5293 35.2219 92.7234 35.0298 92.9823 35.0298C93.1117 35.0298 93.1764 35.0939 93.3058 35.1579C93.3705 35.2219 93.4352 35.35 93.4352 35.4781C93.8236 35.2219 94.2765 35.0298 94.7942 35.0298C95.3767 35.0298 95.959 35.286 96.412 35.6702C96.8651 36.1184 97.0591 36.6308 97.0591 37.2712C97.0591 37.9116 96.8651 38.4239 96.412 38.8722C95.959 39.3205 95.3767 39.5126 94.7942 39.5126C94.2765 39.5126 93.8236 39.3844 93.4352 39.0643V40.6012C93.4352 40.8574 93.2411 41.0495 92.9823 41.0495C92.7234 41.0495 92.5293 40.8574 92.5293 40.6012V35.4781ZM95.8296 38.2318C96.0884 37.9756 96.2179 37.6554 96.2179 37.2712C96.2179 36.887 96.0884 36.5667 95.8296 36.3106C95.5708 36.0544 95.2472 35.9263 94.8589 35.9263C94.4707 35.9263 94.1471 36.0544 93.8882 36.3106C93.6294 36.5667 93.5 36.887 93.5 37.2712C93.5 37.6554 93.6294 37.9116 93.8882 38.2318C94.1471 38.4879 94.4707 38.616 94.8589 38.616C95.2472 38.616 95.5708 38.4879 95.8296 38.2318Z" fill="white"/>
<path d="M99.906 39.3844C99.7763 39.3205 99.7763 39.1923 99.7763 39.0643C99.7763 38.9362 99.8406 38.8081 99.906 38.7441L101.33 37.2712L99.8406 35.7983C99.7763 35.7342 99.7119 35.6061 99.7119 35.4781C99.7119 35.35 99.7763 35.2219 99.8406 35.1579C99.906 35.0939 100.036 35.0298 100.164 35.0298C100.294 35.0298 100.424 35.0939 100.488 35.1579L101.976 36.6308L103.4 35.1579C103.465 35.0939 103.594 35.0298 103.724 35.0298C103.854 35.0298 103.982 35.0939 104.048 35.1579C104.177 35.2219 104.177 35.35 104.177 35.4781C104.177 35.6061 104.112 35.7342 104.048 35.7983L102.559 37.2712L103.982 38.68C104.048 38.7441 104.112 38.8722 104.112 39.0002C104.112 39.2564 103.918 39.4485 103.594 39.4485C103.465 39.4485 103.336 39.3844 103.271 39.3205L101.848 37.9116L100.424 39.3205C100.358 39.3844 100.23 39.4485 100.1 39.4485C99.9703 39.4485 100.036 39.4485 99.906 39.3844Z" fill="white"/>
<path d="M105.083 35.4781C105.083 35.2219 105.277 35.0298 105.535 35.0298C105.665 35.0298 105.729 35.0939 105.859 35.1579C105.923 35.2219 105.988 35.35 105.988 35.4781C106.377 35.2219 106.829 35.0298 107.347 35.0298C107.929 35.0298 108.512 35.286 108.965 35.6702C109.418 36.1184 109.612 36.6308 109.612 37.2712C109.612 37.9116 109.418 38.4239 108.965 38.8722C108.512 39.3205 107.929 39.5126 107.347 39.5126C106.829 39.5126 106.377 39.3844 105.988 39.0643V40.6012C105.988 40.8574 105.794 41.0495 105.535 41.0495C105.277 41.0495 105.083 40.8574 105.083 40.6012V35.4781ZM108.318 38.2318C108.577 37.9756 108.706 37.6554 108.706 37.2712C108.706 36.887 108.577 36.5667 108.318 36.3106C108.059 36.0544 107.735 35.9263 107.347 35.9263C106.959 35.9263 106.635 36.0544 106.377 36.3106C106.117 36.5667 105.988 36.887 105.988 37.2712C105.988 37.6554 106.117 37.9116 106.377 38.2318C106.635 38.4879 106.959 38.616 107.347 38.616C107.735 38.616 108.059 38.4879 108.318 38.2318Z" fill="white"/>
<path d="M110.776 38.8722C110.323 38.4239 110.129 37.9116 110.129 37.2712C110.129 36.6308 110.323 36.1184 110.776 35.6702C111.229 35.2219 111.812 35.0298 112.394 35.0298C113.041 35.0298 113.559 35.2219 114.012 35.6702C114.465 36.1184 114.659 36.6308 114.724 37.2712V39.0002C114.724 39.1282 114.659 39.2564 114.595 39.3204C114.529 39.3844 114.4 39.4485 114.271 39.4485C114.012 39.4485 113.818 39.2564 113.818 39.0002C113.429 39.3204 112.977 39.5126 112.459 39.5126C111.747 39.5765 111.164 39.3204 110.776 38.8722ZM113.365 38.2318C113.623 37.9756 113.753 37.6554 113.753 37.2712C113.753 36.887 113.623 36.5667 113.365 36.3105C113.106 36.0544 112.782 35.9263 112.394 35.9263C112.006 35.9263 111.682 36.0544 111.423 36.3105C111.164 36.5667 111.035 36.887 111.035 37.2712C111.035 37.6554 111.164 37.9115 111.423 38.2318C111.682 38.4879 112.006 38.616 112.394 38.616C112.782 38.616 113.106 38.4879 113.365 38.2318Z" fill="white"/>
<path d="M115.695 39.3844C115.629 39.3205 115.565 39.1923 115.565 39.0643V35.5421C115.565 35.414 115.629 35.286 115.695 35.1579C115.759 35.0939 115.889 35.0298 116.017 35.0298C116.277 35.0298 116.471 35.2219 116.471 35.5421V36.7588H118.541V35.5421C118.541 35.286 118.736 35.0298 118.995 35.0298C119.253 35.0298 119.513 35.2219 119.513 35.5421V39.0643C119.513 39.1923 119.447 39.3205 119.383 39.3844C119.253 39.4485 119.189 39.5126 119.059 39.5126C118.801 39.5126 118.607 39.3205 118.607 39.0643V37.7835H116.535V39.0643C116.535 39.3205 116.341 39.5126 116.083 39.5126C115.889 39.5126 115.823 39.4485 115.695 39.3844Z" fill="white"/>
<path d="M121.065 38.8722C120.159 38.0396 120.159 36.4387 121.065 35.6702C121.518 35.2219 122.036 35.0298 122.683 35.0298C123.33 35.0298 123.847 35.2219 124.301 35.6702C124.753 36.1184 125.013 36.6308 125.013 37.2712C125.013 37.5273 124.819 37.7194 124.559 37.7194H121.453C121.518 37.9756 121.712 38.2318 121.907 38.3598C122.101 38.5519 122.359 38.616 122.683 38.616C123.071 38.616 123.33 38.4879 123.524 38.2958C123.589 38.2317 123.719 38.1677 123.847 38.1677C123.913 38.1677 123.977 38.1677 124.041 38.1677C124.107 38.1677 124.236 38.2318 124.301 38.3598C124.365 38.4239 124.365 38.5519 124.365 38.616C124.365 38.744 124.301 38.8722 124.171 39.0002C123.977 39.1923 123.783 39.2564 123.589 39.3844C123.33 39.5126 123.007 39.5126 122.683 39.5126C122.036 39.5765 121.518 39.3204 121.065 38.8722ZM124.041 36.887C123.977 36.5667 123.783 36.3746 123.589 36.1825C123.33 35.9904 123.071 35.9263 122.747 35.9263C122.424 35.9263 122.165 35.9904 121.907 36.1825C121.647 36.3746 121.518 36.6308 121.453 36.887H124.041Z" fill="white"/>
<path d="M125.724 39.3844C125.659 39.3205 125.594 39.1923 125.594 39.0643V35.5421C125.594 35.414 125.659 35.286 125.724 35.1579C125.788 35.0939 125.918 35.0298 126.047 35.0298C126.306 35.0298 126.5 35.2219 126.5 35.5421V36.7588H128.57V35.5421C128.57 35.286 128.765 35.0298 129.024 35.0298C129.282 35.0298 129.542 35.2219 129.542 35.5421V39.0643C129.542 39.1923 129.476 39.3205 129.412 39.3844C129.282 39.4485 129.218 39.5126 129.088 39.5126C128.83 39.5126 128.636 39.3205 128.636 39.0643V37.7835H126.565V39.0643C126.565 39.3205 126.37 39.5126 126.112 39.5126C125.982 39.5126 125.853 39.4485 125.724 39.3844Z" fill="white"/>
<path d="M131.029 39.3845C130.965 39.2565 130.899 39.1924 130.899 39.0644V35.5422C130.899 35.2861 131.093 35.0299 131.417 35.0299C131.676 35.0299 131.871 35.222 131.871 35.5422V37.7836L134.071 35.1579C134.135 35.094 134.2 35.0299 134.265 35.0299C134.329 34.9658 134.394 34.9658 134.459 34.9658C134.717 34.9658 134.977 35.1579 134.977 35.4782V39.0003C134.977 39.1284 134.911 39.2565 134.847 39.3206C134.783 39.3845 134.653 39.4486 134.523 39.4486C134.265 39.4486 134.071 39.2565 134.071 38.9363V36.6309L131.871 39.2565C131.805 39.3845 131.611 39.4486 131.482 39.4486C131.223 39.5127 131.093 39.4486 131.029 39.3845Z" fill="white"/>
<path d="M136.27 38.6801L136.788 38.1038C136.206 37.8476 135.882 37.3353 135.882 36.6949C135.882 36.2467 136.076 35.7984 136.4 35.4782C136.724 35.1579 137.176 34.9658 137.63 34.9658H138.988C139.118 34.9658 139.248 35.0299 139.376 35.094C139.442 35.1579 139.506 35.2861 139.506 35.4782V39.0003C139.506 39.2565 139.312 39.5127 138.988 39.5127C138.73 39.5127 138.536 39.3206 138.536 39.0003V38.2959H138.018L136.982 39.3845C136.788 39.5766 136.465 39.5766 136.27 39.3845C136.076 39.1924 136.076 38.8723 136.27 38.6801ZM138.47 37.3993V35.9264H137.63C137.176 35.9264 136.853 36.3107 136.853 36.6949C136.853 37.0792 137.176 37.3993 137.63 37.3993H138.47Z" fill="white"/>
<path d="M143.195 39.5126C142.935 39.5126 142.741 39.3205 142.741 39.0643V35.4781C142.741 35.35 142.806 35.2219 142.871 35.1579C142.935 35.0939 143.065 35.0298 143.195 35.0298H144.747C145.135 35.0298 145.395 35.1579 145.718 35.35C145.977 35.6061 146.107 35.8623 146.107 36.2466C146.107 36.6308 145.977 36.887 145.653 37.0791C146.041 37.3352 146.301 37.7195 146.301 38.1677C146.301 39.0002 145.653 39.5126 144.877 39.5126H143.195ZM143.712 36.8229H144.747C144.877 36.8229 145.007 36.7588 145.071 36.6949C145.201 36.6308 145.201 36.5027 145.201 36.3106C145.201 35.9904 145.007 35.8623 144.683 35.8623H143.647V36.8229H143.712ZM143.712 38.616H144.941C145.265 38.616 145.524 38.4239 145.524 38.1037C145.524 37.9756 145.459 37.8475 145.395 37.7195C145.265 37.5913 145.135 37.5274 145.007 37.5274H143.777V38.616H143.712Z" fill="white"/>
<path d="M147.4 38.8722C146.947 38.4239 146.753 37.9116 146.753 37.2712C146.753 36.6308 146.947 36.1184 147.4 35.6702C147.853 35.2219 148.436 35.0298 149.018 35.0298C149.666 35.0298 150.183 35.2219 150.636 35.6702C151.089 36.1184 151.284 36.6308 151.348 37.2712V39.0002C151.348 39.1282 151.284 39.2564 151.218 39.3204C151.154 39.3844 151.024 39.4485 150.895 39.4485C150.636 39.4485 150.442 39.2564 150.442 39.0002C150.054 39.3204 149.6 39.5126 149.083 39.5126C148.436 39.5765 147.853 39.3204 147.4 38.8722ZM149.989 38.2318C150.248 37.9756 150.377 37.6554 150.377 37.2712C150.377 36.887 150.248 36.5667 149.989 36.3105C149.73 36.0544 149.406 35.9263 149.018 35.9263C148.63 35.9263 148.306 36.0544 148.048 36.3105C147.789 36.5667 147.659 36.887 147.659 37.2712C147.659 37.6554 147.789 37.9115 148.048 38.2318C148.306 38.4879 148.63 38.616 149.018 38.616C149.406 38.616 149.73 38.4879 149.989 38.2318Z" fill="white"/>
<path d="M152.965 39.5126C152.835 39.5126 152.706 39.4485 152.641 39.3844C152.577 39.3205 152.512 39.1923 152.512 39.0643V35.5421C152.512 35.414 152.577 35.286 152.641 35.1579C152.771 35.0939 152.835 35.0298 152.965 35.0298C153.224 35.0298 153.418 35.2219 153.418 35.5421V38.616H154.971V35.5421C154.971 35.414 155.036 35.286 155.101 35.1579C155.23 35.0939 155.295 35.0298 155.489 35.0298C155.747 35.0298 155.941 35.2219 155.941 35.5421V38.616H157.495V35.5421C157.495 35.414 157.559 35.286 157.625 35.1579C157.753 35.0939 157.819 35.0298 157.947 35.0298C158.207 35.0298 158.401 35.2219 158.401 35.5421V39.0643C158.401 39.3205 158.207 39.5126 157.947 39.5126H152.965Z" fill="white"/>
<path d="M159.694 39.3845C159.63 39.2565 159.564 39.1924 159.564 39.0644V35.5422C159.564 35.2861 159.759 35.0299 160.082 35.0299C160.342 35.0299 160.536 35.222 160.536 35.5422V37.7836L162.736 35.1579C162.8 35.094 162.866 35.0299 162.93 35.0299C162.994 34.9658 163.06 34.9658 163.124 34.9658C163.382 34.9658 163.642 35.1579 163.642 35.4782V39.0003C163.642 39.1284 163.578 39.2565 163.512 39.3206C163.448 39.3845 163.318 39.4486 163.188 39.4486C162.93 39.4486 162.736 39.2565 162.736 38.9363V36.6309L160.536 39.2565C160.47 39.3845 160.276 39.4486 160.147 39.4486C159.888 39.5127 159.759 39.4486 159.694 39.3845Z" fill="white"/>
<path d="M164.547 39.3844C164.418 39.3205 164.418 39.1923 164.418 39.0643C164.418 38.9362 164.482 38.8081 164.547 38.7441L165.97 37.2712L164.482 35.7983C164.418 35.7342 164.353 35.6061 164.353 35.4781C164.353 35.35 164.418 35.2219 164.482 35.1579C164.547 35.0939 164.676 35.0298 164.806 35.0298C164.935 35.0298 165.064 35.0939 165.129 35.1579L166.618 36.6308L168.042 35.1579C168.106 35.0939 168.236 35.0298 168.364 35.0298C168.494 35.0298 168.624 35.0939 168.688 35.1579C168.818 35.2219 168.818 35.35 168.818 35.4781C168.818 35.6061 168.754 35.7342 168.688 35.7983L167.2 37.2712L168.624 38.68C168.688 38.7441 168.754 38.8722 168.754 39.0002C168.754 39.2564 168.559 39.4485 168.236 39.4485C168.106 39.4485 167.976 39.3844 167.912 39.3205L166.488 37.9116L165.064 39.3205C165 39.3844 164.87 39.4485 164.741 39.4485C164.612 39.4485 164.676 39.4485 164.547 39.3844Z" fill="white"/>
<path d="M172.507 39.5126C172.247 39.5126 172.053 39.3205 172.053 39.0643V35.4781C172.053 35.35 172.118 35.2219 172.183 35.1579C172.247 35.0939 172.377 35.0298 172.507 35.0298H174.059C174.447 35.0298 174.707 35.1579 175.03 35.35C175.289 35.6061 175.419 35.8623 175.419 36.2466C175.419 36.6308 175.289 36.887 174.965 37.0791C175.353 37.3352 175.613 37.7195 175.613 38.1677C175.613 39.0002 174.965 39.5126 174.189 39.5126H172.507ZM173.024 36.8229H174.059C174.189 36.8229 174.319 36.7588 174.383 36.6949C174.513 36.6308 174.513 36.5027 174.513 36.3106C174.513 35.9904 174.319 35.8623 173.995 35.8623H172.959V36.8229H173.024ZM173.024 38.616H174.253C174.577 38.616 174.835 38.4239 174.835 38.1037C174.835 37.9756 174.771 37.8475 174.707 37.7195C174.577 37.5913 174.447 37.5274 174.319 37.5274H173.089V38.616H173.024Z" fill="white"/>
<path d="M176.712 38.8722C175.806 38.0396 175.806 36.4387 176.712 35.6702C177.165 35.2219 177.682 35.0298 178.33 35.0298C178.977 35.0298 179.494 35.2219 179.948 35.6702C180.4 36.1184 180.66 36.6308 180.66 37.2712C180.66 37.5273 180.466 37.7194 180.206 37.7194H177.1C177.165 37.9756 177.359 38.2318 177.553 38.3598C177.748 38.5519 178.006 38.616 178.33 38.616C178.718 38.616 178.977 38.4879 179.171 38.2958C179.236 38.2317 179.366 38.1677 179.494 38.1677C179.56 38.1677 179.624 38.1677 179.688 38.1677C179.754 38.1677 179.883 38.2318 179.948 38.3598C180.012 38.4239 180.012 38.5519 180.012 38.616C180.012 38.744 179.948 38.8722 179.818 39.0002C179.624 39.1923 179.43 39.2564 179.236 39.3844C178.977 39.5126 178.654 39.5126 178.33 39.5126C177.748 39.5765 177.165 39.3204 176.712 38.8722ZM179.688 36.887C179.624 36.5667 179.43 36.3746 179.236 36.1825C178.977 35.9904 178.718 35.9263 178.394 35.9263C178.071 35.9263 177.812 35.9904 177.553 36.1825C177.294 36.3746 177.165 36.6308 177.1 36.887H179.688Z" fill="white"/>
<path d="M187.324 40.345C187.26 40.281 187.195 40.1529 187.195 40.0248V39.5126H182.017C181.889 39.5126 181.759 39.4485 181.695 39.3844C181.629 39.3205 181.565 39.1923 181.565 39.0643V35.5421C181.565 35.414 181.629 35.286 181.695 35.1579C181.823 35.0939 181.889 35.0298 182.017 35.0298C182.277 35.0298 182.471 35.2219 182.471 35.5421V38.616H184.024V35.5421C184.024 35.414 184.089 35.286 184.153 35.1579C184.283 35.0939 184.347 35.0298 184.541 35.0298C184.801 35.0298 184.995 35.2219 184.995 35.5421V38.616H186.548V35.5421C186.548 35.414 186.613 35.286 186.677 35.1579C186.807 35.0939 186.871 35.0298 187.001 35.0298C187.26 35.0298 187.454 35.2219 187.454 35.5421V38.616H187.648C187.842 38.616 188.036 38.744 188.101 38.9361V39.0002V39.0643V40.0889C188.101 40.345 187.907 40.5372 187.648 40.5372C187.583 40.4731 187.454 40.4731 187.324 40.345Z" fill="white"/>
<path d="M189.136 38.8722C188.23 38.0396 188.23 36.4387 189.136 35.6702C189.588 35.2219 190.106 35.0298 190.753 35.0298C191.4 35.0298 191.918 35.2219 192.371 35.6702C192.824 36.1184 193.083 36.6308 193.083 37.2712C193.083 37.5273 192.889 37.7194 192.63 37.7194H189.524C189.588 37.9756 189.782 38.2318 189.976 38.3598C190.17 38.5519 190.43 38.616 190.753 38.616C191.141 38.616 191.4 38.4879 191.594 38.2958C191.659 38.2317 191.788 38.1677 191.918 38.1677C191.982 38.1677 192.047 38.1677 192.112 38.1677C192.177 38.1677 192.306 38.2318 192.371 38.3598C192.436 38.4239 192.436 38.5519 192.436 38.616C192.436 38.744 192.371 38.8722 192.241 39.0002C192.047 39.1923 191.853 39.2564 191.659 39.3844C191.4 39.5126 191.076 39.5126 190.753 39.5126C190.17 39.5765 189.588 39.3204 189.136 38.8722ZM192.112 36.887C192.047 36.5667 191.853 36.3746 191.659 36.1825C191.4 35.9904 191.141 35.9263 190.818 35.9263C190.494 35.9263 190.236 35.9904 189.976 36.1825C189.718 36.3746 189.588 36.6308 189.524 36.887H192.112Z" fill="white"/>
<path d="M194.117 39.3842C194.053 39.2561 193.989 39.1921 193.989 39.064V35.5419C193.989 35.2857 194.183 35.0295 194.507 35.0295C194.765 35.0295 194.959 35.2216 194.959 35.5419V37.7832L197.159 35.1576C197.224 35.0936 197.289 35.0295 197.353 35.0295C197.418 34.9655 197.483 34.9655 197.548 34.9655C197.807 34.9655 198.065 35.1576 198.065 35.4778V39C198.065 39.128 198.001 39.2561 197.936 39.3202C197.871 39.3842 197.742 39.4483 197.613 39.4483C197.353 39.4483 197.159 39.2561 197.159 38.9359V36.6305L194.959 39.2561C194.895 39.3842 194.701 39.4483 194.571 39.4483C194.313 39.5123 194.183 39.4483 194.117 39.3842ZM195.347 33.0443C195.541 33.0443 195.671 33.1723 195.671 33.3645C195.671 33.4926 195.735 33.5566 195.801 33.6847C195.865 33.7487 195.995 33.8128 196.124 33.8128C196.253 33.8128 196.318 33.7487 196.447 33.6847C196.513 33.6206 196.577 33.4926 196.577 33.3645C196.577 32.9163 197.289 32.9163 197.224 33.3645C197.224 33.6206 197.095 33.8768 196.901 34.133C196.707 34.3251 196.447 34.4532 196.124 34.4532C195.801 34.4532 195.541 34.3251 195.347 34.133C195.153 33.9408 195.024 33.6847 195.024 33.3645C195.089 33.1723 195.218 33.0443 195.347 33.0443Z" fill="white"/>
<path d="M77.9065 18.5076L82.0481 14.7293C82.3717 14.4731 82.5012 14.0889 82.5012 13.7047C82.5012 13.3205 82.3717 13.0002 82.1128 12.8081C81.854 12.4879 81.5305 12.3599 81.1421 12.3599C80.6892 12.3599 80.3656 12.4879 80.1068 12.7441L74.8649 17.6111V14.0889C74.8649 13.3205 74.2826 12.68 73.506 12.68C73.1177 12.68 72.7941 12.8081 72.4706 13.0643C72.2117 13.3205 72.0176 13.7047 72.0176 14.0889V24.4633C72.0176 24.8475 72.147 25.1678 72.4706 25.4239C72.7295 25.68 73.1177 25.8722 73.506 25.8722C73.8942 25.8722 74.2178 25.7441 74.4767 25.4239C74.7355 25.1678 74.9297 24.8475 74.9297 24.4633V21.3894L75.965 20.4288L80.6892 25.3599C80.948 25.68 81.3363 25.8081 81.7245 25.8081C82.1128 25.8081 82.4364 25.68 82.6952 25.4239C82.9541 25.1678 83.1482 24.8475 83.1482 24.4633C83.1482 24.0791 83.0188 23.7589 82.6952 23.4387L77.9065 18.5076Z" fill="white"/>
<path d="M91.1715 13.5123C90.9126 12.9359 90.4597 12.6157 89.8125 12.6157C89.2302 12.6157 88.7124 12.9359 88.5183 13.5123L83.8589 23.9506C83.7942 24.1428 83.7295 24.3349 83.7295 24.5271C83.7295 24.9113 83.8589 25.2315 84.1178 25.4876C84.3766 25.8078 84.7649 25.9359 85.1532 25.9359C85.3473 25.9359 85.5415 25.9359 85.6709 25.8719C86.0591 25.7438 86.2533 25.4236 86.3827 25.1034L89.8125 16.7783L93.1776 25.1034C93.2423 25.2955 93.3718 25.4236 93.5012 25.5516C93.8248 25.8078 94.1483 25.9999 94.4719 25.9999C94.6013 25.9999 94.7955 25.9999 94.9895 25.8719C95.3779 25.7438 95.6367 25.4876 95.7662 25.1034C95.8308 24.9113 95.8956 24.7192 95.8956 24.591C95.8956 24.3989 95.8308 24.2068 95.7662 24.0147L91.1715 13.5123Z" fill="white"/>
<path d="M124.817 23.9511C124.623 23.3748 124.171 23.0546 123.459 23.0546H123.006V13.897C122.877 13.1925 122.359 12.6802 121.647 12.6802H115.305C115.305 12.6802 115.177 12.6802 115.047 12.6802C114.917 12.6802 114.789 12.7442 114.659 12.8083C114.594 12.8083 114.465 12.8724 114.399 13.0004C114.077 13.2566 113.883 13.6408 113.883 14.0891C113.883 14.0891 113.753 20.7492 112.717 22.4142C112.394 22.8625 111.618 23.0546 111.553 23.1186L111.359 23.1827C111.229 23.2468 111.1 23.3748 110.97 23.5028C110.712 23.759 110.582 24.0793 110.582 24.3994V27.3452C110.582 27.7295 110.712 28.0497 111.035 28.3059C111.359 28.5619 111.682 28.7542 112.07 28.7542C112.847 28.7542 113.494 28.1777 113.494 27.4093V25.8724H122.1V27.4093C122.1 28.1777 122.747 28.7542 123.523 28.7542C124.299 28.7542 124.947 28.1777 124.947 27.4093V24.3354C124.947 24.3354 124.947 24.2714 124.947 24.1432L124.817 23.9511ZM120.224 23.0546H115.305C116.082 21.3896 116.471 15.498 116.471 15.498H120.224V23.0546Z" fill="white"/>
<path d="M139.7 12.6802H131.677C129.93 12.6802 128.182 13.3207 126.889 14.6014C125.595 15.8822 124.883 17.4832 124.883 19.3403C124.883 21.1334 125.53 22.7344 126.889 24.0152C127.536 24.6556 128.312 25.1679 129.088 25.4881C129.93 25.8083 130.771 26.0004 131.612 26.0004H139.636C141.383 26.0004 143.13 25.36 144.424 24.0793C145.718 22.7344 146.365 21.1975 146.365 19.4044C146.365 17.5472 145.718 16.0102 144.424 14.6654C143.195 13.3207 141.447 12.6802 139.7 12.6802ZM143.065 22.6704C142.159 23.5669 140.995 24.0793 139.7 24.0793H139.636C138.277 24.0793 137.112 23.5669 136.206 22.6704C135.236 21.7098 134.783 20.6211 134.783 19.3403C134.783 17.9955 135.301 16.8428 136.206 15.9463C137.112 14.9856 138.277 14.6014 139.636 14.6014H139.7C141.059 14.6014 142.159 15.0497 143.065 15.9463C144.035 16.9068 144.489 17.9955 144.489 19.3403C144.489 20.6851 144.035 21.7738 143.065 22.6704Z" fill="white"/>
<path d="M156.589 18.828C157.495 18.1876 157.883 17.3551 157.883 16.3305C157.883 15.2418 157.495 14.3453 156.719 13.6408C155.942 13.0004 155.036 12.6802 154 12.6802H149.406C149.018 12.6802 148.694 12.8083 148.436 13.0645C148.176 13.3207 147.982 13.7049 147.982 14.0891V24.5275C147.982 25.2959 148.63 25.8724 149.406 25.8724H154.26C156.654 25.8724 158.466 24.3354 158.466 21.9659C158.531 20.6851 157.819 19.4684 156.589 18.828ZM150.83 15.2418H153.936C154.842 15.2418 155.36 15.7541 155.36 16.6506C155.36 17.0989 155.23 17.4832 154.907 17.6753C154.648 17.9315 154.26 18.0595 153.936 18.0595H150.83V15.2418ZM154.324 23.1186H150.766V20.1088H154.324C154.777 20.1088 155.23 20.3009 155.489 20.5571C155.748 20.8772 155.942 21.1975 155.942 21.6457C155.942 22.6063 155.295 23.1186 154.324 23.1186Z" fill="white"/>
<path d="M165.907 18.5076L170.048 14.7293C170.371 14.4731 170.501 14.0889 170.501 13.7047C170.501 13.3205 170.371 13.0002 170.113 12.8081C169.853 12.4879 169.531 12.3599 169.141 12.3599C168.689 12.3599 168.365 12.4879 168.107 12.7441L162.865 17.6111V14.0889C162.865 13.3205 162.282 12.68 161.506 12.68C161.118 12.68 160.794 12.8081 160.47 13.0643C160.212 13.3205 160.018 13.7047 160.018 14.0889V24.4633C160.018 24.8475 160.147 25.1678 160.47 25.4239C160.729 25.68 161.118 25.8722 161.506 25.8722C161.894 25.8722 162.218 25.7441 162.476 25.4239C162.735 25.1678 162.929 24.8475 162.929 24.4633V21.3894L163.965 20.4288L168.689 25.3599C168.947 25.68 169.336 25.8081 169.725 25.8081C170.113 25.8081 170.436 25.68 170.695 25.4239C170.954 25.1678 171.148 24.8475 171.148 24.4633C171.148 24.0791 171.019 23.7589 170.695 23.4387L165.907 18.5076Z" fill="white"/>
<path d="M182.731 12.6802C182.472 12.6802 182.278 12.7442 182.084 12.8724C181.89 12.9363 181.696 13.0645 181.566 13.2566L175.225 20.8133V14.1531C175.225 13.3207 174.641 12.6802 173.865 12.6802C173.024 12.6802 172.441 13.3207 172.441 14.1531V24.4635C172.441 24.8477 172.571 25.1679 172.895 25.4881C173.153 25.7442 173.477 25.9363 173.93 25.9363C174.383 25.9363 174.836 25.7442 175.095 25.36L181.566 17.6753V24.4635C181.566 25.36 182.019 25.8724 182.86 25.8724C183.248 25.8724 183.572 25.7442 183.831 25.4241C184.09 25.1039 184.284 24.7837 184.284 24.3994V14.0891C184.22 13.3207 183.572 12.6802 182.731 12.6802Z" fill="white"/>
<path d="M196.513 12.6802C195.736 12.6802 195.153 13.3207 195.153 14.1531V17.8033H189.07V14.1531C189.07 13.3207 188.488 12.6802 187.712 12.6802C187.324 12.6802 187 12.8083 186.676 13.1285C186.418 13.3846 186.223 13.7689 186.223 14.1531V24.4635C186.223 24.8477 186.352 25.1679 186.676 25.4241C186.935 25.6802 187.324 25.8724 187.646 25.8724C188.424 25.8724 189.006 25.2319 189.006 24.4635V20.6211H195.089V24.4635C195.089 25.2319 195.671 25.8724 196.447 25.8724C196.836 25.8724 197.159 25.7442 197.483 25.4241C197.807 25.1679 197.937 24.8477 197.937 24.4635V14.1531C198.001 13.3207 197.289 12.6802 196.513 12.6802Z" fill="white"/>
<path d="M108.059 12.4878C107.282 12.4878 106.636 13.1282 106.636 13.8967V13.9608C105.535 13.1282 104.177 12.744 102.753 12.744C100.941 12.744 99.2595 13.4484 97.9649 14.7292C96.606 16.01 95.959 17.611 95.959 19.4682C95.959 21.2612 96.606 22.8622 97.9649 24.143C99.2595 25.4238 100.941 26.1282 102.753 26.1282C104.177 26.1282 105.471 25.6799 106.636 24.7194C106.636 24.7833 106.636 24.8474 106.7 24.9115C106.7 24.9756 106.7 24.9756 106.7 25.0395C106.7 25.1036 106.7 25.1036 106.765 25.1677C106.765 25.2316 106.83 25.2316 106.83 25.2957C106.83 25.3598 106.894 25.3598 106.894 25.4238C107.088 25.744 107.476 26.0001 107.93 26.0001C107.994 26.0001 107.994 26.0001 108.059 26.0001C108.124 26.0001 108.254 26.0001 108.318 26.0001C108.382 26.0001 108.382 26.0001 108.448 25.9361C108.512 25.9361 108.512 25.9361 108.576 25.8721H108.642C108.642 25.8721 108.642 25.8721 108.706 25.8721C108.706 25.8721 108.77 25.8721 108.77 25.808C108.77 25.808 108.77 25.808 108.836 25.808C109.159 25.5519 109.354 25.2316 109.418 24.8474V24.7833V24.7194V13.8967C109.418 13.1282 108.836 12.4878 108.059 12.4878ZM105.471 22.0297C104.695 22.7982 103.789 23.1824 102.689 23.1824C101.588 23.1824 100.682 22.7982 99.9059 22.0297C99.1298 21.2612 98.806 20.3647 98.806 19.34C98.806 18.2514 99.1941 17.3548 99.9713 16.5864C100.682 15.8179 101.588 15.4977 102.689 15.4977C103.789 15.4977 104.695 15.8819 105.471 16.5864C106.247 17.3548 106.571 18.2514 106.571 19.34C106.636 20.4287 106.247 21.3252 105.471 22.0297Z" fill="white"/>
<path d="M52.9291 26.128C52.9291 27.0887 53.7055 27.8571 54.6761 27.8571H57.7173C58.1702 27.8571 58.5584 28.2414 58.5584 28.6897V40.9211C58.5584 42.2019 57.6526 43.3546 56.3584 43.6108L35.5879 48.0295C33.8408 48.4138 32.2231 47.0689 32.2231 45.3399V6.14776C32.2231 4.4187 33.8408 3.07387 35.5879 3.4581L56.3584 7.87683C57.6526 8.13298 58.5584 9.2857 58.5584 10.5665V23.5665C58.5584 24.0148 58.1702 24.399 57.7173 24.399H54.6761C53.7055 24.399 52.9291 25.1675 52.9291 26.128Z" fill="white"/>
<path d="M25.6882 51.9359L2.2 46.7488C0.905883 46.4926 0 45.3399 0 44.0591V7.94085C0 6.66005 0.905883 5.50735 2.2 5.25119L25.6882 0.0639943C27.4353 -0.320243 29.0529 0.960547 29.0529 2.75365V49.2463C29.0529 51.0395 27.4353 52.3202 25.6882 51.9359Z" fill="#E7EBF7"/>
</g>
<defs>
<clipPath id="clip0">
<rect width="198" height="52" fill="white"/>
</clipPath>
</defs>
</svg>
