<svg width="457" height="182" viewBox="0 0 457 182" fill="none" xmlns="http://www.w3.org/2000/svg">
<mask id="mask0" mask-type="alpha" maskUnits="userSpaceOnUse" x="0" y="0" width="457" height="182">
<path d="M456.5 0H0.5V182H456.5V0Z" fill="white"/>
<path d="M112.888 155.02V177.076H17.1261V155.02H52.1987V54.5194C52.1987 50.5454 52.3183 46.4523 52.5578 42.2399L27.6598 62.9838C26.2234 64.0965 24.787 64.8118 23.3506 65.1298C21.994 65.3682 20.6772 65.3682 19.4004 65.1298C18.2034 64.8914 17.1261 64.4939 16.1685 63.9376C15.2109 63.3018 14.4927 62.6261 14.0138 61.9109L4.67712 49.1545L57.4656 4.44775H81.7648V155.02H112.888Z" fill="black"/>
<path d="M197.296 155.974C202.163 155.974 206.433 155.298 210.104 153.947C213.774 152.517 216.847 150.57 219.321 148.106C221.874 145.642 223.79 142.701 225.066 139.284C226.343 135.866 226.982 132.17 226.982 128.196C226.982 118.739 224.348 111.585 219.081 106.737C213.815 101.889 206.553 99.4646 197.296 99.4646C188.039 99.4646 180.777 101.889 175.51 106.737C170.243 111.585 167.61 118.739 167.61 128.196C167.61 132.17 168.248 135.866 169.525 139.284C170.802 142.701 172.677 145.642 175.151 148.106C177.704 150.57 180.817 152.517 184.487 153.947C188.158 155.298 192.428 155.974 197.296 155.974ZM197.296 24.9534C192.907 24.9534 189.116 25.6289 185.924 26.9801C182.732 28.3312 180.059 30.1592 177.904 32.4641C175.829 34.6895 174.273 37.2725 173.236 40.2133C172.278 43.154 171.799 46.2537 171.799 49.5123C171.799 52.9299 172.198 56.268 172.996 59.5266C173.874 62.7058 175.31 65.567 177.305 68.1103C179.301 70.5738 181.934 72.5612 185.206 74.0714C188.478 75.5816 192.507 76.3367 197.296 76.3367C202.084 76.3367 206.114 75.5816 209.386 74.0714C212.658 72.5612 215.291 70.5738 217.286 68.1103C219.281 65.567 220.678 62.7058 221.476 59.5266C222.353 56.268 222.792 52.9299 222.792 49.5123C222.792 46.2537 222.273 43.154 221.236 40.2133C220.199 37.2725 218.643 34.6895 216.567 32.4641C214.493 30.1592 211.859 28.3312 208.667 26.9801C205.475 25.6289 201.684 24.9534 197.296 24.9534ZM226.503 87.1851C237.037 90.6028 244.817 95.8482 249.845 102.922C254.872 109.916 257.386 118.5 257.386 128.673C257.386 136.303 255.909 143.218 252.957 149.417C250.084 155.616 246.015 160.901 240.747 165.273C235.481 169.644 229.136 173.022 221.715 175.407C214.373 177.791 206.233 178.983 197.296 178.983C188.358 178.983 180.179 177.791 172.757 175.407C165.415 173.022 159.111 169.644 153.844 165.273C148.577 160.901 144.467 155.616 141.515 149.417C138.642 143.218 137.205 136.303 137.205 128.673C137.205 118.5 139.719 109.916 144.746 102.922C149.774 95.8482 157.555 90.6028 168.089 87.1851C159.709 83.6882 153.405 78.7207 149.175 72.2827C145.026 65.8451 142.951 58.096 142.951 49.0354C142.951 42.5182 144.268 36.438 146.901 30.7951C149.615 25.152 153.365 20.2641 158.153 16.1312C162.941 11.9188 168.647 8.66019 175.271 6.35534C181.974 3.97098 189.315 2.77881 197.296 2.77881C205.276 2.77881 212.578 3.97098 219.201 6.35534C225.905 8.66019 231.65 11.9188 236.438 16.1312C241.226 20.2641 244.937 25.152 247.571 30.7951C250.284 36.438 251.64 42.5182 251.64 49.0354C251.64 58.096 249.525 65.8451 245.296 72.2827C241.146 78.7207 234.882 83.6882 226.503 87.1851Z" fill="black"/>
<path d="M355.919 46.4125C355.919 52.9298 354.802 58.8113 352.567 64.0568C350.413 69.3025 347.5 73.7928 343.829 77.5286C340.158 81.1846 335.889 84.0063 331.021 85.993C326.153 87.9798 321.086 88.9731 315.819 88.9731C310.073 88.9731 304.767 87.9798 299.898 85.993C295.031 84.0063 290.801 81.1846 287.211 77.5286C283.699 73.7928 280.946 69.3025 278.951 64.0568C276.956 58.8113 275.958 52.9298 275.958 46.4125C275.958 39.7363 276.956 33.696 278.951 28.2914C280.946 22.8868 283.699 18.3168 287.211 14.5813C290.801 10.8459 295.031 7.98457 299.898 5.99762C304.767 3.93117 310.073 2.89795 315.819 2.89795C321.564 2.89795 326.871 3.93117 331.739 5.99762C336.687 7.98457 340.957 10.8459 344.547 14.5813C348.138 18.3168 350.931 22.8868 352.927 28.2914C354.921 33.696 355.919 39.7363 355.919 46.4125ZM333.176 46.4125C333.176 41.8028 332.697 37.9481 331.739 34.8484C330.861 31.7487 329.625 29.2452 328.028 27.3376C326.512 25.4302 324.677 24.079 322.522 23.2842C320.448 22.4099 318.213 21.9729 315.819 21.9729C313.425 21.9729 311.191 22.4099 309.116 23.2842C307.041 24.079 305.245 25.4302 303.729 27.3376C302.293 29.2452 301.136 31.7487 300.258 34.8484C299.38 37.9481 298.941 41.8028 298.941 46.4125C298.941 50.8634 299.38 54.5989 300.258 57.619C301.136 60.5598 302.293 62.9441 303.729 64.7721C305.245 66.6002 307.041 67.9115 309.116 68.7063C311.191 69.5012 313.425 69.8985 315.819 69.8985C318.213 69.8985 320.448 69.5012 322.522 68.7063C324.677 67.9115 326.512 66.6002 328.028 64.7721C329.625 62.9441 330.861 60.5598 331.739 57.619C332.697 54.5989 333.176 50.8634 333.176 46.4125ZM413.495 9.33574C414.533 8.14357 415.73 7.07061 417.086 6.11685C418.523 5.16309 420.518 4.68621 423.071 4.68621H444.618L316.058 172.665C315.021 173.936 313.784 175.009 312.348 175.884C310.911 176.678 309.156 177.076 307.081 177.076H285.056L413.495 9.33574ZM453.715 136.541C453.715 143.058 452.598 148.94 450.364 154.185C448.209 159.431 445.296 163.922 441.625 167.658C437.954 171.314 433.685 174.175 428.818 176.241C423.949 178.228 418.882 179.221 413.615 179.221C407.869 179.221 402.562 178.228 397.695 176.241C392.827 174.175 388.598 171.314 385.007 167.658C381.495 163.922 378.742 159.431 376.747 154.185C374.752 148.94 373.754 143.058 373.754 136.541C373.754 129.865 374.752 123.825 376.747 118.42C378.742 113.016 381.495 108.446 385.007 104.71C388.598 100.975 392.827 98.1134 397.695 96.1267C402.562 94.0601 407.869 93.0271 413.615 93.0271C419.361 93.0271 424.668 94.0601 429.535 96.1267C434.483 98.1134 438.712 100.975 442.224 104.71C445.815 108.446 448.608 113.016 450.603 118.42C452.678 123.825 453.715 129.865 453.715 136.541ZM430.852 136.541C430.852 131.931 430.413 128.077 429.535 124.977C428.657 121.878 427.421 119.374 425.825 117.467C424.308 115.559 422.473 114.208 420.319 113.413C418.244 112.539 416.009 112.102 413.615 112.102C411.221 112.102 408.987 112.539 406.912 113.413C404.837 114.208 403.041 115.559 401.525 117.467C400.009 119.374 398.812 121.878 397.934 124.977C397.136 128.077 396.737 131.931 396.737 136.541C396.737 140.992 397.136 144.728 397.934 147.748C398.812 150.768 400.009 153.192 401.525 155.02C403.041 156.848 404.837 158.16 406.912 158.954C408.987 159.749 411.221 160.147 413.615 160.147C416.009 160.147 418.244 159.749 420.319 158.954C422.473 158.16 424.308 156.848 425.825 155.02C427.421 153.192 428.657 150.768 429.535 147.748C430.413 144.728 430.852 140.992 430.852 136.541Z" fill="black"/>
</mask>
<g mask="url(#mask0)">
<path d="M112.888 155.02V177.076H17.1261V155.02H52.1987V54.5194C52.1987 50.5454 52.3183 46.4523 52.5578 42.2399L27.6598 62.9838C26.2234 64.0965 24.787 64.8118 23.3506 65.1298C21.994 65.3682 20.6772 65.3682 19.4004 65.1298C18.2034 64.8914 17.1261 64.4939 16.1685 63.9376C15.2109 63.3018 14.4927 62.6261 14.0138 61.9109L4.67712 49.1545L57.4656 4.44775H81.7648V155.02H112.888Z" fill="white" stroke="white" stroke-width="3"/>
<path d="M197.296 155.974C202.163 155.974 206.433 155.298 210.104 153.947C213.774 152.517 216.847 150.57 219.321 148.106C221.874 145.642 223.79 142.701 225.066 139.284C226.343 135.866 226.982 132.17 226.982 128.196C226.982 118.739 224.348 111.585 219.081 106.737C213.815 101.889 206.553 99.4646 197.296 99.4646C188.039 99.4646 180.777 101.889 175.51 106.737C170.243 111.585 167.61 118.739 167.61 128.196C167.61 132.17 168.248 135.866 169.525 139.284C170.802 142.701 172.677 145.642 175.151 148.106C177.704 150.57 180.817 152.517 184.487 153.947C188.158 155.298 192.428 155.974 197.296 155.974ZM197.296 24.9534C192.907 24.9534 189.116 25.6289 185.924 26.9801C182.732 28.3312 180.059 30.1592 177.904 32.4641C175.829 34.6895 174.273 37.2725 173.236 40.2133C172.278 43.154 171.799 46.2537 171.799 49.5123C171.799 52.9299 172.198 56.268 172.996 59.5266C173.874 62.7058 175.31 65.567 177.305 68.1103C179.301 70.5738 181.934 72.5612 185.206 74.0714C188.478 75.5816 192.507 76.3367 197.296 76.3367C202.084 76.3367 206.114 75.5816 209.386 74.0714C212.658 72.5612 215.291 70.5738 217.286 68.1103C219.281 65.567 220.678 62.7058 221.476 59.5266C222.353 56.268 222.792 52.9299 222.792 49.5123C222.792 46.2537 222.273 43.154 221.236 40.2133C220.199 37.2725 218.643 34.6895 216.567 32.4641C214.493 30.1592 211.859 28.3312 208.667 26.9801C205.475 25.6289 201.684 24.9534 197.296 24.9534ZM226.503 87.1851C237.037 90.6029 244.817 95.8482 249.845 102.922C254.872 109.916 257.386 118.5 257.386 128.673C257.386 136.303 255.909 143.218 252.957 149.417C250.084 155.616 246.015 160.901 240.747 165.273C235.481 169.644 229.136 173.022 221.715 175.407C214.373 177.791 206.233 178.983 197.296 178.983C188.358 178.983 180.179 177.791 172.757 175.407C165.415 173.022 159.111 169.644 153.844 165.273C148.577 160.901 144.467 155.616 141.515 149.417C138.642 143.218 137.205 136.303 137.205 128.673C137.205 118.5 139.719 109.916 144.746 102.922C149.774 95.8482 157.555 90.6029 168.089 87.1851C159.709 83.6882 153.405 78.7207 149.175 72.2827C145.026 65.8451 142.951 58.096 142.951 49.0354C142.951 42.5182 144.268 36.438 146.901 30.7951C149.615 25.152 153.365 20.2641 158.153 16.1312C162.941 11.9188 168.647 8.66019 175.271 6.35534C181.974 3.97098 189.315 2.77881 197.296 2.77881C205.276 2.77881 212.578 3.97098 219.201 6.35534C225.905 8.66019 231.65 11.9188 236.438 16.1312C241.226 20.2641 244.937 25.152 247.571 30.7951C250.284 36.438 251.64 42.5182 251.64 49.0354C251.64 58.096 249.525 65.8451 245.296 72.2827C241.146 78.7207 234.882 83.6882 226.503 87.1851Z" fill="white" stroke="white" stroke-width="3"/>
<path d="M320.933 104.432C320.933 108.091 320.298 111.394 319.029 114.339C317.804 117.284 316.149 119.805 314.064 121.903C311.978 123.955 309.552 125.54 306.786 126.655C304.02 127.771 301.141 128.328 298.148 128.328C294.884 128.328 291.869 127.771 289.103 126.655C286.337 125.54 283.934 123.955 281.894 121.903C279.898 119.805 278.334 117.284 277.201 114.339C276.067 111.394 275.5 108.091 275.5 104.432C275.5 100.684 276.067 97.2921 277.201 94.2576C278.334 91.2231 279.898 88.6572 281.894 86.5598C283.934 84.4625 286.337 82.856 289.103 81.7404C291.869 80.5801 294.884 80 298.148 80C301.413 80 304.428 80.5801 307.194 81.7404C310.006 82.856 312.432 84.4625 314.472 86.5598C316.512 88.6572 318.099 91.2231 319.233 94.2576C320.366 97.2921 320.933 100.684 320.933 104.432ZM308.011 104.432C308.011 101.844 307.739 99.6795 307.194 97.9391C306.695 96.1988 305.993 94.7931 305.086 93.7221C304.224 92.6511 303.182 91.8925 301.957 91.4462C300.779 90.9554 299.509 90.71 298.148 90.71C296.789 90.71 295.519 90.9554 294.34 91.4462C293.161 91.8925 292.141 92.6511 291.279 93.7221C290.463 94.7931 289.806 96.1988 289.307 97.9391C288.808 99.6795 288.559 101.844 288.559 104.432C288.559 106.931 288.808 109.028 289.307 110.724C289.806 112.375 290.463 113.714 291.279 114.74C292.141 115.767 293.161 116.503 294.34 116.949C295.519 117.396 296.789 117.619 298.148 117.619C299.509 117.619 300.779 117.396 301.957 116.949C303.182 116.503 304.224 115.767 305.086 114.74C305.993 113.714 306.695 112.375 307.194 110.724C307.739 109.028 308.011 106.931 308.011 104.432ZM353.647 83.6146C354.237 82.9452 354.917 82.3428 355.688 81.8073C356.504 81.2718 357.637 81.0041 359.088 81.0041H371.331L298.285 175.319C297.695 176.032 296.992 176.635 296.176 177.126C295.36 177.572 294.363 177.795 293.184 177.795H280.669L353.647 83.6146ZM376.5 155.036C376.5 158.696 375.865 161.998 374.596 164.943C373.371 167.889 371.716 170.41 369.631 172.507C367.545 174.56 365.119 176.166 362.353 177.326C359.587 178.442 356.708 179 353.715 179C350.451 179 347.435 178.442 344.67 177.326C341.904 176.166 339.501 174.56 337.461 172.507C335.465 170.41 333.901 167.889 332.768 164.943C331.634 161.998 331.067 158.696 331.067 155.036C331.067 151.288 331.634 147.896 332.768 144.862C333.901 141.828 335.465 139.262 337.461 137.164C339.501 135.067 341.904 133.46 344.67 132.345C347.435 131.185 350.451 130.605 353.715 130.605C356.98 130.605 359.995 131.185 362.761 132.345C365.573 133.46 367.976 135.067 369.971 137.164C372.011 139.262 373.598 141.828 374.732 144.862C375.911 147.896 376.5 151.288 376.5 155.036ZM363.509 155.036C363.509 152.448 363.26 150.284 362.761 148.544C362.262 146.803 361.56 145.398 360.653 144.327C359.791 143.256 358.749 142.497 357.524 142.051C356.346 141.56 355.076 141.314 353.715 141.314C352.355 141.314 351.086 141.56 349.907 142.051C348.728 142.497 347.708 143.256 346.846 144.327C345.985 145.398 345.305 146.803 344.806 148.544C344.352 150.284 344.126 152.448 344.126 155.036C344.126 157.536 344.352 159.633 344.806 161.329C345.305 163.024 345.985 164.385 346.846 165.412C347.708 166.438 348.728 167.174 349.907 167.621C351.086 168.067 352.355 168.29 353.715 168.29C355.076 168.29 356.346 168.067 357.524 167.621C358.749 167.174 359.791 166.438 360.653 165.412C361.56 164.385 362.262 163.024 362.761 161.329C363.26 159.633 363.509 157.536 363.509 155.036Z" fill="white" stroke="white" stroke-width="3"/>
</g>
</svg>
