<svg width="190" height="92" viewBox="0 0 190 92" fill="none" xmlns="http://www.w3.org/2000/svg">
<path d="M56.8399 78.0252V89.0391H9.19394V78.0252H26.6442V27.8379C26.6442 25.8534 26.7038 23.8094 26.8229 21.7058L14.435 32.0648C13.7203 32.6204 13.0056 32.9776 12.2909 33.1364C11.616 33.2555 10.9608 33.2555 10.3255 33.1364C9.72997 33.0174 9.19394 32.8189 8.71749 32.5411C8.24104 32.2236 7.88371 31.8862 7.64546 31.529L3 25.1588L29.2648 2.8335H41.3548V78.0252H56.8399Z" fill="white" stroke="white" stroke-width="3"/>
<path d="M98.8373 78.5016C101.259 78.5016 103.384 78.1641 105.21 77.4893C107.036 76.7751 108.565 75.8028 109.796 74.5723C111.066 73.3419 112.019 71.8735 112.655 70.1668C113.29 68.4601 113.607 66.6146 113.607 64.63C113.607 59.9071 112.297 56.3348 109.677 53.9138C107.056 51.4929 103.443 50.2822 98.8373 50.2822C94.2314 50.2822 90.6182 51.4929 87.9979 53.9138C85.3775 56.3348 84.0671 59.9071 84.0671 64.63C84.0671 66.6146 84.3847 68.4601 85.02 70.1668C85.6553 71.8735 86.5884 73.3419 87.8191 74.5723C89.0897 75.8028 90.6383 76.7751 92.4645 77.4893C94.291 78.1641 96.4153 78.5016 98.8373 78.5016ZM98.8373 13.0734C96.6536 13.0734 94.7676 13.4107 93.1794 14.0855C91.5912 14.7602 90.2611 15.673 89.1891 16.824C88.1565 17.9353 87.3823 19.2252 86.8662 20.6938C86.3899 22.1623 86.1516 23.7102 86.1516 25.3374C86.1516 27.0441 86.3501 28.711 86.7471 30.3383C87.1838 31.9259 87.8984 33.3547 88.8912 34.6247C89.8839 35.855 91.1939 36.8474 92.8219 37.6016C94.45 38.3557 96.4548 38.7328 98.8373 38.7328C101.22 38.7328 103.225 38.3557 104.853 37.6016C106.481 36.8474 107.791 35.855 108.783 34.6247C109.776 33.3547 110.471 31.9259 110.868 30.3383C111.305 28.711 111.523 27.0441 111.523 25.3374C111.523 23.7102 111.265 22.1623 110.749 20.6938C110.233 19.2252 109.458 17.9353 108.426 16.824C107.394 15.673 106.083 14.7602 104.495 14.0855C102.907 13.4107 101.021 13.0734 98.8373 13.0734ZM113.369 44.1502C118.61 45.8569 122.481 48.4763 124.983 52.0087C127.484 55.5016 128.735 59.7878 128.735 64.868C128.735 68.6783 128 72.1312 126.531 75.2273C125.102 78.3229 123.077 80.9621 120.456 83.1451C117.836 85.3281 114.679 87.015 110.987 88.2055C107.334 89.3964 103.284 89.9917 98.8373 89.9917C94.3904 89.9917 90.3207 89.3964 86.6279 88.2055C82.9753 87.015 79.8384 85.3281 77.218 83.1451C74.5976 80.9621 72.5526 78.3229 71.0836 75.2273C69.6544 72.1312 68.9395 68.6783 68.9395 64.868C68.9395 59.7878 70.1902 55.5016 72.6915 52.0087C75.1931 48.4763 79.0643 45.8569 84.3054 44.1502C80.1363 42.404 76.9995 39.9233 74.8952 36.7083C72.8307 33.4936 71.7982 29.6239 71.7982 25.0993C71.7982 21.8447 72.4535 18.8085 73.7635 15.9906C75.1137 13.1726 76.9797 10.7317 79.3621 8.66783C81.7442 6.56427 84.5832 4.937 87.8787 3.78602C91.214 2.59534 94.8667 2 98.8373 2C102.808 2 106.441 2.59534 109.736 3.78602C113.072 4.937 115.93 6.56427 118.312 8.66783C120.695 10.7317 122.541 13.1726 123.851 15.9906C125.201 18.8085 125.876 21.8447 125.876 25.0993C125.876 29.6239 124.824 33.4936 122.72 36.7083C120.655 39.9233 117.538 42.404 113.369 44.1502Z" fill="white" stroke="white" stroke-width="3"/>
<path d="M160.353 52.7627C160.353 54.59 160.037 56.2391 159.406 57.7099C158.797 59.1806 157.973 60.4397 156.935 61.4871C155.898 62.5122 154.691 63.3033 153.315 63.8604C151.938 64.4174 150.506 64.6959 149.017 64.6959C147.392 64.6959 145.892 64.4174 144.516 63.8604C143.14 63.3033 141.944 62.5122 140.929 61.4871C139.936 60.4397 139.158 59.1806 138.594 57.7099C138.03 56.2391 137.748 54.59 137.748 52.7627C137.748 50.8908 138.03 49.1972 138.594 47.6819C139.158 46.1665 139.936 44.8852 140.929 43.8378C141.944 42.7905 143.14 41.9882 144.516 41.4311C145.892 40.8517 147.392 40.562 149.017 40.562C150.641 40.562 152.141 40.8517 153.517 41.4311C154.916 41.9882 156.123 42.7905 157.138 43.8378C158.154 44.8852 158.943 46.1665 159.507 47.6819C160.071 49.1972 160.353 50.8908 160.353 52.7627ZM153.924 52.7627C153.924 51.4702 153.788 50.3894 153.517 49.5203C153.269 48.6512 152.92 47.9493 152.468 47.4145C152.04 46.8796 151.521 46.5008 150.912 46.278C150.325 46.0328 149.694 45.9103 149.017 45.9103C148.34 45.9103 147.708 46.0328 147.122 46.278C146.535 46.5008 146.028 46.8796 145.599 47.4145C145.193 47.9493 144.866 48.6512 144.618 49.5203C144.369 50.3894 144.245 51.4702 144.245 52.7627C144.245 54.0107 144.369 55.058 144.618 55.9048C144.866 56.7294 145.193 57.3979 145.599 57.9104C146.028 58.423 146.535 58.7907 147.122 59.0135C147.708 59.2364 148.34 59.3478 149.017 59.3478C149.694 59.3478 150.325 59.2364 150.912 59.0135C151.521 58.7907 152.04 58.423 152.468 57.9104C152.92 57.3979 153.269 56.7294 153.517 55.9048C153.788 55.058 153.924 54.0107 153.924 52.7627ZM176.63 42.3671C176.923 42.0328 177.262 41.7319 177.645 41.4645C178.052 41.1971 178.615 41.0634 179.337 41.0634H185.429L149.084 88.1615C148.791 88.518 148.441 88.8189 148.035 89.0641C147.629 89.2869 147.133 89.3983 146.547 89.3983H140.32L176.63 42.3671ZM188 78.0332C188 79.8605 187.684 81.5096 187.053 82.9803C186.444 84.4512 185.62 85.7102 184.583 86.7576C183.545 87.7827 182.338 88.585 180.962 89.1642C179.585 89.7215 178.153 90 176.664 90C175.04 90 173.539 89.7215 172.163 89.1642C170.787 88.585 169.592 87.7827 168.576 86.7576C167.584 85.7102 166.805 84.4512 166.241 82.9803C165.677 81.5096 165.395 79.8605 165.395 78.0332C165.395 76.1614 165.677 74.4677 166.241 72.9524C166.805 71.4371 167.584 70.1557 168.576 69.1082C169.592 68.061 170.787 67.2587 172.163 66.7017C173.539 66.1222 175.04 65.8326 176.664 65.8326C178.288 65.8326 179.789 66.1222 181.165 66.7017C182.563 67.2587 183.759 68.061 184.752 69.1082C185.767 70.1557 186.557 71.4371 187.121 72.9524C187.707 74.4677 188 76.1614 188 78.0332ZM181.537 78.0332C181.537 76.7407 181.413 75.6599 181.165 74.7908C180.917 73.9218 180.567 73.2198 180.116 72.685C179.687 72.1502 179.168 71.7713 178.559 71.5485C177.973 71.3033 177.341 71.1808 176.664 71.1808C175.987 71.1808 175.356 71.3033 174.769 71.5485C174.182 71.7713 173.675 72.1502 173.246 72.685C172.817 73.2198 172.479 73.9218 172.231 74.7908C172.005 75.6599 171.893 76.7407 171.893 78.0332C171.893 79.2812 172.005 80.3285 172.231 81.1754C172.479 82.0222 172.817 82.7018 173.246 83.2144C173.675 83.7268 174.182 84.0946 174.769 84.3174C175.356 84.5402 175.987 84.6518 176.664 84.6518C177.341 84.6518 177.973 84.5402 178.559 84.3174C179.168 84.0946 179.687 83.7268 180.116 83.2144C180.567 82.7018 180.917 82.0222 181.165 81.1754C181.413 80.3285 181.537 79.2812 181.537 78.0332Z" fill="white" stroke="white" stroke-width="3"/>
</svg>
