<svg width="382" height="174" viewBox="0 0 382 174" fill="none" xmlns="http://www.w3.org/2000/svg">
<path d="M324.433 97.432C324.433 101.091 323.798 104.394 322.529 107.339C321.304 110.284 319.649 112.805 317.564 114.903C315.478 116.955 313.052 118.54 310.286 119.655C307.52 120.771 304.641 121.328 301.648 121.328C298.384 121.328 295.369 120.771 292.603 119.655C289.837 118.54 287.434 116.955 285.394 114.903C283.398 112.805 281.834 110.284 280.701 107.339C279.567 104.394 279 101.091 279 97.432C279 93.6836 279.567 90.2921 280.701 87.2576C281.834 84.2231 283.398 81.6572 285.394 79.5598C287.434 77.4625 289.837 75.856 292.603 74.7404C295.369 73.5801 298.384 73 301.648 73C304.913 73 307.928 73.5801 310.694 74.7404C313.506 75.856 315.932 77.4625 317.972 79.5598C320.012 81.6572 321.599 84.2231 322.733 87.2576C323.866 90.2921 324.433 93.6836 324.433 97.432ZM311.511 97.432C311.511 94.8438 311.239 92.6795 310.694 90.9391C310.195 89.1988 309.493 87.7931 308.586 86.7221C307.724 85.6511 306.682 84.8925 305.457 84.4462C304.279 83.9554 303.009 83.71 301.648 83.71C300.289 83.71 299.019 83.9554 297.84 84.4462C296.661 84.8925 295.641 85.6511 294.779 86.7221C293.963 87.7931 293.306 89.1988 292.807 90.9391C292.308 92.6795 292.059 94.8438 292.059 97.432C292.059 99.931 292.308 102.028 292.807 103.724C293.306 105.375 293.963 106.714 294.779 107.74C295.641 108.767 296.661 109.503 297.84 109.949C299.019 110.396 300.289 110.619 301.648 110.619C303.009 110.619 304.279 110.396 305.457 109.949C306.682 109.503 307.724 108.767 308.586 107.74C309.493 106.714 310.195 105.375 310.694 103.724C311.239 102.028 311.511 99.931 311.511 97.432ZM357.147 76.6146C357.737 75.9452 358.417 75.3428 359.188 74.8073C360.004 74.2718 361.137 74.0041 362.588 74.0041H374.831L301.785 168.319C301.195 169.032 300.492 169.635 299.676 170.126C298.86 170.572 297.863 170.795 296.684 170.795H284.169L357.147 76.6146ZM380 148.036C380 151.696 379.365 154.998 378.096 157.943C376.871 160.889 375.216 163.41 373.131 165.507C371.045 167.56 368.619 169.166 365.853 170.326C363.087 171.442 360.208 172 357.215 172C353.951 172 350.935 171.442 348.17 170.326C345.404 169.166 343.001 167.56 340.961 165.507C338.965 163.41 337.401 160.889 336.268 157.943C335.134 154.998 334.567 151.696 334.567 148.036C334.567 144.288 335.134 140.896 336.268 137.862C337.401 134.828 338.965 132.262 340.961 130.164C343.001 128.067 345.404 126.46 348.17 125.345C350.935 124.185 353.951 123.605 357.215 123.605C360.48 123.605 363.495 124.185 366.261 125.345C369.073 126.46 371.476 128.067 373.471 130.164C375.511 132.262 377.098 134.828 378.232 137.862C379.411 140.896 380 144.288 380 148.036ZM367.009 148.036C367.009 145.448 366.76 143.284 366.261 141.544C365.762 139.803 365.06 138.398 364.153 137.327C363.291 136.256 362.249 135.497 361.024 135.051C359.846 134.56 358.576 134.314 357.215 134.314C355.855 134.314 354.586 134.56 353.407 135.051C352.228 135.497 351.208 136.256 350.346 137.327C349.485 138.398 348.805 139.803 348.306 141.544C347.852 143.284 347.626 145.448 347.626 148.036C347.626 150.536 347.852 152.633 348.306 154.329C348.805 156.024 349.485 157.385 350.346 158.412C351.208 159.438 352.228 160.174 353.407 160.621C354.586 161.067 355.855 161.29 357.215 161.29C358.576 161.29 359.846 161.067 361.024 160.621C362.249 160.174 363.291 159.438 364.153 158.412C365.06 157.385 365.762 156.024 366.261 154.329C366.76 152.633 367.009 150.536 367.009 148.036Z" fill="white" stroke="white" stroke-width="3"/>
<path d="M112.604 104.771H130.017V124.87C130.017 126.642 129.398 128.182 128.16 129.491C126.999 130.8 125.297 131.455 123.052 131.455H112.604V170.152H81.2609V131.455H13.2339C10.9896 131.455 8.9387 130.762 7.08131 129.375C5.30131 127.989 4.17913 126.257 3.71478 124.177L0 106.504L78.2427 1.84822H112.604V104.771ZM81.2609 60.8758C81.2609 58.1804 81.3383 55.2926 81.4931 52.2122C81.7253 49.0548 82.0348 45.8205 82.4218 42.5091L37.7283 104.771H81.2609V60.8758Z" fill="white"/>
<path d="M264 85.9422C264 100.651 262.413 113.396 259.24 124.177C256.067 134.959 251.656 143.892 246.007 150.977C240.434 158.061 233.779 163.336 226.04 166.802C218.378 170.267 210.058 172 201.081 172C192.103 172 183.784 170.267 176.122 166.802C168.538 163.336 161.96 158.061 156.387 150.977C150.815 143.892 146.443 134.959 143.27 124.177C140.174 113.396 138.626 100.651 138.626 85.9422C138.626 71.2335 140.174 58.4885 143.27 47.7072C146.443 36.9259 150.815 27.9928 156.387 20.908C161.96 13.8231 168.538 8.58652 176.122 5.19811C183.784 1.7327 192.103 0 201.081 0C210.058 0 218.378 1.7327 226.04 5.19811C233.779 8.58652 240.434 13.8231 246.007 20.908C251.656 27.9928 256.067 36.9259 259.24 47.7072C262.413 58.4885 264 71.2335 264 85.9422ZM226.852 85.9422C226.852 74.3139 226.117 64.8032 224.646 57.4103C223.176 49.9404 221.203 44.0878 218.726 39.8523C216.327 35.6167 213.58 32.7289 210.484 31.1887C207.388 29.5715 204.254 28.7629 201.081 28.7629C197.908 28.7629 194.773 29.5715 191.678 31.1887C188.66 32.7289 185.951 35.6167 183.552 39.8523C181.23 44.0878 179.334 49.9404 177.863 57.4103C176.47 64.8032 175.774 74.3139 175.774 85.9422C175.774 97.6476 176.47 107.197 177.863 114.59C179.334 121.983 181.23 127.835 183.552 132.148C185.951 136.383 188.66 139.31 191.678 140.927C194.773 142.467 197.908 143.237 201.081 143.237C204.254 143.237 207.388 142.467 210.484 140.927C213.58 139.31 216.327 136.383 218.726 132.148C221.203 127.835 223.176 121.983 224.646 114.59C226.117 107.197 226.852 97.6476 226.852 85.9422Z" fill="white"/>
</svg>
