<svg width="192" height="91" viewBox="0 0 192 91" fill="none" xmlns="http://www.w3.org/2000/svg">
<path d="M166.656 57.3651C166.656 58.9175 166.385 60.3185 165.844 61.568C165.322 62.8175 164.617 63.887 163.727 64.7769C162.838 65.6478 161.804 66.3199 160.625 66.7931C159.446 67.2664 158.218 67.503 156.943 67.503C155.551 67.503 154.265 67.2664 153.086 66.7931C151.907 66.3199 150.883 65.6478 150.013 64.7769C149.162 63.887 148.495 62.8175 148.012 61.568C147.529 60.3185 147.287 58.9175 147.287 57.3651C147.287 55.7748 147.529 54.336 148.012 53.0487C148.495 51.7613 149.162 50.6728 150.013 49.783C150.883 48.8932 151.907 48.2116 153.086 47.7383C154.265 47.2461 155.551 47 156.943 47C158.334 47 159.62 47.2461 160.799 47.7383C161.997 48.2116 163.032 48.8932 163.901 49.783C164.771 50.6728 165.448 51.7613 165.931 53.0487C166.414 54.336 166.656 55.7748 166.656 57.3651ZM161.147 57.3651C161.147 56.2671 161.031 55.3489 160.799 54.6105C160.586 53.8722 160.287 53.2759 159.9 52.8215C159.533 52.3671 159.088 52.0453 158.566 51.856C158.064 51.6477 157.522 51.5436 156.943 51.5436C156.363 51.5436 155.821 51.6477 155.319 51.856C154.816 52.0453 154.381 52.3671 154.014 52.8215C153.666 53.2759 153.386 53.8722 153.173 54.6105C152.961 55.3489 152.854 56.2671 152.854 57.3651C152.854 58.4253 152.961 59.3151 153.173 60.0345C153.386 60.735 153.666 61.3029 154.014 61.7383C154.381 62.1738 154.816 62.4861 155.319 62.6754C155.821 62.8648 156.363 62.9594 156.943 62.9594C157.522 62.9594 158.064 62.8648 158.566 62.6754C159.088 62.4861 159.533 62.1738 159.9 61.7383C160.287 61.3029 160.586 60.735 160.799 60.0345C161.031 59.3151 161.147 58.4253 161.147 57.3651ZM180.603 48.5335C180.854 48.2495 181.144 47.9939 181.472 47.7667C181.821 47.5396 182.304 47.426 182.922 47.426H188.142L157.001 87.4382C156.749 87.741 156.45 87.9966 156.102 88.2049C155.754 88.3942 155.329 88.4889 154.826 88.4889H149.491L180.603 48.5335ZM190.345 78.8336C190.345 80.386 190.074 81.787 189.533 83.0364C189.011 84.286 188.306 85.3556 187.417 86.2455C186.527 87.1163 185.493 87.7979 184.314 88.29C183.135 88.7634 181.908 89 180.632 89C179.24 89 177.954 88.7634 176.775 88.29C175.596 87.7979 174.572 87.1163 173.702 86.2455C172.851 85.3556 172.184 84.286 171.701 83.0364C171.218 81.787 170.976 80.386 170.976 78.8336C170.976 77.2435 171.218 75.8046 171.701 74.5172C172.184 73.2299 172.851 72.1413 173.702 71.2514C174.572 70.3617 175.596 69.6802 176.775 69.2069C177.954 68.7147 179.24 68.4686 180.632 68.4686C182.023 68.4686 183.309 68.7147 184.488 69.2069C185.687 69.6802 186.711 70.3617 187.562 71.2514C188.431 72.1413 189.108 73.2299 189.591 74.5172C190.094 75.8046 190.345 77.2435 190.345 78.8336ZM184.807 78.8336C184.807 77.7356 184.701 76.8174 184.488 76.0791C184.275 75.3408 183.976 74.7444 183.589 74.2901C183.222 73.8357 182.777 73.5139 182.255 73.3246C181.753 73.1162 181.212 73.0122 180.632 73.0122C180.052 73.0122 179.511 73.1162 179.008 73.3246C178.505 73.5139 178.07 73.8357 177.703 74.2901C177.336 74.7444 177.046 75.3408 176.833 76.0791C176.64 76.8174 176.543 77.7356 176.543 78.8336C176.543 79.8939 176.64 80.7836 176.833 81.5031C177.046 82.2225 177.336 82.7998 177.703 83.2353C178.07 83.6707 178.505 83.9831 179.008 84.1724C179.511 84.3617 180.052 84.4565 180.632 84.4565C181.212 84.4565 181.753 84.3617 182.255 84.1724C182.777 83.9831 183.222 83.6707 183.589 83.2353C183.976 82.7998 184.275 82.2225 184.488 81.5031C184.701 80.7836 184.807 79.8939 184.807 78.8336Z" fill="white" stroke="white" stroke-width="3"/>
<path d="M58.0083 54.2129H66.9787V64.6132C66.9787 65.5297 66.6597 66.3266 66.0219 67.004C65.4238 67.6814 64.5467 68.0201 63.3906 68.0201H58.0083V88.0437H41.8617V68.0201H6.81747C5.66129 68.0201 4.60478 67.6615 3.64795 66.9443C2.73098 66.227 2.15289 65.3304 1.91368 64.2545L0 55.1095L40.3068 0.956348H58.0083V54.2129ZM41.8617 31.4997C41.8617 30.105 41.9016 28.6107 41.9813 27.0168C42.1009 25.383 42.2604 23.7094 42.4597 21.996L19.4358 54.2129H41.8617V31.4997Z" fill="white"/>
<path d="M136 44.4701C136 52.081 135.183 58.6758 133.548 64.2545C131.914 69.8332 129.641 74.4556 126.731 78.1216C123.86 81.7876 120.431 84.5171 116.445 86.3103C112.498 88.1034 108.212 89 103.587 89C98.9624 89 94.6765 88.1034 90.7296 86.3103C86.8225 84.5171 83.4337 81.7876 80.5632 78.1216C77.6927 74.4556 75.4401 69.8332 73.8055 64.2545C72.2108 58.6758 71.4134 52.081 71.4134 44.4701C71.4134 36.8592 72.2108 30.2644 73.8055 24.6857C75.4401 19.107 77.6927 14.4847 80.5632 10.8187C83.4337 7.15267 86.8225 4.44302 90.7296 2.68972C94.6765 0.896572 98.9624 0 103.587 0C108.212 0 112.498 0.896572 116.445 2.68972C120.431 4.44302 123.86 7.15267 126.731 10.8187C129.641 14.4847 131.914 19.107 133.548 24.6857C135.183 30.2644 136 36.8592 136 44.4701ZM116.863 44.4701C116.863 38.4531 116.484 33.5319 115.727 29.7065C114.969 25.8413 113.953 22.8128 112.677 20.6212C111.441 18.4296 110.026 16.9353 108.431 16.1383C106.836 15.3015 105.222 14.8831 103.587 14.8831C101.953 14.8831 100.338 15.3015 98.7431 16.1383C97.1882 16.9353 95.7929 18.4296 94.5569 20.6212C93.3609 22.8128 92.3841 25.8413 91.6266 29.7065C90.909 33.5319 90.5502 38.4531 90.5502 44.4701C90.5502 50.527 90.909 55.4681 91.6266 59.2935C92.3841 63.1189 93.3609 66.1473 94.5569 68.3788C95.7929 70.5704 97.1882 72.0846 98.7431 72.9214C100.338 73.7184 101.953 74.1169 103.587 74.1169C105.222 74.1169 106.836 73.7184 108.431 72.9214C110.026 72.0846 111.441 70.5704 112.677 68.3788C113.953 66.1473 114.969 63.1189 115.727 59.2935C116.484 55.4681 116.863 50.527 116.863 44.4701Z" fill="white"/>
</svg>
