<svg width="1498" height="639" viewBox="0 0 1498 639" fill="none" xmlns="http://www.w3.org/2000/svg">
<g filter="url(#filter0_d_207_60)">
<path d="M1393.97 442C1344.83 442 1305 481.833 1305 530.985C1305 580.137 1344.86 620 1394 620C1443.14 620 1483 580.137 1483 530.985C1483 481.833 1443.14 442 1393.97 442ZM1393.97 594.998C1358.62 594.998 1329.97 566.341 1329.97 530.985C1329.97 495.628 1358.62 466.972 1393.97 466.972C1429.32 466.972 1457.97 495.628 1457.97 530.985C1457.97 566.341 1429.32 594.998 1393.97 594.998Z" fill="#6DB0FF"/>
</g>
<path d="M29.495 0.5354C13.4987 0.5354 0.535156 13.499 0.535156 29.4953C0.535156 45.4916 13.5086 58.465 29.5049 58.465C45.5012 58.465 58.4747 45.4916 58.4747 29.4953C58.4747 13.499 45.5012 0.5354 29.495 0.5354ZM29.495 50.3281C17.9884 50.3281 8.66215 41.0019 8.66215 29.4953C8.66215 17.9886 17.9884 8.6624 29.495 8.6624C41.0016 8.6624 50.3278 17.9886 50.3278 29.4953C50.3278 41.0019 41.0016 50.3281 29.495 50.3281Z" fill="#F2642B"/>
<defs>
<filter id="filter0_d_207_60" x="1290" y="431" width="208" height="208" filterUnits="userSpaceOnUse" color-interpolation-filters="sRGB">
<feFlood flood-opacity="0" result="BackgroundImageFix"/>
<feColorMatrix in="SourceAlpha" type="matrix" values="0 0 0 0 0 0 0 0 0 0 0 0 0 0 0 0 0 0 127 0" result="hardAlpha"/>
<feOffset dy="4"/>
<feGaussianBlur stdDeviation="7.5"/>
<feColorMatrix type="matrix" values="0 0 0 0 0 0 0 0 0 0 0 0 0 0 0 0 0 0 0.05 0"/>
<feBlend mode="normal" in2="BackgroundImageFix" result="effect1_dropShadow_207_60"/>
<feBlend mode="normal" in="SourceGraphic" in2="effect1_dropShadow_207_60" result="shape"/>
</filter>
</defs>
</svg>
