<svg width="50" height="50" viewBox="0 0 50 50" fill="none" xmlns="http://www.w3.org/2000/svg">
<path d="M23.724 12.896H25.701C26.435 12.896 27.139 12.5985 27.658 12.0691C28.1771 11.5396 28.4687 10.8216 28.4687 10.0728C28.4687 9.32403 28.1771 8.60595 27.658 8.07651C27.139 7.54707 26.435 7.24963 25.701 7.24963H22.9331C22.7234 7.24963 22.5222 7.33461 22.374 7.48588C22.2257 7.63715 22.1423 7.84232 22.1423 8.05624V16.929H23.724V12.896ZM23.724 8.86285H25.701C26.0156 8.86285 26.3172 8.99033 26.5397 9.21723C26.7621 9.44413 26.8871 9.75188 26.8871 10.0728C26.8871 10.3937 26.7621 10.7015 26.5397 10.9284C26.3172 11.1553 26.0156 11.2827 25.701 11.2827H23.724V8.86285Z" fill="white"/>
<path d="M48.2385 19.3488C48.4482 19.3488 48.6494 19.2638 48.7977 19.1125C48.946 18.9612 49.0293 18.7561 49.0293 18.5421V7.24958C49.0293 7.03565 48.946 6.83049 48.7977 6.67922C48.6494 6.52795 48.4482 6.44297 48.2385 6.44297H35.0006C33.9923 4.49807 32.483 2.87042 30.6354 1.73516C28.7878 0.599903 26.6717 0 24.5147 0C22.3576 0 20.2416 0.599903 18.3939 1.73516C16.5463 2.87042 15.0371 4.49807 14.0287 6.44297H0.790796C0.581064 6.44297 0.379922 6.52795 0.231619 6.67922C0.0833157 6.83049 0 7.03565 0 7.24958V18.5421C0 18.7561 0.0833157 18.9612 0.231619 19.1125C0.379922 19.2638 0.581064 19.3488 0.790796 19.3488H1.58159V43.5471H0.790796C0.581064 43.5471 0.379922 43.6321 0.231619 43.7834C0.0833157 43.9346 0 44.1398 0 44.3537V49.1934C0 49.4073 0.0833157 49.6125 0.231619 49.7638C0.379922 49.915 0.581064 50 0.790796 50H48.2385C48.4482 50 48.6494 49.915 48.7977 49.7638C48.946 49.6125 49.0293 49.4073 49.0293 49.1934V44.3537C49.0293 44.1398 48.946 43.9346 48.7977 43.7834C48.6494 43.6321 48.4482 43.5471 48.2385 43.5471H47.4477V19.3488H48.2385ZM47.4477 8.05619V17.7355H35.0006C35.7712 16.2603 36.2298 14.6367 36.347 12.9694C36.464 11.3022 36.2371 9.62841 35.6807 8.05619H47.4477ZM9.48955 43.5471V37.0942H39.5398V43.5471H9.48955ZM39.5398 35.481H9.48955V29.0281H39.5398V35.481ZM39.5398 27.4149H9.48955V19.3488H15.0251C16.1241 20.8602 17.5548 22.0882 19.2026 22.9342C20.8506 23.7803 22.6698 24.221 24.5147 24.221C26.3595 24.221 28.1787 23.7803 29.8267 22.9342C31.4745 22.0882 32.9053 20.8602 34.0042 19.3488H39.5398V27.4149ZM24.5147 1.6033C26.5479 1.6033 28.5355 2.21829 30.2261 3.3705C31.9167 4.52271 33.2344 6.16039 34.0125 8.07645C34.7906 9.99251 34.9941 12.1009 34.5975 14.135C34.2008 16.169 33.2217 18.0375 31.784 19.5039C30.3463 20.9704 28.5144 21.9691 26.5203 22.3737C24.5261 22.7783 22.459 22.5707 20.5806 21.777C18.7021 20.9834 17.0965 19.6393 15.9669 17.9149C14.8373 16.1905 14.2343 14.1632 14.2343 12.0893C14.2343 9.3082 15.3175 6.64106 17.2454 4.67456C19.1733 2.70807 21.7881 1.6033 24.5147 1.6033ZM1.58159 8.05619H13.3486C12.7923 9.62841 12.5653 11.3022 12.6825 12.9694C12.7996 14.6367 13.2582 16.2603 14.0287 17.7355H1.58159V8.05619ZM3.16319 19.3488H7.90796V43.5471H3.16319V19.3488ZM47.4477 48.3868H1.58159V45.1603H47.4477V48.3868ZM45.8662 43.5471H41.1214V19.3488H45.8662V43.5471Z" fill="white"/>
<path d="M24.5147 20.962C26.2351 20.962 27.917 20.4416 29.3475 19.4667C30.778 18.4917 31.8929 17.106 32.5513 15.4847C33.2097 13.8634 33.382 12.0794 33.0463 10.3583C32.7106 8.63717 31.8822 7.0562 30.6656 5.81532C29.4492 4.57445 27.8992 3.72941 26.2117 3.38705C24.5244 3.04469 22.7753 3.2204 21.1858 3.89196C19.5963 4.56351 18.2378 5.70075 17.282 7.15987C16.3261 8.61898 15.8159 10.3344 15.8159 12.0893C15.8159 14.4424 16.7324 16.6993 18.3638 18.3632C19.9951 20.0272 22.2077 20.962 24.5147 20.962ZM24.5147 4.82979C25.9224 4.82979 27.2984 5.25555 28.4688 6.05323C29.6392 6.85092 30.5514 7.9847 31.0901 9.3112C31.6288 10.6377 31.7697 12.0973 31.4951 13.5055C31.2205 14.9137 30.5427 16.2072 29.5473 17.2225C28.5519 18.2378 27.2838 18.9292 25.9032 19.2093C24.5226 19.4894 23.0916 19.3456 21.7911 18.7962C20.4906 18.2467 19.3791 17.3162 18.597 16.1224C17.8149 14.9286 17.3976 13.525 17.3976 12.0893C17.3976 10.1639 18.1474 8.31747 19.4821 6.95605C20.8168 5.59462 22.6271 4.82979 24.5147 4.82979Z" fill="white"/>
</svg>
