<svg width="50" height="50" viewBox="0 0 50 50" fill="none" xmlns="http://www.w3.org/2000/svg">
<path d="M47.6562 47.6562V35.9375C47.6562 35.7303 47.5739 35.5316 47.4274 35.3851C47.2809 35.2386 47.0822 35.1562 46.875 35.1562H46.0938V4.6875C46.0938 4.4803 46.0114 4.28159 45.8649 4.13507C45.7184 3.98856 45.5197 3.90625 45.3125 3.90625H42.9688V1.5625C42.9688 1.3553 42.8864 1.15659 42.7399 1.01007C42.5934 0.86356 42.3947 0.78125 42.1875 0.78125H32.8125C32.6053 0.78125 32.4066 0.86356 32.2601 1.01007C32.1136 1.15659 32.0312 1.3553 32.0312 1.5625V3.90625H29.6875C29.4803 3.90625 29.2816 3.98856 29.1351 4.13507C28.9886 4.28159 28.9062 4.4803 28.9062 4.6875V17.9688H23.4375C23.2303 17.9688 23.0316 18.0511 22.8851 18.1976C22.7386 18.3441 22.6562 18.5428 22.6562 18.75V32.8125H21.0938V17.9688C21.0938 17.7615 21.0114 17.5628 20.8649 17.4163C20.7184 17.2698 20.5197 17.1875 20.3125 17.1875H17.9219C17.7471 15.8113 17.1195 14.5324 16.1379 13.5522C15.1563 12.572 13.8764 11.9462 12.5 11.7734V8.59375H10.9375V11.7734C9.56107 11.9462 8.28124 12.572 7.29961 13.5522C6.31799 14.5324 5.69037 15.8113 5.51562 17.1875H3.125C2.9178 17.1875 2.71909 17.2698 2.57257 17.4163C2.42606 17.5628 2.34375 17.7615 2.34375 17.9688V47.6562H0.78125V49.2188H49.2188V47.6562H47.6562ZM35.1562 8.59375V17.9688H33.5938V8.59375H35.1562ZM36.7188 18.75V8.59375H38.2812V35.1562H36.7188V18.75ZM39.8438 35.1562V8.59375H41.4062V35.1562H39.8438ZM46.0938 36.7188V47.6562H32.8125V36.7188H46.0938ZM42.9688 35.1562V8.59375H44.5312V35.1562H42.9688ZM32.8125 5.46875C33.0197 5.46875 33.2184 5.38644 33.3649 5.23993C33.5114 5.09341 33.5938 4.8947 33.5938 4.6875V2.34375H41.4062V4.6875C41.4062 4.8947 41.4886 5.09341 41.6351 5.23993C41.7816 5.38644 41.9803 5.46875 42.1875 5.46875H44.5312V7.03125H30.4688V5.46875H32.8125ZM30.4688 8.59375H32.0312V17.9688H30.4688V8.59375ZM24.2188 19.5312H35.1562V35.1562H32.0312C31.824 35.1562 31.6253 35.2386 31.4788 35.3851C31.3323 35.5316 31.25 35.7303 31.25 35.9375V47.6562H28.125V33.5938C28.125 33.3866 28.0427 33.1878 27.8962 33.0413C27.7497 32.8948 27.551 32.8125 27.3438 32.8125H24.2188V19.5312ZM26.5625 47.6562H14.0625V34.375H26.5625V47.6562ZM11.7188 13.2812C12.962 13.2812 14.1542 13.7751 15.0333 14.6542C15.9124 15.5333 16.4062 16.7255 16.4062 17.9688C16.4062 18.176 16.4886 18.3747 16.6351 18.5212C16.7816 18.6677 16.9803 18.75 17.1875 18.75H19.5312V28.125H18.3594C18.0486 28.125 17.7505 28.0015 17.5307 27.7818C17.311 27.562 17.1875 27.2639 17.1875 26.9531C17.1875 26.2279 16.8994 25.5324 16.3866 25.0196C15.8738 24.5068 15.1783 24.2188 14.4531 24.2188H12.1094C11.7986 24.2188 11.5005 24.0953 11.2807 23.8755C11.061 23.6557 10.9375 23.3577 10.9375 23.0469C10.9375 22.3217 10.6494 21.6262 10.1366 21.1134C9.62383 20.6006 8.92833 20.3125 8.20312 20.3125C7.89232 20.3125 7.59425 20.189 7.37448 19.9693C7.15472 19.7495 7.03125 19.4514 7.03125 19.1406V17.9688C7.03125 16.7255 7.52511 15.5333 8.40419 14.6542C9.28326 13.7751 10.4755 13.2812 11.7188 13.2812ZM3.90625 18.75H5.46875V19.1406C5.46875 19.8658 5.75684 20.5613 6.26963 21.0741C6.78242 21.5869 7.47792 21.875 8.20312 21.875C8.51393 21.875 8.812 21.9985 9.03177 22.2182C9.25154 22.438 9.375 22.7361 9.375 23.0469C9.375 23.7721 9.66308 24.4676 10.1759 24.9804C10.6887 25.4932 11.3842 25.7812 12.1094 25.7812H14.4531C14.6946 25.7831 14.9298 25.8589 15.1268 25.9987C15.3238 26.1384 15.4731 26.3352 15.5547 26.5625H13.2812C13.074 26.5625 12.8753 26.6448 12.7288 26.7913C12.5823 26.9378 12.5 27.1365 12.5 27.3438V30.4688C12.5 30.676 12.5823 30.8747 12.7288 31.0212C12.8753 31.1677 13.074 31.25 13.2812 31.25H16.4062C16.6135 31.25 16.8122 31.1677 16.9587 31.0212C17.1052 30.8747 17.1875 30.676 17.1875 30.4688V29.4141C17.5525 29.5924 17.9531 29.6858 18.3594 29.6875H19.5312V32.8125H13.2812C13.074 32.8125 12.8753 32.8948 12.7288 33.0413C12.5823 33.1878 12.5 33.3866 12.5 33.5938V47.6562H3.90625V18.75ZM15.625 28.125V29.6875H14.0625V28.125H15.625Z" fill="white"/>
<path d="M10.1562 26.5625H7.03125C6.82405 26.5625 6.62534 26.6448 6.47882 26.7913C6.33231 26.9378 6.25 27.1365 6.25 27.3438V30.4688C6.25 30.676 6.33231 30.8747 6.47882 31.0212C6.62534 31.1677 6.82405 31.25 7.03125 31.25H10.1562C10.3635 31.25 10.5622 31.1677 10.7087 31.0212C10.8552 30.8747 10.9375 30.676 10.9375 30.4688V27.3438C10.9375 27.1365 10.8552 26.9378 10.7087 26.7913C10.5622 26.6448 10.3635 26.5625 10.1562 26.5625ZM9.375 29.6875H7.8125V28.125H9.375V29.6875Z" fill="white"/>
<path d="M10.1562 32.8125H7.03125C6.82405 32.8125 6.62534 32.8948 6.47882 33.0413C6.33231 33.1878 6.25 33.3865 6.25 33.5938V36.7188C6.25 36.926 6.33231 37.1247 6.47882 37.2712C6.62534 37.4177 6.82405 37.5 7.03125 37.5H10.1562C10.3635 37.5 10.5622 37.4177 10.7087 37.2712C10.8552 37.1247 10.9375 36.926 10.9375 36.7188V33.5938C10.9375 33.3865 10.8552 33.1878 10.7087 33.0413C10.5622 32.8948 10.3635 32.8125 10.1562 32.8125ZM9.375 35.9375H7.8125V34.375H9.375V35.9375Z" fill="white"/>
<path d="M10.1562 39.0625H7.03125C6.82405 39.0625 6.62534 39.1448 6.47882 39.2913C6.33231 39.4378 6.25 39.6365 6.25 39.8438V42.9688C6.25 43.176 6.33231 43.3747 6.47882 43.5212C6.62534 43.6677 6.82405 43.75 7.03125 43.75H10.1562C10.3635 43.75 10.5622 43.6677 10.7087 43.5212C10.8552 43.3747 10.9375 43.176 10.9375 42.9688V39.8438C10.9375 39.6365 10.8552 39.4378 10.7087 39.2913C10.5622 39.1448 10.3635 39.0625 10.1562 39.0625ZM9.375 42.1875H7.8125V40.625H9.375V42.1875Z" fill="white"/>
<path d="M17.9688 35.9375H16.4062V39.0625H17.9688V35.9375Z" fill="white"/>
<path d="M21.0938 35.9375H19.5312V39.0625H21.0938V35.9375Z" fill="white"/>
<path d="M24.2188 35.9375H22.6562V39.0625H24.2188V35.9375Z" fill="white"/>
<path d="M17.9688 40.625H16.4062V43.75H17.9688V40.625Z" fill="white"/>
<path d="M21.0938 40.625H19.5312V43.75H21.0938V40.625Z" fill="white"/>
<path d="M24.2188 40.625H22.6562V43.75H24.2188V40.625Z" fill="white"/>
<path d="M44.5312 38.2812H34.375V39.8438H44.5312V38.2812Z" fill="white"/>
<path d="M44.5312 41.4062H34.375V42.9688H44.5312V41.4062Z" fill="white"/>
<path d="M44.5312 44.5312H34.375V46.0938H44.5312V44.5312Z" fill="white"/>
<path d="M33.5938 21.0938H25.7812V22.6562H33.5938V21.0938Z" fill="white"/>
<path d="M33.5938 24.2188H25.7812V25.7812H33.5938V24.2188Z" fill="white"/>
<path d="M33.5938 27.3438H25.7812V28.9062H33.5938V27.3438Z" fill="white"/>
<path d="M33.5938 30.4688H25.7812V32.0312H33.5938V30.4688Z" fill="white"/>
<path d="M21.0938 14.0625C21.5573 14.0625 22.0104 13.925 22.3959 13.6675C22.7813 13.41 23.0817 13.0439 23.2591 12.6157C23.4365 12.1874 23.4829 11.7162 23.3925 11.2615C23.302 10.8069 23.0788 10.3892 22.751 10.0615C22.4233 9.73369 22.0056 9.51047 21.551 9.42004C21.0964 9.3296 20.6251 9.37602 20.1968 9.55341C19.7686 9.7308 19.4025 10.0312 19.145 10.4166C18.8875 10.8021 18.75 11.2552 18.75 11.7188C18.75 12.3404 18.9969 12.9365 19.4365 13.376C19.876 13.8156 20.4721 14.0625 21.0938 14.0625ZM21.0938 10.9375C21.2483 10.9375 21.3993 10.9833 21.5278 11.0692C21.6563 11.155 21.7564 11.277 21.8155 11.4198C21.8747 11.5625 21.8901 11.7196 21.86 11.8712C21.8298 12.0227 21.7554 12.1619 21.6462 12.2712C21.5369 12.3804 21.3977 12.4548 21.2462 12.485C21.0946 12.5151 20.9375 12.4997 20.7948 12.4405C20.652 12.3814 20.53 12.2813 20.4442 12.1528C20.3583 12.0243 20.3125 11.8733 20.3125 11.7188C20.3125 11.5116 20.3948 11.3128 20.5413 11.1663C20.6878 11.0198 20.8865 10.9375 21.0938 10.9375Z" fill="white"/>
<path d="M5.46875 7.8125C5.9323 7.8125 6.38544 7.67504 6.77087 7.41751C7.1563 7.15997 7.4567 6.79393 7.63409 6.36567C7.81149 5.9374 7.8579 5.46615 7.76747 5.01151C7.67703 4.55687 7.45381 4.13925 7.12603 3.81147C6.79825 3.48369 6.38064 3.26047 5.92599 3.17004C5.47135 3.0796 5.0001 3.12602 4.57184 3.30341C4.14357 3.4808 3.77753 3.78121 3.51999 4.16663C3.26246 4.55206 3.125 5.0052 3.125 5.46875C3.125 6.09035 3.37193 6.68649 3.81147 7.12603C4.25101 7.56557 4.84715 7.8125 5.46875 7.8125ZM5.46875 4.6875C5.62327 4.6875 5.77431 4.73332 5.90279 4.81917C6.03127 4.90501 6.1314 5.02702 6.19053 5.16978C6.24966 5.31253 6.26513 5.46962 6.23499 5.62117C6.20484 5.77271 6.13044 5.91192 6.02118 6.02118C5.91192 6.13044 5.77271 6.20484 5.62116 6.23499C5.46962 6.26513 5.31253 6.24966 5.16978 6.19053C5.02702 6.1314 4.90501 6.03127 4.81916 5.90279C4.73332 5.77431 4.6875 5.62327 4.6875 5.46875C4.6875 5.26155 4.76981 5.06284 4.91632 4.91632C5.06284 4.76981 5.26155 4.6875 5.46875 4.6875Z" fill="white"/>
</svg>
