<svg width="50" height="50" viewBox="0 0 50 50" fill="none" xmlns="http://www.w3.org/2000/svg">
<path d="M31.9065 3.891C31.9065 3.68461 31.8245 3.48667 31.6786 3.34073C31.5326 3.19479 31.3347 3.1128 31.1283 3.11279H28.0155C27.8091 3.1128 27.6111 3.19479 27.4652 3.34073C27.3193 3.48667 27.2373 3.68461 27.2373 3.891V8.56026C27.2373 8.76665 27.3193 8.96459 27.4652 9.11053C27.6111 9.25647 27.8091 9.33846 28.0155 9.33847H31.1283C31.3347 9.33846 31.5326 9.25647 31.6786 9.11053C31.8245 8.96459 31.9065 8.76665 31.9065 8.56026V3.891ZM30.3501 7.78205H28.7937V4.66921H30.3501V7.78205Z" fill="white"/>
<path d="M38.1322 3.891C38.1322 3.68461 38.0502 3.48667 37.9043 3.34073C37.7583 3.19479 37.5604 3.1128 37.354 3.11279H34.2411C34.0348 3.1128 33.8368 3.19479 33.6909 3.34073C33.5449 3.48667 33.4629 3.68461 33.4629 3.891V8.56026C33.4629 8.76665 33.5449 8.96459 33.6909 9.11053C33.8368 9.25647 34.0348 9.33846 34.2411 9.33847H37.354C37.5604 9.33846 37.7583 9.25647 37.9043 9.11053C38.0502 8.96459 38.1322 8.76665 38.1322 8.56026V3.891ZM36.5758 7.78205H35.0194V4.66921H36.5758V7.78205Z" fill="white"/>
<path d="M31.9065 11.6732C31.9065 11.4668 31.8245 11.2688 31.6786 11.1229C31.5326 10.9769 31.3347 10.895 31.1283 10.8949H28.0155C27.8091 10.895 27.6111 10.9769 27.4652 11.1229C27.3193 11.2688 27.2373 11.4668 27.2373 11.6732V16.3424C27.2373 16.5488 27.3193 16.7467 27.4652 16.8927C27.6111 17.0386 27.8091 17.1206 28.0155 17.1206H31.1283C31.3347 17.1206 31.5326 17.0386 31.6786 16.8927C31.8245 16.7467 31.9065 16.5488 31.9065 16.3424V11.6732ZM30.3501 15.5642H28.7937V12.4514H30.3501V15.5642Z" fill="white"/>
<path d="M38.1322 11.6732C38.1322 11.4668 38.0502 11.2688 37.9043 11.1229C37.7583 10.9769 37.5604 10.895 37.354 10.8949H34.2411C34.0348 10.895 33.8368 10.9769 33.6909 11.1229C33.5449 11.2688 33.4629 11.4668 33.4629 11.6732V16.3424C33.4629 16.5488 33.5449 16.7467 33.6909 16.8927C33.8368 17.0386 34.0348 17.1206 34.2411 17.1206H37.354C37.5604 17.1206 37.7583 17.0386 37.9043 16.8927C38.0502 16.7467 38.1322 16.5488 38.1322 16.3424V11.6732ZM36.5758 15.5642H35.0194V12.4514H36.5758V15.5642Z" fill="white"/>
<path d="M25.6809 3.891C25.6809 3.68461 25.5989 3.48667 25.453 3.34073C25.307 3.19479 25.1091 3.1128 24.9027 3.11279H21.7899C21.5835 3.1128 21.3856 3.19479 21.2396 3.34073C21.0937 3.48667 21.0117 3.68461 21.0117 3.891V8.56026C21.0117 8.76665 21.0937 8.96459 21.2396 9.11053C21.3856 9.25647 21.5835 9.33846 21.7899 9.33847H24.9027C25.1091 9.33846 25.307 9.25647 25.453 9.11053C25.5989 8.96459 25.6809 8.76665 25.6809 8.56026V3.891ZM24.1245 7.78205H22.5681V4.66921H24.1245V7.78205Z" fill="white"/>
<path d="M25.6809 11.6732C25.6809 11.4668 25.5989 11.2688 25.453 11.1229C25.307 10.9769 25.1091 10.895 24.9027 10.8949H21.7899C21.5835 10.895 21.3856 10.9769 21.2396 11.1229C21.0937 11.2688 21.0117 11.4668 21.0117 11.6732V16.3424C21.0117 16.5488 21.0937 16.7467 21.2396 16.8927C21.3856 17.0386 21.5835 17.1206 21.7899 17.1206H24.9027C25.1091 17.1206 25.307 17.0386 25.453 16.8927C25.5989 16.7467 25.6809 16.5488 25.6809 16.3424V11.6732ZM24.1245 15.5642H22.5681V12.4514H24.1245V15.5642Z" fill="white"/>
<path d="M19.4552 3.891C19.4551 3.68461 19.3731 3.48667 19.2272 3.34073C19.0813 3.19479 18.8833 3.1128 18.6769 3.11279H15.5641C15.3577 3.1128 15.1598 3.19479 15.0138 3.34073C14.8679 3.48667 14.7859 3.68461 14.7859 3.891V8.56026C14.7859 8.76665 14.8679 8.96459 15.0138 9.11053C15.1598 9.25647 15.3577 9.33846 15.5641 9.33847H18.6769C18.8833 9.33846 19.0813 9.25647 19.2272 9.11053C19.3731 8.96459 19.4551 8.76665 19.4552 8.56026V3.891ZM17.8987 7.78205H16.3423V4.66921H17.8987V7.78205Z" fill="white"/>
<path d="M19.4552 11.6732C19.4551 11.4668 19.3731 11.2688 19.2272 11.1229C19.0813 10.9769 18.8833 10.895 18.6769 10.8949H15.5641C15.3577 10.895 15.1598 10.9769 15.0138 11.1229C14.8679 11.2688 14.7859 11.4668 14.7859 11.6732V16.3424C14.7859 16.5488 14.8679 16.7467 15.0138 16.8927C15.1598 17.0386 15.3577 17.1206 15.5641 17.1206H18.6769C18.8833 17.1206 19.0813 17.0386 19.2272 16.8927C19.3731 16.7467 19.4551 16.5488 19.4552 16.3424V11.6732ZM17.8987 15.5642H16.3423V12.4514H17.8987V15.5642Z" fill="white"/>
<path d="M31.1283 18.677H28.0155C27.8091 18.6771 27.6111 18.759 27.4652 18.905C27.3193 19.0509 27.2373 19.2489 27.2373 19.4553V24.1245C27.2373 24.3309 27.3193 24.5288 27.4652 24.6748C27.6111 24.8207 27.8091 24.9027 28.0155 24.9027H31.1283C31.3347 24.9027 31.5326 24.8207 31.6786 24.6748C31.8245 24.5288 31.9065 24.3309 31.9065 24.1245V19.4553C31.9065 19.2489 31.8245 19.0509 31.6786 18.905C31.5326 18.759 31.3347 18.6771 31.1283 18.677ZM30.3501 23.3463H28.7937V20.2335H30.3501V23.3463Z" fill="white"/>
<path d="M37.354 18.677H34.2411C34.0348 18.6771 33.8368 18.759 33.6909 18.905C33.5449 19.0509 33.4629 19.2489 33.4629 19.4553V24.1245C33.4629 24.3309 33.5449 24.5288 33.6909 24.6748C33.8368 24.8207 34.0348 24.9027 34.2411 24.9027H37.354C37.5604 24.9027 37.7583 24.8207 37.9043 24.6748C38.0502 24.5288 38.1322 24.3309 38.1322 24.1245V19.4553C38.1322 19.2489 38.0502 19.0509 37.9043 18.905C37.7583 18.759 37.5604 18.6771 37.354 18.677ZM36.5758 23.3463H35.0194V20.2335H36.5758V23.3463Z" fill="white"/>
<path d="M24.9027 18.677H21.7899C21.5835 18.6771 21.3856 18.759 21.2396 18.905C21.0937 19.0509 21.0117 19.2489 21.0117 19.4553V24.1245C21.0117 24.3309 21.0937 24.5288 21.2396 24.6748C21.3856 24.8207 21.5835 24.9027 21.7899 24.9027H24.9027C25.1091 24.9027 25.307 24.8207 25.453 24.6748C25.5989 24.5288 25.6809 24.3309 25.6809 24.1245V19.4553C25.6809 19.2489 25.5989 19.0509 25.453 18.905C25.307 18.759 25.1091 18.6771 24.9027 18.677ZM24.1245 23.3463H22.5681V20.2335H24.1245V23.3463Z" fill="white"/>
<path d="M18.6769 18.677H15.5641C15.3577 18.6771 15.1598 18.759 15.0138 18.905C14.8679 19.0509 14.7859 19.2489 14.7859 19.4553V24.1245C14.7859 24.3309 14.8679 24.5288 15.0138 24.6748C15.1598 24.8207 15.3577 24.9027 15.5641 24.9027H18.6769C18.8833 24.9027 19.0813 24.8207 19.2272 24.6748C19.3731 24.5288 19.4551 24.3309 19.4552 24.1245V19.4553C19.4551 19.2489 19.3731 19.0509 19.2272 18.905C19.0813 18.759 18.8833 18.6771 18.6769 18.677ZM17.8987 23.3463H16.3423V20.2335H17.8987V23.3463Z" fill="white"/>
<path d="M41.245 26.2646V2.33463C41.2443 1.71566 40.9981 1.12225 40.5605 0.684571C40.1228 0.246895 39.5294 0.000700307 38.9104 0H14.0077C13.3887 0.000700307 12.7953 0.246895 12.3576 0.684571C11.9199 1.12225 11.6738 1.71566 11.6731 2.33463V26.6537H13.2295V2.33463C13.2295 2.12824 13.3115 1.9303 13.4574 1.78435C13.6033 1.63841 13.8013 1.55642 14.0077 1.55642H38.9104C39.1168 1.55642 39.3147 1.63841 39.4607 1.78435C39.6066 1.9303 39.6886 2.12824 39.6886 2.33463V26.2646H41.245Z" fill="white"/>
<path d="M48.249 27.821H37.3541C36.9414 27.8214 36.5458 27.9855 36.254 28.2773C35.9622 28.5691 35.7981 28.9648 35.7977 29.3774V30.9339H19.8444V29.7665C19.8439 29.3539 19.6798 28.9582 19.388 28.6664C19.0962 28.3746 18.7006 28.2105 18.2879 28.2101H1.55642C1.14376 28.2105 0.748116 28.3746 0.45632 28.6664C0.164524 28.9582 0.000412044 29.3539 0 29.7665V48.4436C0.000412044 48.8562 0.164524 49.2519 0.45632 49.5437C0.748116 49.8355 1.14376 49.9996 1.55642 50H48.249C48.6617 49.9996 49.0573 49.8355 49.3491 49.5437C49.6409 49.2519 49.805 48.8562 49.8054 48.4436V29.3774C49.805 28.9648 49.6409 28.5691 49.3491 28.2773C49.0573 27.9855 48.6617 27.8214 48.249 27.821ZM37.3541 29.3774H48.249V44.9416H37.3541V29.3774ZM19.8444 32.4903H35.7977V34.0467H19.8444V32.4903ZM19.8444 35.6031H35.7977V44.9416H31.5175V41.0506C31.5166 40.2253 31.1883 39.4341 30.6047 38.8505C30.0212 38.2669 29.23 37.9387 28.4047 37.9377H26.8482C26.023 37.9387 25.2317 38.2669 24.6482 38.8505C24.0646 39.4341 23.7364 40.2253 23.7354 41.0506V44.9416H19.8444V35.6031ZM29.9611 41.0506V44.9416H25.2918V41.0506C25.2922 40.6379 25.4564 40.2423 25.7481 39.9505C26.0399 39.6587 26.4356 39.4946 26.8482 39.4942H28.4047C28.8173 39.4946 29.213 39.6587 29.5048 39.9505C29.7966 40.2423 29.9607 40.6379 29.9611 41.0506ZM1.55642 29.7665H18.2879V44.9416H1.55642V29.7665ZM1.55642 48.4436V46.4981H48.2494L48.2502 48.4436H1.55642Z" fill="white"/>
<path d="M4.47488 32.1012H3.69667C3.49027 32.1012 3.29233 32.1832 3.14639 32.3291C3.00045 32.475 2.91846 32.673 2.91846 32.8794C2.91846 33.0858 3.00045 33.2837 3.14639 33.4297C3.29233 33.5756 3.49027 33.6576 3.69667 33.6576H4.47488C4.68127 33.6576 4.87921 33.5756 5.02516 33.4297C5.1711 33.2837 5.25309 33.0858 5.25309 32.8794C5.25309 32.673 5.1711 32.475 5.02516 32.3291C4.87921 32.1832 4.68127 32.1012 4.47488 32.1012Z" fill="white"/>
<path d="M4.47488 35.214H3.69667C3.49027 35.214 3.29233 35.296 3.14639 35.4419C3.00045 35.5879 2.91846 35.7858 2.91846 35.9922C2.91846 36.1986 3.00045 36.3966 3.14639 36.5425C3.29233 36.6884 3.49027 36.7704 3.69667 36.7704H4.47488C4.68127 36.7704 4.87921 36.6884 5.02516 36.5425C5.1711 36.3966 5.25309 36.1986 5.25309 35.9922C5.25309 35.7858 5.1711 35.5879 5.02516 35.4419C4.87921 35.296 4.68127 35.214 4.47488 35.214Z" fill="white"/>
<path d="M4.47488 38.3268H3.69667C3.49027 38.3268 3.29233 38.4088 3.14639 38.5548C3.00045 38.7007 2.91846 38.8987 2.91846 39.1051C2.91846 39.3115 3.00045 39.5094 3.14639 39.6553C3.29233 39.8013 3.49027 39.8833 3.69667 39.8833H4.47488C4.68127 39.8833 4.87921 39.8013 5.02516 39.6553C5.1711 39.5094 5.25309 39.3115 5.25309 39.1051C5.25309 38.8987 5.1711 38.7007 5.02516 38.5548C4.87921 38.4088 4.68127 38.3268 4.47488 38.3268Z" fill="white"/>
<path d="M4.47488 41.4397H3.69667C3.49027 41.4397 3.29233 41.5217 3.14639 41.6676C3.00045 41.8136 2.91846 42.0115 2.91846 42.2179C2.91846 42.4243 3.00045 42.6222 3.14639 42.7682C3.29233 42.9141 3.49027 42.9961 3.69667 42.9961H4.47488C4.68127 42.9961 4.87921 42.9141 5.02516 42.7682C5.1711 42.6222 5.25309 42.4243 5.25309 42.2179C5.25309 42.0115 5.1711 41.8136 5.02516 41.6676C4.87921 41.5217 4.68127 41.4397 4.47488 41.4397Z" fill="white"/>
<path d="M8.36599 32.1012H7.58778C7.38138 32.1012 7.18344 32.1832 7.0375 32.3291C6.89156 32.475 6.80957 32.673 6.80957 32.8794C6.80957 33.0858 6.89156 33.2837 7.0375 33.4297C7.18344 33.5756 7.38138 33.6576 7.58778 33.6576H8.36599C8.57238 33.6576 8.77032 33.5756 8.91627 33.4297C9.06221 33.2837 9.1442 33.0858 9.1442 32.8794C9.1442 32.673 9.06221 32.475 8.91627 32.3291C8.77032 32.1832 8.57238 32.1012 8.36599 32.1012Z" fill="white"/>
<path d="M8.36599 35.214H7.58778C7.38138 35.214 7.18344 35.296 7.0375 35.4419C6.89156 35.5879 6.80957 35.7858 6.80957 35.9922C6.80957 36.1986 6.89156 36.3966 7.0375 36.5425C7.18344 36.6884 7.38138 36.7704 7.58778 36.7704H8.36599C8.57238 36.7704 8.77032 36.6884 8.91627 36.5425C9.06221 36.3966 9.1442 36.1986 9.1442 35.9922C9.1442 35.7858 9.06221 35.5879 8.91627 35.4419C8.77032 35.296 8.57238 35.214 8.36599 35.214Z" fill="white"/>
<path d="M8.36599 38.3268H7.58778C7.38138 38.3268 7.18344 38.4088 7.0375 38.5548C6.89156 38.7007 6.80957 38.8987 6.80957 39.1051C6.80957 39.3115 6.89156 39.5094 7.0375 39.6553C7.18344 39.8013 7.38138 39.8833 7.58778 39.8833H8.36599C8.57238 39.8833 8.77032 39.8013 8.91627 39.6553C9.06221 39.5094 9.1442 39.3115 9.1442 39.1051C9.1442 38.8987 9.06221 38.7007 8.91627 38.5548C8.77032 38.4088 8.57238 38.3268 8.36599 38.3268Z" fill="white"/>
<path d="M8.36599 41.4397H7.58778C7.38138 41.4397 7.18344 41.5217 7.0375 41.6676C6.89156 41.8136 6.80957 42.0115 6.80957 42.2179C6.80957 42.4243 6.89156 42.6222 7.0375 42.7682C7.18344 42.9141 7.38138 42.9961 7.58778 42.9961H8.36599C8.57238 42.9961 8.77032 42.9141 8.91627 42.7682C9.06221 42.6222 9.1442 42.4243 9.1442 42.2179C9.1442 42.0115 9.06221 41.8136 8.91627 41.6676C8.77032 41.5217 8.57238 41.4397 8.36599 41.4397Z" fill="white"/>
<path d="M12.2568 32.1012H11.4786C11.2722 32.1012 11.0743 32.1832 10.9283 32.3291C10.7824 32.475 10.7004 32.673 10.7004 32.8794C10.7004 33.0858 10.7824 33.2837 10.9283 33.4297C11.0743 33.5756 11.2722 33.6576 11.4786 33.6576H12.2568C12.4632 33.6576 12.6611 33.5756 12.8071 33.4297C12.953 33.2837 13.035 33.0858 13.035 32.8794C13.035 32.673 12.953 32.475 12.8071 32.3291C12.6611 32.1832 12.4632 32.1012 12.2568 32.1012Z" fill="white"/>
<path d="M12.2568 35.214H11.4786C11.2722 35.214 11.0743 35.296 10.9283 35.4419C10.7824 35.5879 10.7004 35.7858 10.7004 35.9922C10.7004 36.1986 10.7824 36.3966 10.9283 36.5425C11.0743 36.6884 11.2722 36.7704 11.4786 36.7704H12.2568C12.4632 36.7704 12.6611 36.6884 12.8071 36.5425C12.953 36.3966 13.035 36.1986 13.035 35.9922C13.035 35.7858 12.953 35.5879 12.8071 35.4419C12.6611 35.296 12.4632 35.214 12.2568 35.214Z" fill="white"/>
<path d="M12.2568 38.3268H11.4786C11.2722 38.3268 11.0743 38.4088 10.9283 38.5548C10.7824 38.7007 10.7004 38.8987 10.7004 39.1051C10.7004 39.3115 10.7824 39.5094 10.9283 39.6553C11.0743 39.8013 11.2722 39.8833 11.4786 39.8833H12.2568C12.4632 39.8833 12.6611 39.8013 12.8071 39.6553C12.953 39.5094 13.035 39.3115 13.035 39.1051C13.035 38.8987 12.953 38.7007 12.8071 38.5548C12.6611 38.4088 12.4632 38.3268 12.2568 38.3268Z" fill="white"/>
<path d="M12.2568 41.4397H11.4786C11.2722 41.4397 11.0743 41.5217 10.9283 41.6676C10.7824 41.8136 10.7004 42.0115 10.7004 42.2179C10.7004 42.4243 10.7824 42.6222 10.9283 42.7682C11.0743 42.9141 11.2722 42.9961 11.4786 42.9961H12.2568C12.4632 42.9961 12.6611 42.9141 12.8071 42.7682C12.953 42.6222 13.035 42.4243 13.035 42.2179C13.035 42.0115 12.953 41.8136 12.8071 41.6676C12.6611 41.5217 12.4632 41.4397 12.2568 41.4397Z" fill="white"/>
<path d="M45.9661 32.7247L40.1295 30.7792C40.0325 30.7469 39.9302 30.7339 39.8282 30.7412C39.7263 30.7484 39.6267 30.7756 39.5353 30.8213C39.3507 30.9136 39.2103 31.0755 39.145 31.2713C39.1126 31.3682 39.0997 31.4706 39.1069 31.5726C39.1142 31.6745 39.1414 31.774 39.1871 31.8655C39.2328 31.9569 39.296 32.0384 39.3732 32.1054C39.4504 32.1724 39.5401 32.2235 39.637 32.2558L45.4736 34.2013C45.5706 34.2337 45.6729 34.2466 45.7749 34.2394C45.8768 34.2321 45.9764 34.2049 46.0678 34.1592C46.1592 34.1135 46.2407 34.0503 46.3077 33.9731C46.3747 33.8959 46.4258 33.8062 46.4582 33.7093C46.4905 33.6123 46.5034 33.5099 46.4962 33.408C46.489 33.306 46.4617 33.2065 46.416 33.1151C46.3703 33.0237 46.3071 32.9421 46.2299 32.8752C46.1527 32.8082 46.063 32.7571 45.9661 32.7247Z" fill="white"/>
<path d="M45.9661 35.8376L40.1295 33.892C39.9337 33.8267 39.7199 33.8419 39.5353 33.9342C39.3507 34.0265 39.2103 34.1883 39.145 34.3841C39.0797 34.5799 39.0948 34.7937 39.1871 34.9783C39.2794 35.1629 39.4412 35.3034 39.637 35.3687L45.4736 37.3142C45.6694 37.3795 45.8832 37.3643 46.0678 37.272C46.2524 37.1798 46.3929 37.0179 46.4582 36.8221C46.5235 36.6263 46.5083 36.4126 46.416 36.2279C46.3237 36.0433 46.1619 35.9029 45.9661 35.8376Z" fill="white"/>
<path d="M45.9661 38.9505L40.1295 37.005C39.9337 36.9397 39.7199 36.9548 39.5353 37.0471C39.3507 37.1394 39.2103 37.3012 39.145 37.4971C39.0797 37.6929 39.0948 37.9066 39.1871 38.0912C39.2794 38.2759 39.4412 38.4163 39.637 38.4816L45.4736 40.4271C45.5706 40.4595 45.6729 40.4724 45.7749 40.4652C45.8768 40.4579 45.9764 40.4307 46.0678 40.385C46.1592 40.3393 46.2407 40.276 46.3077 40.1988C46.3747 40.1216 46.4258 40.032 46.4582 39.935C46.4905 39.8381 46.5034 39.7357 46.4962 39.6338C46.489 39.5318 46.4617 39.4323 46.416 39.3409C46.3703 39.2494 46.3071 39.1679 46.2299 39.1009C46.1527 39.034 46.063 38.9828 45.9661 38.9505Z" fill="white"/>
<path d="M45.9661 42.0632L40.1295 40.1177C39.9337 40.0524 39.7199 40.0676 39.5353 40.1599C39.3507 40.2521 39.2103 40.414 39.145 40.6098C39.0797 40.8056 39.0948 41.0193 39.1871 41.204C39.2794 41.3886 39.4412 41.529 39.637 41.5943L45.4736 43.5399C45.5706 43.5722 45.6729 43.5851 45.7749 43.5779C45.8768 43.5707 45.9764 43.5434 46.0678 43.4977C46.1592 43.452 46.2407 43.3888 46.3077 43.3116C46.3747 43.2344 46.4258 43.1447 46.4582 43.0478C46.4905 42.9508 46.5034 42.8485 46.4962 42.7465C46.489 42.6446 46.4617 42.545 46.416 42.4536C46.3703 42.3622 46.3071 42.2807 46.2299 42.2137C46.1527 42.1467 46.063 42.0956 45.9661 42.0632Z" fill="white"/>
<path d="M16.1478 32.1012H15.3695C15.1632 32.1012 14.9652 32.1832 14.8193 32.3291C14.6733 32.475 14.5913 32.673 14.5913 32.8794C14.5913 33.0858 14.6733 33.2837 14.8193 33.4297C14.9652 33.5756 15.1632 33.6576 15.3695 33.6576H16.1478C16.3542 33.6576 16.5521 33.5756 16.698 33.4297C16.844 33.2837 16.926 33.0858 16.926 32.8794C16.926 32.673 16.844 32.475 16.698 32.3291C16.5521 32.1832 16.3542 32.1012 16.1478 32.1012Z" fill="white"/>
<path d="M16.1478 35.214H15.3695C15.1632 35.214 14.9652 35.296 14.8193 35.4419C14.6733 35.5879 14.5913 35.7858 14.5913 35.9922C14.5913 36.1986 14.6733 36.3966 14.8193 36.5425C14.9652 36.6884 15.1632 36.7704 15.3695 36.7704H16.1478C16.3542 36.7704 16.5521 36.6884 16.698 36.5425C16.844 36.3966 16.926 36.1986 16.926 35.9922C16.926 35.7858 16.844 35.5879 16.698 35.4419C16.5521 35.296 16.3542 35.214 16.1478 35.214Z" fill="white"/>
<path d="M16.1478 38.3268H15.3695C15.1632 38.3268 14.9652 38.4088 14.8193 38.5548C14.6733 38.7007 14.5913 38.8987 14.5913 39.1051C14.5913 39.3115 14.6733 39.5094 14.8193 39.6553C14.9652 39.8013 15.1632 39.8833 15.3695 39.8833H16.1478C16.3542 39.8833 16.5521 39.8013 16.698 39.6553C16.844 39.5094 16.926 39.3115 16.926 39.1051C16.926 38.8987 16.844 38.7007 16.698 38.5548C16.5521 38.4088 16.3542 38.3268 16.1478 38.3268Z" fill="white"/>
<path d="M16.1478 41.4397H15.3695C15.1632 41.4397 14.9652 41.5217 14.8193 41.6676C14.6733 41.8136 14.5913 42.0115 14.5913 42.2179C14.5913 42.4243 14.6733 42.6222 14.8193 42.7682C14.9652 42.9141 15.1632 42.9961 15.3695 42.9961H16.1478C16.3542 42.9961 16.5521 42.9141 16.698 42.7682C16.844 42.6222 16.926 42.4243 16.926 42.2179C16.926 42.0115 16.844 41.8136 16.698 41.6676C16.5521 41.5217 16.3542 41.4397 16.1478 41.4397Z" fill="white"/>
</svg>
