<svg width="50" height="50" viewBox="0 0 50 50" fill="none" xmlns="http://www.w3.org/2000/svg">
<g clip-path="url(#clip0)">
<path d="M11.7188 32.8125H3.125V34.375H11.7188V32.8125Z" fill="white"/>
<path d="M11.7188 35.9375H3.125V37.5H11.7188V35.9375Z" fill="white"/>
<path d="M11.7188 39.0625H3.125V40.625H11.7188V39.0625Z" fill="white"/>
<path d="M11.7188 42.1875H3.125V43.75H11.7188V42.1875Z" fill="white"/>
<path d="M11.7188 45.3125H3.125V46.875H11.7188V45.3125Z" fill="white"/>
<path d="M46.875 32.8125H38.2812V34.375H46.875V32.8125Z" fill="white"/>
<path d="M46.875 35.9375H38.2812V37.5H46.875V35.9375Z" fill="white"/>
<path d="M46.875 39.0625H38.2812V40.625H46.875V39.0625Z" fill="white"/>
<path d="M46.875 42.1875H38.2812V43.75H46.875V42.1875Z" fill="white"/>
<path d="M46.875 45.3125H38.2812V46.875H46.875V45.3125Z" fill="white"/>
<path d="M49.6344 13.418L49.6422 13.4063C34.6734 3.74771 15.3266 3.74771 0.357812 13.4063L0.365625 13.418C0.150781 13.5571 0 13.7875 0 14.0625V28.9063V49.2188C0 49.6508 0.349219 50 0.78125 50H14.0625H19.5312H30.4688H35.9375H49.2188C49.6508 50 50 49.6508 50 49.2188V28.9063V14.0625C50 13.7875 49.8492 13.5571 49.6344 13.418ZM13.2812 24.2188V21.0938H36.7188V24.2188H35.9375H14.0625H13.2812ZM36.7188 25.7813H37.5C37.932 25.7813 38.2812 25.4321 38.2812 25V20.3125C38.2812 19.8805 37.932 19.5313 37.5 19.5313H12.5C12.068 19.5313 11.7188 19.8805 11.7188 20.3125V25C11.7188 25.4321 12.068 25.7813 12.5 25.7813H13.2812V28.125H1.5625V14.8438H48.4375V28.125H36.7188V25.7813ZM46.3914 13.2813H3.60859C16.8742 5.87974 33.1258 5.87974 46.3914 13.2813ZM1.5625 29.6875H13.2812V48.4375H1.5625V29.6875ZM14.8438 28.9063V25.7813H35.1562V28.9063V48.4375H31.25V38.2813H32.0312C32.4633 38.2813 32.8125 37.9321 32.8125 37.5V34.375C32.8125 33.943 32.4633 33.5938 32.0312 33.5938H17.9688C17.5367 33.5938 17.1875 33.943 17.1875 34.375V37.5C17.1875 37.9321 17.5367 38.2813 17.9688 38.2813H18.75V48.4375H14.8438V28.9063ZM18.75 36.7188V35.1563H31.25V36.7188H30.4688H19.5312H18.75ZM20.3125 48.4375V38.2813H29.6875V48.4375H20.3125ZM48.4375 48.4375H36.7188V29.6875H48.4375V48.4375Z" fill="white"/>
<path d="M47.6562 16.4062H46.0938V17.9688H47.6562V16.4062Z" fill="white"/>
<path d="M44.5312 16.4062H42.9688V17.9688H44.5312V16.4062Z" fill="white"/>
<path d="M41.4062 16.4062H39.8438V17.9688H41.4062V16.4062Z" fill="white"/>
<path d="M38.2812 16.4062H36.7188V17.9688H38.2812V16.4062Z" fill="white"/>
<path d="M35.1562 16.4062H33.5938V17.9688H35.1562V16.4062Z" fill="white"/>
<path d="M32.0312 16.4062H30.4688V17.9688H32.0312V16.4062Z" fill="white"/>
<path d="M28.9062 16.4062H27.3438V17.9688H28.9062V16.4062Z" fill="white"/>
<path d="M25.7812 16.4062H24.2188V17.9688H25.7812V16.4062Z" fill="white"/>
<path d="M22.6562 16.4062H21.0938V17.9688H22.6562V16.4062Z" fill="white"/>
<path d="M19.5312 16.4062H17.9688V17.9688H19.5312V16.4062Z" fill="white"/>
<path d="M16.4062 16.4062H14.8438V17.9688H16.4062V16.4062Z" fill="white"/>
<path d="M13.2812 16.4062H11.7188V17.9688H13.2812V16.4062Z" fill="white"/>
<path d="M10.1562 16.4062H8.59375V17.9688H10.1562V16.4062Z" fill="white"/>
<path d="M7.03125 16.4062H5.46875V17.9688H7.03125V16.4062Z" fill="white"/>
<path d="M3.90625 16.4062H2.34375V17.9688H3.90625V16.4062Z" fill="white"/>
</g>
<defs>
<clipPath id="clip0">
<rect width="50" height="50" fill="white"/>
</clipPath>
</defs>
</svg>
