<?xml version="1.0" encoding="utf-8"?>
<svg width="143px" height="108px" viewBox="0 0 143 108" fill="none" xmlns="http://www.w3.org/2000/svg">
  <path d="M 43.194 21.417 C 19.335 21.417 0 40.753 0 64.612 C 0 88.471 19.35 107.821 43.209 107.821 C 67.068 107.821 86.418 88.471 86.418 64.612 C 86.418 40.753 67.068 21.417 43.194 21.417 Z M 43.194 95.684 C 26.032 95.684 12.122 81.774 12.122 64.612 C 12.122 47.449 26.032 33.539 43.194 33.539 C 60.357 33.539 74.267 47.449 74.267 64.612 C 74.267 81.774 60.357 95.684 43.194 95.684 Z" fill="#6DB0FF"/>
  <path d="M 122.198 0 C 110.811 0 101.583 9.228 101.583 20.616 C 101.583 32.003 110.818 41.238 122.205 41.238 C 133.593 41.238 142.828 32.003 142.828 20.616 C 142.828 9.228 133.593 0 122.198 0 Z M 122.198 35.446 C 114.007 35.446 107.368 28.807 107.368 20.616 C 107.368 12.424 114.007 5.785 122.198 5.785 C 130.39 5.785 137.028 12.424 137.028 20.616 C 137.028 28.807 130.39 35.446 122.198 35.446 Z" fill="#F2642B"/>
</svg>