<svg width="17" height="26" viewBox="0 0 17 26" fill="none" xmlns="http://www.w3.org/2000/svg">
<path d="M1.06348 2.02634V6.15935C1.06348 6.44386 1.17231 6.70748 1.3489 6.84951L8.56029 12.6643C8.94057 12.9713 8.94057 13.7381 8.56029 14.0451L1.3489 19.8599C1.17231 20.0023 1.06348 20.2655 1.06348 20.55V24.683C1.06348 25.2964 1.53907 25.6801 1.91943 25.3731L15.9679 14.0451C16.3482 13.7381 16.3482 12.9713 15.9679 12.6643L1.91943 1.33574C1.53907 1.02928 1.06348 1.41244 1.06348 2.02634Z" fill="white"/>
<path d="M15.9677 12.6637L1.91914 1.33519C1.85033 1.27937 1.77826 1.25347 1.70618 1.24048L15.254 12.1649C15.6344 12.4719 15.6344 13.2387 15.254 13.5457L1.2056 24.8743C1.1699 24.9032 1.13246 24.9201 1.0957 24.9371C1.2056 25.3925 1.5956 25.6337 1.91914 25.3726L15.9677 14.0446C16.3483 13.7376 16.3483 12.9702 15.9677 12.6637Z" fill="white"/>
<path d="M1.06348 2.02634V6.15935C1.06348 6.44386 1.17231 6.70748 1.3489 6.84951L8.56029 12.6643C8.94057 12.9713 8.94057 13.7381 8.56029 14.0451L1.3489 19.8599C1.17231 20.0023 1.06348 20.2655 1.06348 20.55V24.683C1.06348 25.2964 1.53907 25.6801 1.91943 25.3731L15.9679 14.0451C16.3482 13.7381 16.3482 12.9713 15.9679 12.6643L1.91943 1.33574C1.53907 1.02928 1.06348 1.41244 1.06348 2.02634Z" stroke="white" stroke-miterlimit="10"/>
</svg>
