<svg width="65" height="65" viewBox="0 0 65 65" fill="none" xmlns="http://www.w3.org/2000/svg">
<g clip-path="url(#clip0_2_1000)">
<path d="M61.5225 0.255005H3.47949C1.70215 0.255005 0.254883 1.70795 0.254883 3.49226V48.8138C0.254883 50.5981 1.70215 52.0511 3.47949 52.0511H24.7568C25.4678 52.0511 26.0518 52.6246 26.0518 53.3511V57.2256C26.0518 57.9393 25.4805 58.5256 24.7568 58.5256H14.4355C13.7246 58.5256 13.1406 59.0991 13.1406 59.8256V63.7129C13.1406 64.4266 13.7119 65.0129 14.4355 65.0129H50.5537C51.2646 65.0129 51.8486 64.4393 51.8486 63.7129V59.8256C51.8486 59.1119 51.2773 58.5256 50.5537 58.5256H40.2451C39.5342 58.5256 38.9502 57.9521 38.9502 57.2256V53.3383C38.9502 52.6246 39.5215 52.0383 40.2451 52.0383H61.5225C63.2998 52.0383 64.7471 50.5854 64.7471 48.8011V3.49226C64.7471 1.70795 63.2998 0.255005 61.5225 0.255005ZM58.2979 39.1021H6.7041V6.72952H58.2979V39.1021Z" fill="#F44F0C"/>
</g>
<defs>
<clipPath id="clip0_2_1000">
<rect width="65" height="65" fill="white"/>
</clipPath>
</defs>
</svg>
