<svg width="65" height="65" viewBox="0 0 65 65" fill="none" xmlns="http://www.w3.org/2000/svg">
<g clip-path="url(#clip0_2_1012)">
<path d="M32.4873 13.2039C36.0491 13.2039 38.9365 10.3052 38.9365 6.72939C38.9365 3.15362 36.0491 0.254883 32.4873 0.254883C28.9255 0.254883 26.0381 3.15362 26.0381 6.72939C26.0381 10.3052 28.9255 13.2039 32.4873 13.2039Z" fill="#F44F0C"/>
<path d="M38.9365 16.4412H26.0381C24.2607 16.4412 22.8135 17.8941 22.8135 19.6784V37.802C22.8135 38.5157 23.3848 39.1019 24.1084 39.1019H24.832C25.543 39.1019 26.0381 39.6755 26.0381 40.402V54.001C26.0381 54.7147 26.6094 55.301 27.333 55.301H37.6543C38.3652 55.301 38.9492 54.7274 38.9492 54.001V40.402C38.9492 39.6882 39.5205 39.1019 40.2441 39.1019H40.8916C41.6025 39.1019 42.1865 38.5284 42.1865 37.802V19.6784C42.1611 17.8941 40.7139 16.4412 38.9365 16.4412Z" fill="#F44F0C"/>
<path d="M60.4424 52.2423L56.9004 55.7982L50.3242 49.1962C49.8164 48.6864 49.0039 48.6864 48.4961 49.1962L45.7666 51.9364C45.2588 52.4462 45.2588 53.2619 45.7666 53.7717L52.3428 60.3737L48.8262 63.904C48.4199 64.3119 48.7119 65.0001 49.2832 65.0001H60.8994C61.2549 65.0001 61.5469 64.707 61.5469 64.3629V52.7011C61.5342 52.1276 60.8486 51.8344 60.4424 52.2423Z" fill="#F44F0C"/>
<path d="M60.8994 26.153H49.2832C48.7119 26.153 48.4199 26.8412 48.8262 27.249L52.3428 30.7794L45.7666 37.3814C45.2588 37.8912 45.2588 38.7069 45.7666 39.2167L48.4961 41.9569C49.0039 42.4667 49.8164 42.4667 50.3242 41.9569L56.9004 35.3549L60.4424 38.9108C60.8486 39.3186 61.5342 39.0255 61.5342 38.452V26.7902C61.5342 26.4461 61.2549 26.153 60.8994 26.153Z" fill="#F44F0C"/>
<path d="M16.5039 49.1962C15.9961 48.6864 15.1836 48.6864 14.6758 49.1962L8.09961 55.7982L4.55762 52.2423C4.15137 51.8344 3.46582 52.1276 3.46582 52.7011V64.3629C3.46582 64.7197 3.75781 65.0001 4.11328 65.0001H15.7295C16.3008 65.0001 16.5928 64.3119 16.1865 63.904L12.6699 60.3737L19.2461 53.7717C19.7539 53.2619 19.7539 52.4462 19.2461 51.9364L16.5039 49.1962Z" fill="#F44F0C"/>
<path d="M12.6572 30.7794L16.1738 27.249C16.5801 26.8412 16.2881 26.153 15.7168 26.153H4.10059C3.74512 26.153 3.45312 26.4461 3.45312 26.7902V38.452C3.45312 39.0255 4.15137 39.3059 4.54492 38.9108L8.08691 35.3549L14.6631 41.9569C15.1709 42.4667 15.9834 42.4667 16.4912 41.9569L19.2207 39.2167C19.7285 38.7069 19.7285 37.8912 19.2207 37.3814L12.6572 30.7794Z" fill="#F44F0C"/>
</g>
<defs>
<clipPath id="clip0_2_1012">
<rect width="65" height="65" fill="white"/>
</clipPath>
</defs>
</svg>
