<svg width="65" height="65" viewBox="0 0 65 65" fill="none" xmlns="http://www.w3.org/2000/svg">
<g clip-path="url(#clip0_2_1030)">
<path d="M61.5229 0.255005H48.6244C47.3168 0.255005 46.1488 1.0452 45.641 2.25599C45.1459 3.46677 45.4125 4.85599 46.3393 5.78638L50.516 9.97952L32.6283 28.0521L21.8627 17.3717C20.6947 16.2119 18.8539 16.1227 17.5844 17.1423L1.46135 30.0913C0.0648645 31.2129 -0.150956 33.2393 0.953536 34.6413C1.5883 35.4442 2.52776 35.8521 3.46721 35.8521C4.17815 35.8521 4.88908 35.6227 5.48576 35.1383L19.3744 23.9864L30.3813 34.9089C31.6508 36.1579 33.6821 36.158 34.9389 34.8834L55.0737 14.5295L59.2377 18.7099C62.9955 21.6285 64.7475 17.7285 64.7475 16.4158V3.49226C64.7475 1.70795 63.3002 0.255005 61.5229 0.255005Z" fill="#F44F0C"/>
<path d="M6.70313 42.3392C4.92578 42.3392 3.47852 43.7921 3.47852 45.5764V61.7627C3.47852 63.547 4.92578 65 6.70313 65C8.48047 65 9.92773 63.547 9.92773 61.7627V45.5764C9.92773 43.7921 8.48047 42.3392 6.70313 42.3392Z" fill="#F44F0C"/>
<path d="M19.6016 32.6276C17.8242 32.6276 16.377 34.0805 16.377 35.8648V61.7629C16.377 63.5472 17.8242 65.0001 19.6016 65.0001C21.3789 65.0001 22.8262 63.5472 22.8262 61.7629V35.8648C22.8262 34.0805 21.3789 32.6276 19.6016 32.6276Z" fill="#F44F0C"/>
<path d="M32.5 45.5766C30.7227 45.5766 29.2754 47.0296 29.2754 48.8139V61.7629C29.2754 63.5472 30.7227 65.0002 32.5 65.0002C34.2773 65.0002 35.7246 63.5472 35.7246 61.7629V48.8139C35.7246 47.0296 34.2773 45.5766 32.5 45.5766Z" fill="#F44F0C"/>
<path d="M45.3984 35.8648C43.6211 35.8648 42.1738 37.3177 42.1738 39.102V61.7628C42.1738 63.5471 43.6211 65.0001 45.3984 65.0001C47.1758 65.0001 48.623 63.5471 48.623 61.7628V39.102C48.623 37.3177 47.1758 35.8648 45.3984 35.8648Z" fill="#F44F0C"/>
<path d="M58.2969 26.153C56.5195 26.153 55.0723 27.6059 55.0723 29.3902V61.7628C55.0723 63.5471 56.5195 65 58.2969 65C60.0742 65 61.5215 63.5471 61.5215 61.7628V29.3902C61.5215 27.6059 60.0742 26.153 58.2969 26.153Z" fill="#F44F0C"/>
</g>
<defs>
<clipPath id="clip0_2_1030">
<rect width="65" height="65" fill="white"/>
</clipPath>
</defs>
</svg>
