<svg width="144" height="109" viewBox="0 0 144 109" fill="none" xmlns="http://www.w3.org/2000/svg">
<path d="M43.9922 21.4175C20.1333 21.4175 0.797852 40.7529 0.797852 64.6118C0.797852 88.4707 20.1481 107.821 44.007 107.821C67.8659 107.821 87.2161 88.4707 87.2161 64.6118C87.2161 40.7529 67.8659 21.4175 43.9922 21.4175ZM43.9922 95.6846C26.8298 95.6846 12.9195 81.7743 12.9195 64.6118C12.9195 47.4494 26.8298 33.5391 43.9922 33.5391C61.1546 33.5391 75.0649 47.4494 75.0649 64.6118C75.0649 81.7743 61.1546 95.6846 43.9922 95.6846Z" fill="#6DB0FF"/>
<path d="M122.996 0C111.609 0 102.381 9.22829 102.381 20.6155C102.381 32.0027 111.616 41.238 123.003 41.238C134.391 41.238 143.626 32.0027 143.626 20.6155C143.626 9.22829 134.391 0 122.996 0ZM122.996 35.4457C114.805 35.4457 108.166 28.8067 108.166 20.6155C108.166 12.4243 114.805 5.78532 122.996 5.78532C131.188 5.78532 137.826 12.4243 137.826 20.6155C137.826 28.8067 131.188 35.4457 122.996 35.4457Z" fill="#F2642B"/>
</svg>
