<?xml version="1.0" encoding="utf-8"?>
<svg width="288" height="18" viewBox="0 0 288 18" fill="none" xmlns="http://www.w3.org/2000/svg">
  <rect x="288" y="7.76611" width="6.12766" height="0.711277" transform="rotate(90 288 7.76611)" fill="#D7E0EF"/>
  <rect x="0.711914" y="7.76611" width="6.12766" height="0.711277" transform="rotate(90 0.711914 7.76611)" fill="#D7E0EF"/>
  <rect y="10.489" width="110" height="0.681" fill="#D7E0EF"/>
  <path d="M120.454 12.53C120.804 12.53 121.098 12.488 121.336 12.404C121.574 12.32 121.763 12.208 121.903 12.068C122.048 11.928 122.15 11.7647 122.211 11.578C122.276 11.3913 122.309 11.193 122.309 10.983C122.309 10.7637 122.274 10.5677 122.204 10.395C122.134 10.2177 122.024 10.0683 121.875 9.947C121.726 9.821 121.532 9.72533 121.294 9.66C121.061 9.59467 120.778 9.562 120.447 9.562L118.55 9.562L118.55 12.53L120.454 12.53ZM118.55 5.334L118.55 8.26L120.048 8.26C120.692 8.26 121.177 8.14333 121.504 7.91C121.835 7.67667 122.001 7.30567 122.001 6.797C122.001 6.26967 121.852 5.894 121.553 5.67C121.254 5.446 120.788 5.334 120.153 5.334L118.55 5.334ZM120.153 3.878C120.816 3.878 121.383 3.941 121.854 4.067C122.325 4.193 122.71 4.37267 123.009 4.606C123.312 4.83933 123.534 5.12167 123.674 5.453C123.814 5.78433 123.884 6.15767 123.884 6.573C123.884 6.811 123.849 7.03967 123.779 7.259C123.709 7.47367 123.599 7.67667 123.45 7.868C123.305 8.05467 123.119 8.225 122.89 8.379C122.666 8.533 122.398 8.66367 122.085 8.771C123.476 9.08367 124.171 9.835 124.171 11.025C124.171 11.4543 124.089 11.851 123.926 12.215C123.763 12.579 123.525 12.894 123.212 13.16C122.899 13.4213 122.514 13.6267 122.057 13.776C121.6 13.9253 121.077 14 120.489 14L116.667 14L116.667 3.878L120.153 3.878ZM128.405 12.761C128.797 12.761 129.089 12.663 129.28 12.467C129.476 12.271 129.574 12.019 129.574 11.711C129.574 11.5803 129.551 11.4543 129.504 11.333C129.462 11.2117 129.394 11.1043 129.301 11.011C129.208 10.9177 129.086 10.8453 128.937 10.794C128.788 10.738 128.608 10.71 128.398 10.71L127.117 10.71L127.117 12.761L128.405 12.761ZM128.391 9.478C128.89 9.478 129.313 9.53867 129.658 9.66C130.003 9.78133 130.283 9.94467 130.498 10.15C130.713 10.3553 130.867 10.5933 130.96 10.864C131.058 11.13 131.107 11.41 131.107 11.704C131.107 12.04 131.046 12.3503 130.925 12.635C130.808 12.915 130.633 13.1577 130.4 13.363C130.171 13.5637 129.889 13.72 129.553 13.832C129.222 13.944 128.841 14 128.412 14L125.472 14L125.472 6.818L127.117 6.818L127.117 9.478L128.391 9.478ZM134.145 6.818L134.145 14L132.416 14L132.416 6.818L134.145 6.818ZM137.578 12.138C137.774 12.376 137.986 12.544 138.215 12.642C138.448 12.74 138.7 12.789 138.971 12.789C139.232 12.789 139.468 12.74 139.678 12.642C139.888 12.544 140.065 12.3947 140.21 12.194C140.359 11.9933 140.474 11.7413 140.553 11.438C140.632 11.13 140.672 10.7683 140.672 10.353C140.672 9.933 140.637 9.57833 140.567 9.289C140.502 8.995 140.406 8.757 140.28 8.575C140.154 8.393 140 8.26 139.818 8.176C139.641 8.092 139.438 8.05 139.209 8.05C138.85 8.05 138.544 8.127 138.292 8.281C138.04 8.43033 137.802 8.64267 137.578 8.918L137.578 12.138ZM137.487 7.798C137.781 7.46667 138.115 7.19833 138.488 6.993C138.861 6.78767 139.3 6.685 139.804 6.685C140.196 6.685 140.553 6.76667 140.875 6.93C141.202 7.09333 141.482 7.33133 141.715 7.644C141.953 7.952 142.135 8.33467 142.261 8.792C142.392 9.24467 142.457 9.765 142.457 10.353C142.457 10.8897 142.385 11.3867 142.24 11.844C142.095 12.3013 141.888 12.698 141.617 13.034C141.351 13.37 141.027 13.6337 140.644 13.825C140.266 14.0117 139.841 14.105 139.37 14.105C138.969 14.105 138.626 14.0443 138.341 13.923C138.056 13.797 137.802 13.6243 137.578 13.405L137.578 16.345L135.849 16.345L135.849 6.818L136.906 6.818C137.13 6.818 137.277 6.923 137.347 7.133L137.487 7.798ZM150.111 6.818L146.198 15.974C146.147 16.0953 146.079 16.1863 145.995 16.247C145.916 16.3123 145.792 16.345 145.624 16.345L144.336 16.345L145.68 13.461L142.775 6.818L144.294 6.818C144.43 6.818 144.535 6.85067 144.609 6.916C144.689 6.98133 144.747 7.056 144.784 7.14L146.31 10.864C146.362 10.99 146.404 11.116 146.436 11.242C146.474 11.368 146.509 11.4963 146.541 11.627C146.583 11.4963 146.625 11.368 146.667 11.242C146.709 11.1113 146.756 10.983 146.807 10.857L148.249 7.14C148.287 7.04667 148.347 6.96967 148.431 6.909C148.52 6.84833 148.618 6.818 148.725 6.818L150.111 6.818ZM156.64 6.818L156.64 14L154.911 14L154.911 11.179C154.295 11.3283 153.724 11.4147 153.196 11.438C152.669 11.4567 152.212 11.3937 151.824 11.249C151.442 11.0997 151.141 10.8593 150.921 10.528C150.707 10.1967 150.599 9.75566 150.599 9.205L150.599 6.818L152.328 6.818L152.328 8.939C152.328 9.233 152.375 9.471 152.468 9.653C152.566 9.83033 152.718 9.95866 152.923 10.038C153.133 10.1173 153.402 10.15 153.728 10.136C154.055 10.122 154.449 10.0683 154.911 9.975L154.911 6.818L156.64 6.818ZM162.644 7.273C162.728 7.13766 162.842 7.028 162.987 6.944C163.132 6.86 163.286 6.818 163.449 6.818L164.807 6.818L163.134 9.485C163.017 9.67166 162.898 9.82333 162.777 9.94C162.656 10.052 162.509 10.1407 162.336 10.206C162.569 10.276 162.761 10.381 162.91 10.521C163.059 10.6563 163.195 10.829 163.316 11.039L164.996 14L163.799 14C163.496 14 163.26 13.9487 163.092 13.846C162.924 13.7433 162.782 13.5963 162.665 13.405L161.608 11.417C161.515 11.2443 161.393 11.116 161.244 11.032C161.099 10.948 160.929 10.906 160.733 10.906L160.082 10.906L160.082 14L158.353 14L158.353 6.818L160.082 6.818L160.082 9.779L160.642 9.779C160.838 9.779 160.994 9.744 161.111 9.674C161.232 9.59933 161.335 9.48733 161.419 9.338L162.644 7.273ZM169.749 10.934C169.249 10.9573 168.829 11.0017 168.489 11.067C168.148 11.1277 167.875 11.207 167.67 11.305C167.464 11.403 167.317 11.5173 167.229 11.648C167.14 11.7787 167.096 11.921 167.096 12.075C167.096 12.3783 167.184 12.5953 167.362 12.726C167.544 12.8567 167.779 12.922 168.069 12.922C168.423 12.922 168.729 12.859 168.986 12.733C169.247 12.6023 169.501 12.4063 169.749 12.145L169.749 10.934ZM165.787 7.819C166.613 7.063 167.607 6.685 168.769 6.685C169.189 6.685 169.564 6.755 169.896 6.895C170.227 7.03033 170.507 7.22166 170.736 7.469C170.964 7.71166 171.137 8.00333 171.254 8.344C171.375 8.68466 171.436 9.058 171.436 9.464L171.436 14L170.652 14C170.488 14 170.362 13.9767 170.274 13.93C170.185 13.8787 170.115 13.7783 170.064 13.629L169.91 13.111C169.728 13.2743 169.55 13.419 169.378 13.545C169.205 13.6663 169.025 13.769 168.839 13.853C168.652 13.937 168.451 14 168.237 14.042C168.027 14.0887 167.793 14.112 167.537 14.112C167.233 14.112 166.953 14.0723 166.697 13.993C166.44 13.909 166.218 13.7853 166.032 13.622C165.845 13.4587 165.7 13.2557 165.598 13.013C165.495 12.7703 165.444 12.488 165.444 12.166C165.444 11.984 165.474 11.8043 165.535 11.627C165.595 11.445 165.693 11.2723 165.829 11.109C165.969 10.9457 166.148 10.7917 166.368 10.647C166.587 10.5023 166.855 10.3763 167.173 10.269C167.495 10.1617 167.868 10.0753 168.293 10.01C168.717 9.94 169.203 9.898 169.749 9.884L169.749 9.464C169.749 8.98333 169.646 8.62866 169.441 8.4C169.235 8.16666 168.939 8.05 168.552 8.05C168.272 8.05 168.038 8.08266 167.852 8.148C167.67 8.21333 167.509 8.288 167.369 8.372C167.229 8.45133 167.1 8.52366 166.984 8.589C166.872 8.65433 166.746 8.687 166.606 8.687C166.484 8.687 166.382 8.65666 166.298 8.596C166.214 8.53066 166.146 8.456 166.095 8.372L165.787 7.819Z" fill="#D7E0EF"/>
  <rect y="10.5" width="110" height="0.681" fill="#D7E0EF" x="178"/>
</svg>