<svg width="53" height="807" viewBox="0 0 53 807" fill="none" xmlns="http://www.w3.org/2000/svg">
<rect x="28" y="807" width="807" height="2.00004" transform="rotate(-90 28 807)" fill="#D7E0EF"/>
<rect x="6" y="292" width="47" height="217" fill="white"/>
<rect x="20" width="18" height="2" fill="#D7E0EF"/>
<rect x="20" y="805" width="18" height="2" fill="#D7E0EF"/>
<path d="M9.584 486.813C9.584 482.618 10.1707 479.45 11.344 477.309C12.5173 475.168 14.5853 474.097 17.548 474.097C19.3373 474.097 20.848 474.522 22.08 475.373C23.312 476.194 24.06 477.382 24.324 478.937L24.544 478.937C24.7493 477.881 25.116 476.928 25.644 476.077C26.172 475.226 26.9347 474.552 27.932 474.053C28.9293 473.554 30.2493 473.305 31.892 473.305C34.7373 473.305 36.9667 474.332 38.58 476.385C40.1933 478.438 41 481.254 41 484.833L41 496.581L9.584 496.581L9.584 486.813ZM22.036 486.065C22.036 484.129 21.728 482.794 21.112 482.061C20.496 481.298 19.6013 480.917 18.428 480.917C17.2253 480.917 16.36 481.357 15.832 482.237C15.304 483.117 15.04 484.51 15.04 486.417L15.04 489.937L22.036 489.937L22.036 486.065ZM27.316 489.937L35.5 489.937L35.5 485.581C35.5 483.586 35.1187 482.193 34.356 481.401C33.564 480.609 32.5227 480.213 31.232 480.213C30.0587 480.213 29.12 480.624 28.416 481.445C27.6827 482.237 27.316 483.689 27.316 485.801L27.316 489.937ZM41 467.547L16.976 467.547L16.976 460.991L26.26 460.991L26.26 457.823C26.26 454.156 26.8467 451.443 28.02 449.683C29.1933 447.923 30.968 447.043 33.344 447.043C35.6613 447.043 37.524 447.864 38.932 449.507C40.3107 451.149 41 453.848 41 457.603L41 467.547ZM41 443.567L16.976 443.567L16.976 437.011L41 437.011L41 443.567ZM36.468 457.955C36.468 456.664 36.2333 455.623 35.764 454.831C35.2947 454.009 34.5173 453.599 33.432 453.599C31.672 453.599 30.792 455.08 30.792 458.043L30.792 460.991L36.468 460.991L36.468 457.955ZM16.536 416.788C16.536 414.089 17.592 411.904 19.704 410.232C21.7867 408.56 24.8667 407.724 28.944 407.724C33.0213 407.724 36.1307 408.589 38.272 410.32C40.384 412.05 41.44 414.265 41.44 416.964C41.44 418.694 41.132 420.073 40.516 421.1C39.8707 422.126 39.152 422.962 38.36 423.608L38.36 423.96C39.592 423.725 40.7653 423.608 41.88 423.608L51.56 423.608L51.56 430.164L16.976 430.164L16.976 424.84L20.1 423.916L20.1 423.608C19.132 422.962 18.296 422.097 17.592 421.012C16.888 419.926 16.536 418.518 16.536 416.788ZM21.772 418.9C21.772 420.601 22.3 421.804 23.356 422.508C24.412 423.182 26.0253 423.549 28.196 423.608L28.9 423.608C31.2173 423.608 33.0067 423.27 34.268 422.596C35.5 421.892 36.116 420.63 36.116 418.812C36.116 417.316 35.5 416.216 34.268 415.512C33.0067 414.778 31.2027 414.412 28.856 414.412C24.1333 414.412 21.772 415.908 21.772 418.9ZM16.976 406.182L16.976 399.01L30.484 394.478C31.1293 394.243 31.804 394.067 32.508 393.95C33.1827 393.832 33.9013 393.744 34.664 393.686L34.664 393.554C33.9013 393.466 33.1827 393.348 32.508 393.202C31.804 393.026 31.1293 392.835 30.484 392.63L16.976 388.186L16.976 381.146L44.08 391.31C46.5733 392.219 48.436 393.554 49.668 395.314C50.9293 397.044 51.56 399.054 51.56 401.342C51.56 402.075 51.516 402.72 51.428 403.278C51.3693 403.806 51.296 404.275 51.208 404.686L46.016 404.686C46.0747 404.363 46.1333 403.982 46.192 403.542C46.2507 403.072 46.28 402.588 46.28 402.09C46.28 400.711 45.8547 399.626 45.004 398.834C44.1827 398.012 43.1853 397.411 42.012 397.03L40.824 396.634L16.976 406.182ZM25.776 371.935C27.8587 371.935 28.9 370.967 28.9 369.031C28.9 367.77 28.768 366.596 28.504 365.511C28.2107 364.426 27.8293 363.34 27.36 362.255L16.976 362.255L16.976 355.699L41 355.699L41 362.255L31.452 362.255C32.0093 363.282 32.5227 364.455 32.992 365.775C33.432 367.095 33.652 368.591 33.652 370.263C33.652 372.756 33.0067 374.751 31.716 376.247C30.4253 377.743 28.4893 378.491 25.908 378.491L16.976 378.491L16.976 371.935L25.776 371.935ZM16.976 333.072L16.976 325.856L28.504 335.36L41 325.02L41 332.456L28.812 342.268L41 342.268L41 348.824L16.976 348.824L16.976 342.268L28.636 342.268L16.976 333.072ZM16.492 311.726C16.492 308.499 17.196 306.035 18.604 304.334C19.9827 302.603 22.1093 301.738 24.984 301.738L41 301.738L41 306.314L37.744 307.59L37.744 307.766C39.0347 308.792 39.9733 309.878 40.56 311.022C41.1467 312.166 41.44 313.735 41.44 315.73C41.44 317.871 40.824 319.646 39.592 321.054C38.3307 322.462 36.4093 323.166 33.828 323.166C31.276 323.166 29.3987 322.271 28.196 320.482C26.964 318.692 26.2893 316.008 26.172 312.43L26.04 308.25L24.984 308.25C23.7227 308.25 22.7987 308.587 22.212 309.262C21.6253 309.907 21.332 310.816 21.332 311.99C21.332 313.163 21.508 314.307 21.86 315.422C22.1827 316.536 22.5933 317.651 23.092 318.766L18.648 320.922C17.9733 319.631 17.4453 318.208 17.064 316.654C16.6827 315.07 16.492 313.427 16.492 311.726ZM29.956 310.802C30.0147 312.914 30.396 314.38 31.1 315.202C31.804 316.023 32.728 316.434 33.872 316.434C34.8693 316.434 35.588 316.14 36.028 315.554C36.4387 314.967 36.644 314.204 36.644 313.266C36.644 311.858 36.2333 310.67 35.412 309.702C34.5613 308.734 33.3733 308.25 31.848 308.25L29.868 308.25L29.956 310.802Z" fill="#D7E0EF"/>
</svg>
