<svg width="350" height="78" viewBox="0 0 350 78" fill="none" xmlns="http://www.w3.org/2000/svg">
<path d="M0 54H16.4706V78H10C4.47716 78 0 73.5228 0 68V54Z" fill="#D2E4FF"/>
<rect x="18.5293" y="54" width="16.4706" height="24" fill="#D2E4FF"/>
<rect x="37.0586" y="54" width="16.4706" height="24" fill="#D2E4FF"/>
<rect x="55.5879" y="54" width="16.4706" height="24" fill="#D2E4FF"/>
<rect x="74.1172" y="54" width="16.4706" height="24" fill="#D2E4FF"/>
<rect x="92.6475" y="54" width="16.4706" height="24" fill="#D2E4FF"/>
<rect x="111.177" y="54" width="16.4706" height="24" fill="#D2E4FF"/>
<rect x="129.706" y="54" width="16.4706" height="24" fill="#D2E4FF"/>
<rect x="148.235" y="54" width="16.4706" height="24" fill="#D2E4FF"/>
<rect x="166.765" y="54" width="16.4706" height="24" fill="#D2E4FF"/>
<rect x="185.294" y="54" width="16.4706" height="24" fill="#D2E4FF"/>
<rect x="203.823" y="54" width="16.4706" height="24" fill="#D2E4FF"/>
<rect x="222.353" y="54" width="16.4706" height="24" fill="#D2E4FF"/>
<rect x="315" y="54" width="16.4706" height="24" fill="#D2E4FF"/>
<rect x="296.471" y="54.0005" width="16.4706" height="24" fill="#D2E4FF"/>
<rect x="240.883" y="54.0005" width="16.4706" height="24" fill="#D2E4FF"/>
<rect x="259.412" y="54" width="16.4706" height="24" fill="#D2E4FF"/>
<rect x="277.941" y="54.0005" width="16.4706" height="24" fill="#D2E4FF"/>
<path d="M333.529 54H350V68C350 73.5228 345.523 78 340 78H333.529V54Z" fill="#D2E4FF"/>
<rect y="26.9492" width="16.4706" height="24" fill="#D2E4FF"/>
<rect x="18.5293" y="26.9492" width="16.4706" height="24" fill="#D2E4FF"/>
<rect x="37.0586" y="26.9492" width="16.4706" height="24" fill="#D2E4FF"/>
<rect x="55.5879" y="26.9492" width="16.4706" height="24" fill="#D2E4FF"/>
<rect x="74.1172" y="26.9492" width="16.4706" height="24" fill="#D2E4FF"/>
<rect x="92.6475" y="26.9492" width="16.4706" height="24" fill="#D2E4FF"/>
<rect x="111.177" y="26.9492" width="16.4706" height="24" fill="#D2E4FF"/>
<rect x="129.706" y="26.9492" width="16.4706" height="24" fill="#D2E4FF"/>
<rect x="148.235" y="26.9492" width="16.4706" height="24" fill="#D2E4FF"/>
<rect x="166.765" y="26.9492" width="16.4706" height="24" fill="#D2E4FF"/>
<rect x="185.294" y="26.9492" width="16.4706" height="24" fill="#D2E4FF"/>
<rect x="203.823" y="26.9492" width="16.4706" height="24" fill="#D2E4FF"/>
<rect x="222.353" y="26.9492" width="16.4706" height="24" fill="#D2E4FF"/>
<rect x="240.883" y="26.9492" width="16.4706" height="24" fill="#D2E4FF"/>
<rect x="259.412" y="26.9492" width="16.4706" height="24" fill="#D2E4FF"/>
<rect x="277.941" y="26.9492" width="16.4706" height="24" fill="#D2E4FF"/>
<rect x="296.471" y="26.9492" width="16.4706" height="24" fill="#D2E4FF"/>
<rect x="315" y="26.9492" width="16.4706" height="24" fill="#D2E4FF"/>
<rect x="333.529" y="26.9492" width="16.4706" height="24" fill="#D2E4FF"/>
<rect x="18.5293" width="16.4706" height="24" fill="#D2E4FF"/>
<rect x="37.0586" width="16.4706" height="24" fill="#D2E4FF"/>
<rect x="55.5879" width="16.4706" height="24" fill="#D2E4FF"/>
<rect x="74.1172" width="16.4706" height="24" fill="#D2E4FF"/>
<rect x="92.6465" width="16.4706" height="24" fill="#D2E4FF"/>
<rect x="111.177" width="16.4706" height="24" fill="#D2E4FF"/>
<rect x="129.706" width="16.4706" height="24" fill="#D2E4FF"/>
<rect x="148.235" width="16.4706" height="24" fill="#D2E4FF"/>
<rect x="166.765" width="16.4706" height="24" fill="#D2E4FF"/>
<rect x="185.294" width="16.4706" height="24" fill="#D2E4FF"/>
<rect x="203.823" width="16.4706" height="24" fill="#D2E4FF"/>
<rect x="222.353" width="16.4706" height="24" fill="#D2E4FF"/>
<rect x="240.882" width="16.4706" height="24" fill="#D2E4FF"/>
<rect x="259.412" width="16.4706" height="24" fill="#D2E4FF"/>
<rect x="277.941" width="16.4706" height="24" fill="#D2E4FF"/>
<rect x="296.471" width="16.4706" height="24" fill="#D2E4FF"/>
<rect x="315" width="16.4706" height="24" fill="#D2E4FF"/>
<rect x="333.529" width="16.4706" height="24" fill="#D2E4FF"/>
</svg>
