<svg width="350" height="124" viewBox="0 0 350 124" fill="none" xmlns="http://www.w3.org/2000/svg">
<path d="M350.333 155.5H1.08564H0.333008V105L130.833 95C152.408 96.6667 247.833 74.5 247.833 74.5L268.333 64.5L313.333 37.5L350.333 1.5V155.5Z" fill="#E3EFFF"/>
<path d="M278.333 58C215.226 88.1405 172.512 94.9714 -0.575237 97.9811C-1.15336 97.9911 -1.62629 98.4883 -1.57826 99.0645L-0.754389 108.948C-0.706746 109.52 -1.15066 110.013 -1.7236 110.039C-11.6894 110.496 -4.07712 112.81 95.3329 107.114C276.17 96.7536 312.786 44.5469 337.122 15.7208C337.609 15.1434 338.522 15.3137 338.798 16.0174L339.514 17.8499C339.83 18.6563 340.951 18.708 341.339 17.9339L349.034 2.59018C349.46 1.74066 348.572 0.831777 347.713 1.23772L329.258 9.95615C328.345 10.3875 328.574 11.7463 329.578 11.8546L333.482 12.2755C334.266 12.3599 334.646 13.2586 334.138 13.8605C329.048 19.8868 307.498 44.0707 278.333 58Z" fill="#D2E4FF"/>
</svg>
