<svg width="144" height="109" viewBox="0 0 144 109" fill="none" xmlns="http://www.w3.org/2000/svg">
<path d="M43.9922 21.7983C20.1333 21.7983 0.797852 41.1338 0.797852 64.9927C0.797852 88.8516 20.1481 108.202 44.007 108.202C67.8659 108.202 87.2161 88.8516 87.2161 64.9927C87.2161 41.1338 67.8659 21.7983 43.9922 21.7983ZM43.9922 96.0654C26.8298 96.0654 12.9195 82.1551 12.9195 64.9927C12.9195 47.8303 26.8298 33.92 43.9922 33.92C61.1546 33.92 75.0649 47.8303 75.0649 64.9927C75.0649 82.1551 61.1546 96.0654 43.9922 96.0654Z" fill="#6DB0FF"/>
<path d="M122.996 0.380859C111.609 0.380859 102.381 9.60915 102.381 20.9963C102.381 32.3836 111.616 41.6189 123.003 41.6189C134.391 41.6189 143.626 32.3836 143.626 20.9963C143.626 9.60915 134.391 0.380859 122.996 0.380859ZM122.996 35.8265C114.805 35.8265 108.166 29.1875 108.166 20.9963C108.166 12.8052 114.805 6.16618 122.996 6.16618C131.188 6.16618 137.826 12.8052 137.826 20.9963C137.826 29.1875 131.188 35.8265 122.996 35.8265Z" fill="#F2642B"/>
</svg>
