<svg width="984" height="671" viewBox="0 0 984 671" fill="none" xmlns="http://www.w3.org/2000/svg">
<g clip-path="url(#clip0_371_61)">
<path d="M976.389 582.38C980.363 580.928 982.406 576.533 980.952 572.563C979.499 568.592 975.097 566.55 971.123 568.002C967.149 569.454 965.104 573.852 966.558 577.823C968.012 581.793 972.413 583.833 976.389 582.38ZM971.865 570.021C974.723 568.976 977.888 570.444 978.933 573.3C979.979 576.157 978.509 579.318 975.651 580.363C972.792 581.408 969.628 579.939 968.582 577.083C967.536 574.227 969.006 571.065 971.865 570.021Z" fill="#F2642B"/>
</g>
<g clip-path="url(#clip1_371_61)">
<path d="M946.566 665.052C954.916 662 959.208 652.766 956.154 644.423C953.1 636.08 943.85 631.788 935.5 634.84C927.149 637.891 922.854 647.133 925.908 655.476C928.962 663.819 938.21 668.105 946.566 665.052ZM937.058 639.082C943.065 636.887 949.715 639.972 951.912 645.973C954.109 651.975 951.021 658.618 945.014 660.813C939.007 663.008 932.358 659.923 930.161 653.922C927.964 647.92 931.052 641.277 937.058 639.082Z" fill="#F2642B"/>
</g>
<g clip-path="url(#clip2_371_61)">
<path d="M929.787 571.175C943.236 566.26 950.149 551.387 945.23 537.95C940.311 524.512 925.413 517.6 911.964 522.515C898.514 527.43 891.596 542.314 896.515 555.751C901.434 569.189 916.329 576.093 929.787 571.175ZM914.474 529.347C924.149 525.812 934.858 530.781 938.397 540.447C941.935 550.113 936.962 560.812 927.287 564.348C917.613 567.883 906.903 562.914 903.365 553.248C899.826 543.582 904.8 532.883 914.474 529.347Z" fill="#5096FF"/>
</g>
<path d="M99.4848 72.7225C116.298 66.5786 124.939 47.9866 118.79 31.1889C112.641 14.3912 94.0175 5.75061 77.2047 11.8944C60.3918 18.0383 51.7435 36.6445 57.8929 53.4422C64.0423 70.2399 82.6615 78.8701 99.4848 72.7225ZM80.3431 20.4352C92.4371 16.0157 105.825 22.2272 110.248 34.3103C114.672 46.3934 108.455 59.7689 96.3605 64.1883C84.2665 68.6077 70.879 62.3963 66.4556 50.3132C62.0321 38.2301 68.2491 24.8546 80.3431 20.4352Z" fill="#F2642B"/>
<g clip-path="url(#clip3_371_61)">
<path d="M21.7037 104.509C28.5259 102.016 32.0325 94.4718 29.5372 87.6557C27.042 80.8397 19.4852 77.3336 12.663 79.8266C5.84081 82.3196 2.33154 89.8695 4.82681 96.6855C7.32208 103.502 14.8773 107.004 21.7037 104.509ZM13.9365 83.2922C18.8439 81.4989 24.2763 84.0193 26.0712 88.9223C27.8661 93.8253 25.3434 99.2527 20.436 101.046C15.5285 102.839 10.0962 100.319 8.30132 95.4159C6.50639 90.5129 9.0291 85.0855 13.9365 83.2922Z" fill="#5096FF"/>
</g>
<defs>
<clipPath id="clip0_371_61">
<rect width="15.606" height="15.5952" fill="white" transform="matrix(-0.939253 0.343227 -0.343774 -0.939053 983.766 579.835)"/>
</clipPath>
<clipPath id="clip1_371_61">
<rect width="32.792" height="32.7694" fill="white" transform="matrix(-0.939252 0.343228 -0.343772 -0.939053 962.065 659.705)"/>
</clipPath>
<clipPath id="clip2_371_61">
<rect width="52.8149" height="52.7786" fill="white" transform="matrix(-0.939252 0.343228 -0.343772 -0.939053 954.75 562.562)"/>
</clipPath>
<clipPath id="clip3_371_61">
<rect width="26.7901" height="26.7717" fill="white" transform="matrix(-0.939253 0.343226 -0.343774 -0.939052 34.3662 100.14)"/>
</clipPath>
</defs>
</svg>
