<?xml version="1.0" encoding="utf-8"?>
<svg width="1685px" height="1119px" viewBox="0 0 1685 1119" fill="none" xmlns="http://www.w3.org/2000/svg">
  <g filter="url(#filter0_d_148_60)" transform="matrix(1, 0, 0, 1, -15, 0)">
    <path d="M1306.99 1056C1289.87 1056 1276 1069.87 1276 1086.99C1276 1104.11 1289.88 1118 1307 1118C1324.12 1118 1338 1104.11 1338 1086.99C1338 1069.87 1324.12 1056 1306.99 1056ZM1306.99 1109.29C1294.68 1109.29 1284.7 1099.31 1284.7 1086.99C1284.7 1074.68 1294.68 1064.7 1306.99 1064.7C1319.3 1064.7 1329.28 1074.68 1329.28 1086.99C1329.28 1099.31 1319.3 1109.29 1306.99 1109.29Z" fill="#6DB0FF"/>
  </g>
  <path d="M 1558.96 0 C 1489.94 0 1434 56.169 1434 125.479 C 1434 194.788 1489.98 251 1559 251 C 1628.02 251 1684 194.788 1684 125.479 C 1684 56.169 1628.02 0 1558.96 0 Z M 1558.96 215.744 C 1509.31 215.744 1469.071 175.335 1469.071 125.479 C 1469.071 75.622 1509.31 35.213 1558.96 35.213 C 1608.61 35.213 1648.85 75.622 1648.85 125.479 C 1648.85 175.335 1608.61 215.744 1558.96 215.744 Z" fill="#F2642B"/>
  <g filter="url(#filter1_d_148_60)" transform="matrix(1, 0, 0, 1, -15, 0)">
    <path d="M1168.48 424C1142.26 424 1121 445.259 1121 471.492C1121 497.725 1142.27 519 1168.5 519C1194.73 519 1216 497.725 1216 471.492C1216 445.259 1194.73 424 1168.48 424ZM1168.48 505.656C1149.62 505.656 1134.33 490.362 1134.33 471.492C1134.33 452.622 1149.62 437.328 1168.48 437.328C1187.35 437.328 1202.64 452.622 1202.64 471.492C1202.64 490.362 1187.35 505.656 1168.48 505.656Z" fill="#F44F0C"/>
  </g>
  <g filter="url(#filter2_d_148_60)" transform="matrix(1, 0, 0, 1, -15, 0)">
    <path d="M1018.49 647C1003.31 647 991 659.308 991 674.495C991 689.683 1003.32 702 1018.5 702C1033.68 702 1046 689.683 1046 674.495C1046 659.308 1033.68 647 1018.49 647ZM1018.49 694.275C1007.57 694.275 998.715 685.42 998.715 674.495C998.715 663.571 1007.57 654.716 1018.49 654.716C1029.41 654.716 1038.27 663.571 1038.27 674.495C1038.27 685.42 1029.41 694.275 1018.49 694.275Z" fill="#6DB0FF"/>
  </g>
  <g filter="url(#filter3_d_148_60)" transform="matrix(1, 0, 0, 1, -15, 0)">
    <path d="M84.9761 620C46.324 620 15 651.329 15 689.988C15 728.647 46.3479 760 85 760C123.652 760 155 728.647 155 689.988C155 651.329 123.652 620 84.9761 620ZM84.9761 740.335C57.1724 740.335 34.6374 717.796 34.6374 689.988C34.6374 662.18 57.1724 639.641 84.9761 639.641C112.78 639.641 135.315 662.18 135.315 689.988C135.315 717.796 112.78 740.335 84.9761 740.335Z" fill="#6DB0FF"/>
  </g>
  <defs>
    <filter id="filter0_d_148_60" x="1261" y="1045" width="92" height="92" filterUnits="userSpaceOnUse" color-interpolation-filters="sRGB">
      <feFlood flood-opacity="0" result="BackgroundImageFix"/>
      <feColorMatrix in="SourceAlpha" type="matrix" values="0 0 0 0 0 0 0 0 0 0 0 0 0 0 0 0 0 0 127 0" result="hardAlpha"/>
      <feOffset dy="4"/>
      <feGaussianBlur stdDeviation="7.5"/>
      <feColorMatrix type="matrix" values="0 0 0 0 0 0 0 0 0 0 0 0 0 0 0 0 0 0 0.05 0"/>
      <feBlend mode="normal" in2="BackgroundImageFix" result="effect1_dropShadow_148_60"/>
      <feBlend mode="normal" in="SourceGraphic" in2="effect1_dropShadow_148_60" result="shape"/>
    </filter>
    <filter id="filter1_d_148_60" x="1106" y="413" width="125" height="125" filterUnits="userSpaceOnUse" color-interpolation-filters="sRGB">
      <feFlood flood-opacity="0" result="BackgroundImageFix"/>
      <feColorMatrix in="SourceAlpha" type="matrix" values="0 0 0 0 0 0 0 0 0 0 0 0 0 0 0 0 0 0 127 0" result="hardAlpha"/>
      <feOffset dy="4"/>
      <feGaussianBlur stdDeviation="7.5"/>
      <feColorMatrix type="matrix" values="0 0 0 0 0 0 0 0 0 0 0 0 0 0 0 0 0 0 0.05 0"/>
      <feBlend mode="normal" in2="BackgroundImageFix" result="effect1_dropShadow_148_60"/>
      <feBlend mode="normal" in="SourceGraphic" in2="effect1_dropShadow_148_60" result="shape"/>
    </filter>
    <filter id="filter2_d_148_60" x="976" y="636" width="85" height="85" filterUnits="userSpaceOnUse" color-interpolation-filters="sRGB">
      <feFlood flood-opacity="0" result="BackgroundImageFix"/>
      <feColorMatrix in="SourceAlpha" type="matrix" values="0 0 0 0 0 0 0 0 0 0 0 0 0 0 0 0 0 0 127 0" result="hardAlpha"/>
      <feOffset dy="4"/>
      <feGaussianBlur stdDeviation="7.5"/>
      <feColorMatrix type="matrix" values="0 0 0 0 0 0 0 0 0 0 0 0 0 0 0 0 0 0 0.05 0"/>
      <feBlend mode="normal" in2="BackgroundImageFix" result="effect1_dropShadow_148_60"/>
      <feBlend mode="normal" in="SourceGraphic" in2="effect1_dropShadow_148_60" result="shape"/>
    </filter>
    <filter id="filter3_d_148_60" x="0" y="609" width="170" height="170" filterUnits="userSpaceOnUse" color-interpolation-filters="sRGB">
      <feFlood flood-opacity="0" result="BackgroundImageFix"/>
      <feColorMatrix in="SourceAlpha" type="matrix" values="0 0 0 0 0 0 0 0 0 0 0 0 0 0 0 0 0 0 127 0" result="hardAlpha"/>
      <feOffset dy="4"/>
      <feGaussianBlur stdDeviation="7.5"/>
      <feColorMatrix type="matrix" values="0 0 0 0 0 0 0 0 0 0 0 0 0 0 0 0 0 0 0.05 0"/>
      <feBlend mode="normal" in2="BackgroundImageFix" result="effect1_dropShadow_148_60"/>
      <feBlend mode="normal" in="SourceGraphic" in2="effect1_dropShadow_148_60" result="shape"/>
    </filter>
  </defs>
</svg>