<svg width="106" height="104" viewBox="0 0 106 104" fill="none" xmlns="http://www.w3.org/2000/svg">
<g clip-path="url(#clip0)">
<path d="M33.8471 0.60791C15.6818 0.60791 0.960449 15.3292 0.960449 33.4945C0.960449 51.6598 15.693 66.3924 33.8583 66.3924C52.0236 66.3924 66.7562 51.6598 66.7562 33.4945C66.7562 15.3292 52.0236 0.60791 33.8471 0.60791ZM33.8471 57.1522C20.7802 57.1522 10.1894 46.5614 10.1894 33.4945C10.1894 20.4277 20.7802 9.83687 33.8471 9.83687C46.9139 9.83687 57.5047 20.4277 57.5047 33.4945C57.5047 46.5614 46.9139 57.1522 33.8471 57.1522Z" fill="#6DB0FF"/>
</g>
<g clip-path="url(#clip1)">
<path d="M85.8495 65.3538C75.2757 65.3538 66.7065 73.9229 66.7065 84.4967C66.7065 95.0705 75.2822 103.646 85.856 103.646C96.4299 103.646 105.006 95.0705 105.006 84.4967C105.006 73.9229 96.4299 65.3538 85.8495 65.3538ZM85.8495 98.2676C78.2434 98.2676 72.0786 92.1028 72.0786 84.4967C72.0786 76.8906 78.2434 70.7258 85.8495 70.7258C93.4556 70.7258 99.6204 76.8906 99.6204 84.4967C99.6204 92.1028 93.4556 98.2676 85.8495 98.2676Z" fill="#6DB0FF"/>
</g>
<defs>
<clipPath id="clip0">
<rect width="67" height="67" fill="white" transform="translate(0.352539)"/>
</clipPath>
<clipPath id="clip1">
<rect width="39" height="39" fill="white" transform="translate(66.3525 65)"/>
</clipPath>
</defs>
</svg>
