<svg width="160" height="160" viewBox="0 0 160 160" fill="none" xmlns="http://www.w3.org/2000/svg">
<circle cx="80" cy="80" r="70" fill="white" stroke="#F44F0C" stroke-width="20"/>
<path d="M102.597 80.1278C102.597 81.0751 103.339 81.8384 104.251 81.8384H107.086C107.529 81.8384 107.892 82.2102 107.892 82.6719V94.6334C107.892 95.9055 107.033 97.0053 105.83 97.2716L86.3715 101.565C84.7479 101.922 83.2188 100.645 83.2188 98.9271V60.5574C83.2188 58.8391 84.7479 57.5631 86.3715 57.9193L105.83 62.2209C107.033 62.487 107.892 63.5869 107.892 64.859V77.5837C107.892 78.0416 107.533 78.4173 107.086 78.4173H104.251C103.339 78.4173 102.597 79.1845 102.597 80.1278Z" fill="#F44F0C"/>
<path d="M77.068 105.405L55.0438 100.332C53.8516 100.058 53 98.9623 53 97.6981V62.2986C53 61.0343 53.8478 59.9383 55.0438 59.6643L77.0717 54.5916C78.6993 54.2158 80.2474 55.4997 80.2474 57.2258V102.775C80.2435 104.497 78.6993 105.781 77.068 105.405Z" fill="#9DA4B5"/>
</svg>
