<svg width="40" height="41" viewBox="0 0 40 41" fill="none" xmlns="http://www.w3.org/2000/svg">
<path d="M20.1508 40.0735C31.085 40.0735 39.949 31.2095 39.949 20.2753C39.949 9.34102 31.085 0.477051 20.1508 0.477051C9.21651 0.477051 0.352539 9.34102 0.352539 20.2753C0.352539 31.2095 9.21651 40.0735 20.1508 40.0735Z" fill="url(#paint0_linear)"/>
<path d="M20.1509 36.7739C11.0536 36.7739 3.65234 29.3726 3.65234 20.2754C3.65234 11.1781 11.0536 3.77686 20.1509 3.77686C29.2484 3.77686 36.6494 11.1781 36.6494 20.2754C36.6494 29.3726 29.2484 36.7739 20.1509 36.7739Z" fill="url(#paint1_linear)"/>
<path d="M22.0033 25.9762C21.8304 25.9762 21.6623 25.9096 21.5299 25.7866L14.7399 19.4894C14.4347 19.2065 14.3996 18.7096 14.6611 18.3795C14.9226 18.0496 15.3826 18.0116 15.6869 18.2941L21.8975 24.054L35.0097 5.81409C35.2566 5.47094 35.7141 5.40945 36.0306 5.67573C36.3478 5.94287 36.405 6.43755 36.1585 6.78033L22.5779 25.6723C22.4557 25.8421 22.2745 25.9505 22.0767 25.9724C22.0521 25.975 22.0276 25.9762 22.0033 25.9762Z" fill="white"/>
<defs>
<linearGradient id="paint0_linear" x1="0.352539" y1="20.2753" x2="39.949" y2="20.2753" gradientUnits="userSpaceOnUse">
<stop stop-color="#FC6E51"/>
<stop offset="1" stop-color="#F44F0C"/>
</linearGradient>
<linearGradient id="paint1_linear" x1="3.65234" y1="20.2754" x2="36.6494" y2="20.2754" gradientUnits="userSpaceOnUse">
<stop stop-color="#F44F0C"/>
<stop offset="1" stop-color="#FC6E51"/>
</linearGradient>
</defs>
</svg>
