<?xml version="1.0" encoding="utf-8"?>
<svg width="500px" height="500px" viewBox="0 0 500 500" fill="none" xmlns="http://www.w3.org/2000/svg">
  <g filter="url(#filter0_d)" transform="matrix(1, 0, 0, 1, -11, -11)">
    <path d="M260.914 11C122.871 11 11 122.891 11 260.957C11 399.024 122.957 511 261 511C399.043 511 511 399.024 511 260.957C511 122.891 399.043 11 260.914 11ZM260.914 440.769C161.616 440.769 81.1334 360.273 81.1334 260.957C81.1334 161.642 161.616 81.1454 260.914 81.1454C360.213 81.1454 440.696 161.642 440.696 260.957C440.696 360.273 360.213 440.769 260.914 440.769Z" fill="#FD5A18"/>
  </g>
  <defs>
    <filter id="filter0_d" x="0" y="0" width="530" height="530" filterUnits="userSpaceOnUse" color-interpolation-filters="sRGB">
      <feFlood flood-opacity="0" result="BackgroundImageFix"/>
      <feColorMatrix in="SourceAlpha" type="matrix" values="0 0 0 0 0 0 0 0 0 0 0 0 0 0 0 0 0 0 127 0"/>
      <feOffset dx="4" dy="4"/>
      <feGaussianBlur stdDeviation="7.5"/>
      <feColorMatrix type="matrix" values="0 0 0 0 0 0 0 0 0 0 0 0 0 0 0 0 0 0 0.05 0"/>
      <feBlend mode="normal" in2="BackgroundImageFix" result="effect1_dropShadow"/>
      <feBlend mode="normal" in="SourceGraphic" in2="effect1_dropShadow" result="shape"/>
    </filter>
  </defs>
</svg>