<svg width="85" height="85" viewBox="0 0 85 85" fill="none" xmlns="http://www.w3.org/2000/svg">
<path d="M81 42.5C81 63.763 63.763 81 42.5 81C21.237 81 4 63.763 4 42.5C4 21.237 21.237 4 42.5 4C63.763 4 81 21.237 81 42.5Z" fill="white" stroke="#F44F0C" stroke-width="8"/>
<path d="M56.5615 43.5811C56.5615 44.1823 57.0337 44.6667 57.6141 44.6667H59.4181C59.7 44.6667 59.9311 44.9026 59.9311 45.1956V52.7866C59.9311 53.5939 59.3844 54.2918 58.6185 54.4608L46.2361 57.1857C45.2029 57.4117 44.2297 56.6019 44.2297 55.5114V31.1614C44.2297 30.071 45.2029 29.2612 46.2361 29.4873L58.6185 32.2171C59.3844 32.386 59.9311 33.084 59.9311 33.8913V41.9666C59.9311 42.2572 59.7023 42.4956 59.4181 42.4956H57.6141C57.0337 42.4956 56.5615 42.9825 56.5615 43.5811Z" fill="#F44F0C"/>
<path d="M40.316 59.6395L26.3006 56.4203C25.5419 56.2464 25 55.5508 25 54.7486V32.2835C25 31.4812 25.5395 30.7856 26.3006 30.6118L40.3183 27.3925C41.3541 27.1541 42.3392 27.9688 42.3392 29.0642V57.9703C42.3368 59.0632 41.3541 59.878 40.316 59.6395Z" fill="#9DA4B5"/>
</svg>
