<svg width="80" height="124" viewBox="0 0 80 124" fill="none" xmlns="http://www.w3.org/2000/svg">
<path d="M8.49427 0.60791C-9.67102 0.60791 -24.3923 15.3292 -24.3923 33.4945C-24.3923 51.6598 -9.65976 66.3924 8.50553 66.3924C26.6708 66.3924 41.4034 51.6598 41.4034 33.4945C41.4034 15.3292 26.6708 0.60791 8.49427 0.60791ZM8.49427 57.1522C-4.57258 57.1522 -15.1634 46.5614 -15.1634 33.4945C-15.1634 20.4277 -4.57258 9.83687 8.49427 9.83687C21.5611 9.83687 32.1519 20.4277 32.1519 33.4945C32.1519 46.5614 21.5611 57.1522 8.49427 57.1522Z" fill="#6DB0FF"/>
<path d="M60.4967 85.3538C49.9229 85.3538 41.3538 93.9229 41.3538 104.497C41.3538 115.071 49.9294 123.646 60.5033 123.646C71.0771 123.646 79.6528 115.071 79.6528 104.497C79.6528 93.9229 71.0771 85.3538 60.4967 85.3538ZM60.4967 118.268C52.8906 118.268 46.7258 112.103 46.7258 104.497C46.7258 96.8906 52.8906 90.7258 60.4967 90.7258C68.1028 90.7258 74.2676 96.8906 74.2676 104.497C74.2676 112.103 68.1028 118.268 60.4967 118.268Z" fill="#FD5A18"/>
</svg>
