<svg width="89" height="207" viewBox="0 0 89 207" fill="none" xmlns="http://www.w3.org/2000/svg">
<path d="M66.9925 163C54.8447 163 45 172.846 45 184.996C45 197.146 54.8522 207 67 207C79.1478 207 89 197.146 89 184.996C89 172.846 79.1478 163 66.9925 163ZM66.9925 200.82C58.2542 200.82 51.1717 193.736 51.1717 184.996C51.1717 176.256 58.2542 169.173 66.9925 169.173C75.7308 169.173 82.8132 176.256 82.8132 184.996C82.8132 193.736 75.7308 200.82 66.9925 200.82Z" fill="#F2642B"/>
<path d="M8.98392 0C-16.9682 0 -38 21.0354 -38 46.992C-38 72.9485 -16.9521 94 9 94C34.9521 94 56 72.9485 56 46.992C56 21.0354 34.9521 0 8.98392 0ZM8.98392 80.7966C-9.68423 80.7966 -24.8149 65.6633 -24.8149 46.992C-24.8149 28.3206 -9.68423 13.1873 8.98392 13.1873C27.6521 13.1873 42.7828 28.3206 42.7828 46.992C42.7828 65.6633 27.6521 80.7966 8.98392 80.7966Z" fill="#6DB0FF"/>
</svg>
