<svg width="622" height="239" viewBox="0 0 622 239" fill="none" xmlns="http://www.w3.org/2000/svg">
<path d="M20.9963 0.381104C9.60915 0.381104 0.380859 9.60939 0.380859 20.9966C0.380859 32.3838 9.6162 41.6191 21.0034 41.6191C32.3906 41.6191 41.6259 32.3838 41.6259 20.9966C41.6259 9.60939 32.3906 0.381104 20.9963 0.381104ZM20.9963 35.8268C12.8052 35.8268 6.16618 29.1878 6.16618 20.9966C6.16618 12.8054 12.8052 6.16642 20.9963 6.16642C29.1875 6.16642 35.8265 12.8054 35.8265 20.9966C35.8265 29.1878 29.1875 35.8268 20.9963 35.8268Z" fill="#F2642B"/>
<path d="M521.993 151.798C498.134 151.798 478.798 171.134 478.798 194.993C478.798 218.852 498.149 238.202 522.007 238.202C545.866 238.202 565.217 218.852 565.217 194.993C565.217 171.134 545.866 151.798 521.993 151.798ZM521.993 226.065C504.83 226.065 490.92 212.155 490.92 194.993C490.92 177.83 504.83 163.92 521.993 163.92C539.155 163.92 553.065 177.83 553.065 194.993C553.065 212.155 539.155 226.065 521.993 226.065Z" fill="#6DB0FF"/>
<path d="M600.996 130.381C589.609 130.381 580.381 139.609 580.381 150.997C580.381 162.384 589.616 171.619 601.003 171.619C612.391 171.619 621.626 162.384 621.626 150.997C621.626 139.609 612.391 130.381 600.996 130.381ZM600.996 165.827C592.805 165.827 586.166 159.188 586.166 150.997C586.166 142.805 592.805 136.166 600.996 136.166C609.188 136.166 615.826 142.805 615.826 150.997C615.826 159.188 609.188 165.827 600.996 165.827Z" fill="#F2642B"/>
</svg>
