<?xml version="1.0" encoding="utf-8"?>
<svg width="63" height="63" viewBox="0 0 63 63" fill="none" xmlns="http://www.w3.org/2000/svg">
  <path d="M63 31.5C63 48.897 48.897 63 31.5 63C14.103 63 0 48.897 0 31.5C0 14.103 14.103 0 31.5 0C48.897 0 63 14.103 63 31.5Z" fill="white"/>
  <path d="M 24.375 22 C 23.745 22 23.141 22.25 22.696 22.696 C 22.25 23.141 22 23.745 22 24.375 C 22 25.005 22.25 25.609 22.696 26.054 L 28.142 31.5 L 22.696 36.946 C 22.25 37.391 22 37.995 22 38.625 C 22 39.255 22.25 39.859 22.696 40.304 C 23.141 40.75 23.745 41 24.375 41 C 25.005 41 25.609 40.75 26.054 40.304 L 31.5 34.858 L 36.923 40.281 C 37.144 40.509 37.409 40.689 37.701 40.813 C 37.993 40.936 38.308 41 38.625 41 C 39.255 41 39.859 40.75 40.304 40.304 C 40.75 39.859 41 39.255 41 38.625 C 41 37.995 40.75 37.391 40.304 36.946 L 34.858 31.5 L 40.281 26.077 C 40.509 25.856 40.689 25.591 40.813 25.299 C 40.936 25.007 41 24.692 41 24.375 C 41 23.745 40.75 23.141 40.304 22.696 C 39.859 22.25 39.255 22 38.625 22 C 37.995 22 37.391 22.25 36.946 22.696 L 31.5 28.142 L 26.077 22.719 C 26.07 22.711 26.062 22.703 26.054 22.695 C 25.608 22.25 25.005 22 24.375 22 Z" fill="#F44F0C"/>
</svg>