<?xml version="1.0" encoding="utf-8"?>
<svg width="36" height="36" viewBox="0 0 36 36" fill="none" xmlns="http://www.w3.org/2000/svg">
  <path d="M36 18C36 27.9411 27.9411 36 18 36C8.05888 36 0 27.9411 0 18C0 8.05888 8.05888 0 18 0C27.9411 0 36 8.05888 36 18Z" fill="#F44F0C" style="stroke-width: 3px; stroke: rgb(255, 255, 255);"/>
  <path fill-rule="evenodd" clip-rule="evenodd" d="M 18 16.586 L 13.83 12.416 C 13.401 11.987 12.732 11.954 12.343 12.343 C 11.954 12.732 11.987 13.401 12.416 13.831 L 16.586 18 L 12.416 22.17 C 11.987 22.599 11.954 23.268 12.343 23.657 C 12.732 24.046 13.401 24.013 13.83 23.584 L 18 19.414 L 22.169 23.584 C 22.599 24.013 23.268 24.046 23.657 23.657 C 24.046 23.268 24.013 22.599 23.584 22.17 L 19.414 18 L 23.584 13.831 C 24.013 13.401 24.046 12.732 23.657 12.343 C 23.268 11.954 22.599 11.987 22.169 12.416 L 18 16.586 Z" fill="#fff"/>
</svg>