<svg width="67" height="67" viewBox="0 0 67 67" fill="none" xmlns="http://www.w3.org/2000/svg">
<circle cx="33.5" cy="33.5" r="33.5" fill="#ffffff"/>
<path d="M41.8066 24.9071V28.2247C41.8066 28.4531 41.894 28.6647 42.0358 28.7787L47.8244 33.4463C48.1297 33.6927 48.1297 34.3083 47.8244 34.5547L42.0358 39.2223C41.894 39.3367 41.8066 39.5479 41.8066 39.7763V43.0939C41.8066 43.5863 42.1884 43.8943 42.4937 43.6479L53.7706 34.5547C54.0759 34.3083 54.0759 33.6927 53.7706 33.4463L42.4937 24.3527C42.1884 24.1067 41.8066 24.4143 41.8066 24.9071Z" fill="#f44f0c"/>
<path d="M53.7704 33.446L42.4935 24.3524C42.4382 24.3076 42.3804 24.2868 42.3225 24.2764L53.1976 33.0456C53.5029 33.292 53.5029 33.9076 53.1976 34.154L41.9207 43.2476C41.8921 43.2708 41.862 43.2844 41.8325 43.298C41.9207 43.6636 42.2338 43.8572 42.4935 43.6476L53.7704 34.5544C54.076 34.308 54.076 33.692 53.7704 33.446Z" fill="#f44f0c"/>
<path d="M41.8066 24.9071V28.2247C41.8066 28.4531 41.894 28.6647 42.0358 28.7787L47.8244 33.4463C48.1297 33.6927 48.1297 34.3083 47.8244 34.5547L42.0358 39.2223C41.894 39.3367 41.8066 39.5479 41.8066 39.7763V43.0939C41.8066 43.5863 42.1884 43.8943 42.4937 43.6479L53.7706 34.5547C54.0759 34.3083 54.0759 33.6927 53.7706 33.4463L42.4937 24.3527C42.1884 24.1067 41.8066 24.4143 41.8066 24.9071Z" stroke="#f44f0c" stroke-miterlimit="10"/>
<path d="M24.1934 24.641V27.9586C24.1934 28.187 24.106 28.3986 23.9642 28.5126L18.1756 33.1802C17.8703 33.4266 17.8703 34.0422 18.1756 34.2886L23.9642 38.9562C24.106 39.0706 24.1934 39.2818 24.1934 39.5102V42.8278C24.1934 43.3202 23.8116 43.6282 23.5063 43.3818L12.2294 34.2886C11.9241 34.0422 11.9241 33.4266 12.2294 33.1802L23.5063 24.0866C23.8116 23.8406 24.1934 24.1482 24.1934 24.641Z" fill="#f44f0c"/>
<path d="M12.2296 33.1799L23.5065 24.0863C23.5618 24.0415 23.6196 24.0207 23.6775 24.0103L12.8024 32.7795C12.4971 33.0259 12.4971 33.6415 12.8024 33.8879L24.0793 42.9815C24.1079 43.0047 24.138 43.0183 24.1675 43.0319C24.0793 43.3975 23.7662 43.5911 23.5065 43.3815L12.2296 34.2883C11.924 34.0419 11.924 33.4259 12.2296 33.1799Z" fill="#f44f0c"/>
<path d="M24.1934 24.641V27.9586C24.1934 28.187 24.106 28.3986 23.9642 28.5126L18.1756 33.1802C17.8703 33.4266 17.8703 34.0422 18.1756 34.2886L23.9642 38.9562C24.106 39.0706 24.1934 39.2818 24.1934 39.5102V42.8278C24.1934 43.3202 23.8116 43.6282 23.5063 43.3818L12.2294 34.2886C11.9241 34.0422 11.9241 33.4266 12.2294 33.1802L23.5063 24.0866C23.8116 23.8406 24.1934 24.1482 24.1934 24.641Z" stroke="#f44f0c" stroke-miterlimit="10"/>
</svg>
