<?xml version="1.0" encoding="utf-8"?>
<!-- Generator: Adobe Illustrator 23.0.4, SVG Export Plug-In . SVG Version: 6.00 Build 0)  -->
<svg version="1.1" id="Layer_1" xmlns="http://www.w3.org/2000/svg" xmlns:xlink="http://www.w3.org/1999/xlink" x="0px" y="0px"
	 viewBox="0 0 490.43 130.16" style="enable-background:new 0 0 490.43 130.16;" xml:space="preserve">
<style type="text/css">
	.st0{fill:#8B8F9E;}
	.st1{fill:#505763;}
	.st2{fill:#F04E23;}
	.st3{fill:#9EA5B5;}
</style>
<g>
	<g>
		<path class="st0" d="M189.06,100.46v-1.58h-9.42c-0.31,0-0.6-0.12-0.81-0.36c-0.24-0.26-0.36-0.55-0.36-0.86V84.81
			c0-0.7,0.55-1.25,1.22-1.25c0.67,0,1.17,0.55,1.17,1.25v11.6h6.57v-11.6c0-0.7,0.48-1.25,1.15-1.25s1.25,0.55,1.25,1.25v11.6h0.43
			c0.7,0,1.2,0.58,1.2,1.25v2.8c0,0.36-0.12,0.65-0.34,0.89c-0.24,0.24-0.53,0.36-0.84,0.36
			C189.58,101.71,189.06,101.16,189.06,100.46z"/>
		<path class="st0" d="M193.54,97.35c-2.28-2.09-2.23-6.02,0-8.08c1.13-1.13,2.47-1.68,4.05-1.68c1.56,0,2.9,0.55,4.03,1.65
			c1.13,1.1,1.7,2.44,1.7,4c0,0.67-0.48,1.15-1.15,1.15h-7.67c0.19,0.67,0.58,1.22,1.15,1.65c0.55,0.46,1.2,0.67,1.94,0.67
			c0.91,0,1.63-0.29,2.16-0.84c0.24-0.22,0.5-0.31,0.77-0.31c0.14,0,0.29,0.02,0.41,0.07c0.22,0.07,0.41,0.24,0.58,0.5
			c0.12,0.22,0.19,0.43,0.22,0.67c0,0.36-0.14,0.65-0.46,0.91c-0.46,0.41-0.93,0.72-1.44,0.89c-0.65,0.26-1.39,0.38-2.23,0.38
			C196.03,99,194.67,98.45,193.54,97.35z M200.88,92.38c-0.19-0.74-0.58-1.34-1.13-1.8c-0.6-0.48-1.32-0.72-2.11-0.72
			c-0.82,0-1.51,0.24-2.11,0.72c-0.58,0.5-0.93,1.1-1.1,1.8H200.88z"/>
		<path class="st0" d="M205.17,98.52c-0.24-0.22-0.36-0.5-0.36-0.84v-8.85c0-0.36,0.12-0.67,0.36-0.89
			c0.24-0.24,0.53-0.36,0.86-0.36c0.67,0,1.15,0.55,1.15,1.25v3.12h5.15v-3.12c0-0.7,0.48-1.25,1.15-1.25
			c0.67,0,1.25,0.55,1.25,1.25v8.85c0,0.34-0.12,0.62-0.38,0.84c-0.26,0.24-0.55,0.36-0.86,0.36c-0.67,0-1.15-0.53-1.15-1.2V94.4
			h-5.15v3.28c0,0.67-0.5,1.2-1.17,1.2C205.7,98.88,205.41,98.76,205.17,98.52z"/>
		<path class="st0" d="M220.99,97.68v-7.7l-3.28-0.02c-0.67,0-1.2-0.46-1.2-1.13c0-0.7,0.53-1.25,1.2-1.25h8.87
			c0.67,0,1.22,0.55,1.22,1.25c0,0.67-0.55,1.15-1.22,1.15h-3.21v7.7c0,0.34-0.12,0.62-0.34,0.84c-0.26,0.24-0.55,0.36-0.86,0.36
			C221.49,98.88,220.99,98.35,220.99,97.68z"/>
		<path class="st0" d="M229.24,88.76c0-0.67,0.53-1.17,1.2-1.17c0.29,0,0.55,0.1,0.79,0.31c0.22,0.22,0.36,0.46,0.38,0.77
			c1.03-0.72,2.13-1.08,3.36-1.08c1.51,0,2.95,0.6,4.03,1.68c1.1,1.13,1.65,2.47,1.65,4.05c0,1.56-0.55,2.9-1.65,4.03
			c-1.08,1.08-2.52,1.68-4.03,1.68c-1.27,0-2.37-0.36-3.36-1.08v3.81c0,0.67-0.5,1.17-1.17,1.17c-0.67,0-1.2-0.5-1.2-1.17V88.76z
			 M237.32,95.64c0.65-0.65,0.96-1.41,0.96-2.33c0-0.93-0.31-1.73-0.96-2.37c-0.65-0.65-1.41-0.96-2.35-0.96
			c-0.93,0-1.7,0.31-2.35,0.96c-0.65,0.65-0.98,1.44-0.98,2.37c0,0.89,0.34,1.68,0.98,2.33c0.65,0.65,1.44,0.98,2.35,0.98
			C235.88,96.63,236.67,96.29,237.32,95.64z"/>
		<path class="st0" d="M247.53,98.54c-0.26-0.22-0.38-0.5-0.36-0.81c0-0.31,0.12-0.58,0.36-0.84l3.6-3.62l-3.64-3.69
			c-0.22-0.22-0.34-0.5-0.34-0.84c0-0.31,0.12-0.6,0.36-0.84c0.24-0.24,0.53-0.36,0.84-0.36s0.6,0.12,0.84,0.36l3.62,3.67l3.6-3.64
			c0.24-0.24,0.53-0.36,0.84-0.38c0.34,0,0.62,0.12,0.84,0.36c0.26,0.24,0.38,0.53,0.38,0.84c0,0.34-0.12,0.62-0.34,0.84l-3.64,3.69
			l3.57,3.57c0.22,0.24,0.34,0.53,0.36,0.84c0,0.67-0.55,1.2-1.22,1.2c-0.31,0-0.6-0.12-0.82-0.36l-3.55-3.57l-3.57,3.57
			c-0.22,0.24-0.5,0.36-0.86,0.36C248.03,98.88,247.75,98.76,247.53,98.54z"/>
		<path class="st0" d="M260.24,88.76c0-0.67,0.53-1.17,1.2-1.17c0.29,0,0.55,0.1,0.79,0.31c0.22,0.22,0.36,0.46,0.38,0.77
			c1.03-0.72,2.13-1.08,3.36-1.08c1.51,0,2.95,0.6,4.03,1.68c1.1,1.13,1.65,2.47,1.65,4.05c0,1.56-0.55,2.9-1.65,4.03
			c-1.08,1.08-2.52,1.68-4.03,1.68c-1.27,0-2.37-0.36-3.36-1.08v3.81c0,0.67-0.5,1.17-1.17,1.17c-0.67,0-1.2-0.5-1.2-1.17V88.76z
			 M268.31,95.64c0.65-0.65,0.96-1.41,0.96-2.33c0-0.93-0.31-1.73-0.96-2.37c-0.65-0.65-1.41-0.96-2.35-0.96
			c-0.93,0-1.7,0.31-2.35,0.96c-0.65,0.65-0.98,1.44-0.98,2.37c0,0.89,0.34,1.68,0.98,2.33c0.65,0.65,1.44,0.98,2.35,0.98
			C266.88,96.63,267.67,96.29,268.31,95.64z"/>
		<path class="st0" d="M274.36,97.35c-1.13-1.13-1.68-2.47-1.68-4.03c0-1.58,0.55-2.92,1.68-4.05c1.08-1.08,2.52-1.68,4.05-1.68
			c1.56,0,2.9,0.55,4,1.65c1.13,1.1,1.68,2.44,1.7,4.03v4.39c0,0.31-0.12,0.6-0.36,0.86c-0.22,0.24-0.5,0.36-0.86,0.36
			c-0.65,0-1.1-0.48-1.17-1.08c-1.01,0.82-2.11,1.22-3.31,1.22C276.87,99.02,275.44,98.43,274.36,97.35z M280.76,95.64
			c0.65-0.65,0.96-1.41,0.96-2.33c0-0.93-0.31-1.73-0.96-2.37c-0.65-0.65-1.41-0.96-2.35-0.96s-1.7,0.31-2.33,0.96
			c-0.65,0.65-0.98,1.44-0.98,2.37c0,0.89,0.31,1.68,0.96,2.33c0.65,0.65,1.44,0.98,2.35,0.98S280.11,96.29,280.76,95.64z"/>
		<path class="st0" d="M286.61,98.52c-0.24-0.22-0.36-0.5-0.36-0.84v-8.85c0-0.36,0.12-0.67,0.36-0.89
			c0.24-0.24,0.53-0.36,0.86-0.36c0.67,0,1.15,0.55,1.15,1.25v3.12h5.15v-3.12c0-0.7,0.48-1.25,1.15-1.25
			c0.67,0,1.25,0.55,1.25,1.25v8.85c0,0.34-0.12,0.62-0.38,0.84c-0.26,0.24-0.55,0.36-0.86,0.36c-0.67,0-1.15-0.53-1.15-1.2V94.4
			h-5.15v3.28c0,0.67-0.5,1.2-1.17,1.2C287.13,98.88,286.85,98.76,286.61,98.52z"/>
		<path class="st0" d="M299.89,97.35c-2.28-2.09-2.23-6.02,0-8.08c1.13-1.13,2.47-1.68,4.05-1.68c1.56,0,2.9,0.55,4.03,1.65
			c1.13,1.1,1.7,2.44,1.7,4c0,0.67-0.48,1.15-1.15,1.15h-7.67c0.19,0.67,0.58,1.22,1.15,1.65c0.55,0.46,1.2,0.67,1.94,0.67
			c0.91,0,1.63-0.29,2.16-0.84c0.24-0.22,0.5-0.31,0.77-0.31c0.14,0,0.29,0.02,0.41,0.07c0.22,0.07,0.41,0.24,0.58,0.5
			c0.12,0.22,0.19,0.43,0.22,0.67c0,0.36-0.14,0.65-0.46,0.91c-0.46,0.41-0.93,0.72-1.44,0.89c-0.65,0.26-1.39,0.38-2.23,0.38
			C302.38,99,301.02,98.45,299.89,97.35z M307.23,92.38c-0.19-0.74-0.58-1.34-1.13-1.8c-0.6-0.48-1.32-0.72-2.11-0.72
			c-0.82,0-1.51,0.24-2.11,0.72c-0.58,0.5-0.93,1.1-1.1,1.8H307.23z"/>
		<path class="st0" d="M311.52,98.52c-0.24-0.22-0.36-0.5-0.36-0.84v-8.85c0-0.36,0.12-0.67,0.36-0.89
			c0.24-0.24,0.53-0.36,0.86-0.36c0.67,0,1.15,0.55,1.15,1.25v3.12h5.15v-3.12c0-0.7,0.48-1.25,1.15-1.25
			c0.67,0,1.25,0.55,1.25,1.25v8.85c0,0.34-0.12,0.62-0.38,0.84c-0.26,0.24-0.55,0.36-0.86,0.36c-0.67,0-1.15-0.53-1.15-1.2V94.4
			h-5.15v3.28c0,0.67-0.5,1.2-1.17,1.2C312.04,98.88,311.76,98.76,311.52,98.52z"/>
		<path class="st0" d="M324.51,98.52c-0.24-0.26-0.36-0.55-0.36-0.86v-8.82c0-0.7,0.53-1.25,1.22-1.25c0.67,0,1.17,0.55,1.17,1.25
			v5.73l5.37-6.5c0.12-0.14,0.29-0.26,0.46-0.34c0.14-0.1,0.31-0.14,0.53-0.14c0.67,0,1.22,0.55,1.22,1.22v8.85
			c0,0.31-0.12,0.6-0.36,0.86c-0.22,0.24-0.5,0.36-0.84,0.36c-0.67,0-1.08-0.48-1.08-1.22v-5.83l-5.49,6.57
			c-0.24,0.31-0.58,0.48-0.98,0.48C325.01,98.88,324.73,98.76,324.51,98.52z"/>
		<path class="st0" d="M337.51,96.89l1.32-1.44c-1.41-0.67-2.25-1.99-2.25-3.55c0-1.17,0.41-2.21,1.25-3.04
			c0.84-0.84,1.85-1.27,3.04-1.27h3.31c0.34,0,0.62,0.12,0.89,0.36c0.24,0.22,0.36,0.53,0.34,0.89v8.85c0,0.67-0.55,1.22-1.22,1.22
			c-0.67,0-1.15-0.53-1.15-1.22v-1.77h-1.34l-2.49,2.66c-0.48,0.48-1.22,0.48-1.7,0C337.03,98.09,337.03,97.37,337.51,96.89z
			 M343.02,93.56v-3.64h-2.11c-1.08,0-1.97,0.89-1.97,1.94c0,0.96,0.84,1.7,1.97,1.7H343.02z"/>
		<path class="st0" d="M354.74,98.88c-0.67,0-1.2-0.5-1.2-1.15v-8.94c0-0.34,0.12-0.62,0.36-0.86c0.22-0.22,0.5-0.34,0.81-0.34h3.88
			c0.91,0,1.68,0.26,2.33,0.82c0.67,0.58,1.01,1.34,1.01,2.3c0,0.89-0.36,1.61-1.1,2.16c1.03,0.58,1.63,1.58,1.63,2.66
			c0,2.01-1.53,3.36-3.57,3.36H354.74z M355.94,92.24h2.61c0.31,0,0.6-0.12,0.84-0.34c0.26-0.19,0.38-0.48,0.38-0.89
			c0-0.74-0.48-1.2-1.22-1.2h-2.61V92.24z M355.94,96.58h3c0.79,0,1.37-0.48,1.37-1.22c0-0.38-0.12-0.69-0.36-0.96
			c-0.26-0.26-0.6-0.41-1.01-0.41h-3V96.58z"/>
		<path class="st0" d="M365.17,97.35c-1.13-1.13-1.68-2.47-1.68-4.03c0-1.58,0.55-2.92,1.68-4.05c1.08-1.08,2.52-1.68,4.05-1.68
			c1.56,0,2.9,0.55,4,1.65c1.13,1.1,1.68,2.44,1.7,4.03v4.39c0,0.31-0.12,0.6-0.36,0.86c-0.22,0.24-0.5,0.36-0.86,0.36
			c-0.65,0-1.1-0.48-1.17-1.08c-1.01,0.82-2.11,1.22-3.31,1.22C367.69,99.02,366.25,98.43,365.17,97.35z M371.57,95.64
			c0.65-0.65,0.96-1.41,0.96-2.33c0-0.93-0.31-1.73-0.96-2.37c-0.65-0.65-1.41-0.96-2.35-0.96s-1.7,0.31-2.33,0.96
			c-0.65,0.65-0.98,1.44-0.98,2.37c0,0.89,0.31,1.68,0.96,2.33c0.65,0.65,1.44,0.98,2.35,0.98S370.92,96.29,371.57,95.64z"/>
		<path class="st0" d="M378.88,98.88c-0.31,0-0.6-0.12-0.86-0.36c-0.24-0.22-0.36-0.5-0.36-0.84v-8.85c0-0.36,0.12-0.67,0.36-0.89
			c0.26-0.24,0.55-0.36,0.86-0.36c0.67,0,1.17,0.55,1.17,1.25v7.67h3.84v-7.67c0-0.36,0.12-0.67,0.34-0.89
			c0.26-0.24,0.55-0.36,0.89-0.36c0.67,0,1.15,0.55,1.15,1.25v7.67h3.84v-7.67c0-0.36,0.12-0.67,0.38-0.89
			c0.26-0.24,0.55-0.36,0.86-0.36c0.67,0,1.15,0.55,1.15,1.25v8.85c0,0.67-0.48,1.2-1.15,1.2H378.88z"/>
		<path class="st0" d="M395.55,98.52c-0.24-0.26-0.36-0.55-0.36-0.86v-8.82c0-0.7,0.53-1.25,1.22-1.25c0.67,0,1.17,0.55,1.17,1.25
			v5.73l5.37-6.5c0.12-0.14,0.29-0.26,0.46-0.34c0.14-0.1,0.31-0.14,0.53-0.14c0.67,0,1.22,0.55,1.22,1.22v8.85
			c0,0.31-0.12,0.6-0.36,0.86c-0.22,0.24-0.5,0.36-0.84,0.36c-0.67,0-1.08-0.48-1.08-1.22v-5.83l-5.49,6.57
			c-0.24,0.31-0.58,0.48-0.98,0.48C396.05,98.88,395.76,98.76,395.55,98.52z"/>
		<path class="st0" d="M407.68,98.54c-0.26-0.22-0.38-0.5-0.36-0.81c0-0.31,0.12-0.58,0.36-0.84l3.6-3.62l-3.64-3.69
			c-0.22-0.22-0.34-0.5-0.34-0.84c0-0.31,0.12-0.6,0.36-0.84c0.24-0.24,0.53-0.36,0.84-0.36c0.31,0,0.6,0.12,0.84,0.36l3.62,3.67
			l3.6-3.64c0.24-0.24,0.53-0.36,0.84-0.38c0.34,0,0.62,0.12,0.84,0.36c0.26,0.24,0.38,0.53,0.38,0.84c0,0.34-0.12,0.62-0.34,0.84
			l-3.64,3.69l3.57,3.57c0.22,0.24,0.34,0.53,0.36,0.84c0,0.67-0.55,1.2-1.22,1.2c-0.31,0-0.6-0.12-0.82-0.36l-3.55-3.57l-3.57,3.57
			c-0.22,0.24-0.5,0.36-0.86,0.36S407.89,98.76,407.68,98.54z"/>
		<path class="st0" d="M427.34,98.88c-0.67,0-1.2-0.5-1.2-1.15v-8.94c0-0.34,0.12-0.62,0.36-0.86c0.22-0.22,0.5-0.34,0.82-0.34h3.88
			c0.91,0,1.68,0.26,2.33,0.82c0.67,0.58,1.01,1.34,1.01,2.3c0,0.89-0.36,1.61-1.1,2.16c1.03,0.58,1.63,1.58,1.63,2.66
			c0,2.01-1.53,3.36-3.57,3.36H427.34z M428.53,92.24h2.61c0.31,0,0.6-0.12,0.84-0.34c0.26-0.19,0.38-0.48,0.38-0.89
			c0-0.74-0.48-1.2-1.22-1.2h-2.61V92.24z M428.53,96.58h3c0.79,0,1.37-0.48,1.37-1.22c0-0.38-0.12-0.69-0.36-0.96
			c-0.26-0.26-0.6-0.41-1.01-0.41h-3V96.58z"/>
		<path class="st0" d="M437.79,97.35c-2.28-2.09-2.23-6.02,0-8.08c1.13-1.13,2.47-1.68,4.05-1.68c1.56,0,2.9,0.55,4.03,1.65
			c1.13,1.1,1.7,2.44,1.7,4c0,0.67-0.48,1.15-1.15,1.15h-7.67c0.19,0.67,0.58,1.22,1.15,1.65c0.55,0.46,1.2,0.67,1.94,0.67
			c0.91,0,1.63-0.29,2.16-0.84c0.24-0.22,0.5-0.31,0.77-0.31c0.14,0,0.29,0.02,0.41,0.07c0.22,0.07,0.41,0.24,0.58,0.5
			c0.12,0.22,0.19,0.43,0.22,0.67c0,0.36-0.14,0.65-0.46,0.91c-0.46,0.41-0.93,0.72-1.44,0.89c-0.65,0.26-1.39,0.38-2.23,0.38
			C440.28,99,438.92,98.45,437.79,97.35z M445.12,92.38c-0.19-0.74-0.58-1.34-1.13-1.8c-0.6-0.48-1.32-0.72-2.11-0.72
			c-0.82,0-1.51,0.24-2.11,0.72c-0.58,0.5-0.93,1.1-1.1,1.8H445.12z"/>
		<path class="st0" d="M464.11,101.04c-0.24-0.22-0.36-0.5-0.36-0.82v-1.34h-12.87c-0.31,0-0.6-0.12-0.86-0.36
			c-0.24-0.22-0.36-0.5-0.36-0.84v-8.85c0-0.36,0.12-0.67,0.36-0.89c0.26-0.24,0.55-0.36,0.86-0.36c0.67,0,1.17,0.55,1.17,1.25v7.67
			h3.84v-7.67c0-0.36,0.12-0.67,0.34-0.89c0.26-0.24,0.55-0.36,0.89-0.36c0.67,0,1.15,0.55,1.15,1.25v7.67h3.84v-7.67
			c0-0.36,0.12-0.67,0.38-0.89c0.26-0.24,0.55-0.36,0.86-0.36c0.67,0,1.15,0.55,1.15,1.25v7.67h0.48c0.55,0,0.91,0.26,1.1,0.77
			l0.02,0.07l0.02,0.12c0,0.07,0,0.14,0.02,0.17v2.64c0,0.67-0.48,1.1-1.15,1.1C464.69,101.37,464.38,101.25,464.11,101.04z"/>
		<path class="st0" d="M468.6,97.35c-2.28-2.09-2.23-6.02,0-8.08c1.13-1.13,2.47-1.68,4.05-1.68c1.56,0,2.9,0.55,4.03,1.65
			c1.13,1.1,1.7,2.44,1.7,4c0,0.67-0.48,1.15-1.15,1.15h-7.67c0.19,0.67,0.58,1.22,1.15,1.65c0.55,0.46,1.2,0.67,1.94,0.67
			c0.91,0,1.63-0.29,2.16-0.84c0.24-0.22,0.5-0.31,0.77-0.31c0.14,0,0.29,0.02,0.41,0.07c0.22,0.07,0.41,0.24,0.58,0.5
			c0.12,0.22,0.19,0.43,0.22,0.67c0,0.36-0.14,0.65-0.46,0.91c-0.46,0.41-0.93,0.72-1.44,0.89c-0.65,0.26-1.39,0.38-2.23,0.38
			C471.09,99,469.72,98.45,468.6,97.35z M475.93,92.38c-0.19-0.74-0.58-1.34-1.13-1.8c-0.6-0.48-1.32-0.72-2.11-0.72
			c-0.82,0-1.51,0.24-2.11,0.72c-0.58,0.5-0.93,1.1-1.1,1.8H475.93z"/>
		<path class="st0" d="M480.82,98.52c-0.24-0.26-0.36-0.55-0.36-0.86v-8.82c0-0.7,0.53-1.25,1.22-1.25c0.67,0,1.17,0.55,1.17,1.25
			v5.73l5.37-6.5c0.12-0.14,0.29-0.26,0.46-0.34c0.14-0.1,0.31-0.14,0.53-0.14c0.67,0,1.22,0.55,1.22,1.22v8.85
			c0,0.31-0.12,0.6-0.36,0.86c-0.22,0.24-0.5,0.36-0.84,0.36c-0.67,0-1.08-0.48-1.08-1.22v-5.83l-5.49,6.57
			c-0.24,0.31-0.58,0.48-0.98,0.48C481.33,98.88,481.04,98.76,480.82,98.52z M483.99,82.75c0.48,0,0.84,0.38,0.84,0.84
			c0,0.29,0.1,0.53,0.31,0.74c0.22,0.22,0.46,0.34,0.77,0.34c0.31,0,0.55-0.12,0.77-0.34c0.22-0.22,0.31-0.46,0.29-0.74
			c-0.07-1.1,1.73-1.06,1.63,0c0,0.72-0.26,1.34-0.77,1.89c-0.55,0.55-1.2,0.82-1.94,0.82c-0.74,0-1.37-0.26-1.89-0.79
			c-0.53-0.53-0.79-1.17-0.79-1.92C483.2,83.11,483.58,82.75,483.99,82.75z"/>
	</g>
	<g>
		<path class="st1" d="M193.01,46.33l10.21-9.52c0.77-0.7,1.12-1.54,1.12-2.59c0-0.98-0.28-1.75-0.91-2.31
			c-0.7-0.77-1.47-1.12-2.38-1.12c-1.05-0.07-1.96,0.28-2.59,0.91l-13.01,12.24v-8.75c0-1.96-1.47-3.5-3.43-3.5
			c-0.91,0-1.75,0.35-2.52,0.98c-0.7,0.7-1.05,1.54-1.05,2.52v25.95c0,0.91,0.35,1.75,1.05,2.45c0.7,0.7,1.54,1.05,2.52,1.05
			c0.91,0,1.75-0.35,2.38-1.05c0.7-0.63,1.05-1.4,1.05-2.45v-7.62l2.52-2.38l11.75,12.38c0.7,0.77,1.54,1.12,2.52,1.12
			c0.98,0,1.82-0.35,2.45-0.98c0.7-0.63,1.05-1.47,1.12-2.38c0-0.98-0.35-1.82-1.05-2.52L193.01,46.33z"/>
		<path class="st1" d="M225.91,33.81c-0.56-1.4-1.82-2.17-3.29-2.17c-1.4,0-2.66,0.77-3.22,2.17l-11.62,26.1
			c-0.21,0.49-0.28,0.98-0.28,1.4c-0.07,0.91,0.28,1.75,0.98,2.38c0.7,0.77,1.54,1.12,2.59,1.12c0.49,0,0.98-0.07,1.33-0.21
			c0.91-0.35,1.47-1.05,1.82-1.96l8.46-20.85l8.33,20.85c0.21,0.49,0.49,0.84,0.84,1.12c0.77,0.7,1.54,1.05,2.45,1.05
			c0.35,0,0.84-0.07,1.33-0.28c0.91-0.35,1.54-0.98,1.89-1.89c0.21-0.49,0.28-0.98,0.28-1.33c0-0.49-0.14-0.91-0.35-1.4
			L225.91,33.81z"/>
		<path class="st1" d="M309.26,59.97c-0.49-1.4-1.68-2.31-3.29-2.31h-1.19V34.72c-0.28-1.75-1.61-3-3.36-3h-15.64
			c-0.07,0-0.28,0-0.7,0.07c-0.35,0.07-0.63,0.21-0.91,0.35c-0.21,0.07-0.42,0.21-0.7,0.42c-0.84,0.7-1.26,1.61-1.26,2.8
			c0,0-0.38,16.67-2.88,20.79c-0.72,1.19-2.73,1.68-2.89,1.73l-0.49,0.21c-0.35,0.21-0.7,0.42-0.98,0.77
			c-0.63,0.63-0.91,1.4-0.91,2.31v7.42c0,0.91,0.35,1.75,1.05,2.38c0.77,0.7,1.61,1.05,2.52,1.05c1.96,0,3.5-1.47,3.5-3.43v-3.91
			h21.33v3.91c0,1.89,1.61,3.43,3.5,3.43c1.96,0,3.5-1.47,3.5-3.43v-7.62c0,0-0.07-0.21-0.07-0.49L309.26,59.97z M297.85,57.66
			h-12.14c1.98-4.15,2.88-18.96,2.88-18.96h9.26V57.66z"/>
		<path class="st2" d="M346.08,31.78h-19.9v0.01c-4.3,0-8.61,1.61-11.82,4.83c-3.28,3.28-4.89,7.2-4.89,11.82
			c0,4.55,1.61,8.47,4.89,11.75c1.61,1.61,3.49,2.81,5.51,3.61c2.02,0.81,4.16,1.21,6.31,1.21h19.9c4.33,0.02,8.66-1.59,11.89-4.83
			c3.22-3.29,4.83-7.2,4.83-11.75c0-4.61-1.61-8.53-4.83-11.82C354.74,33.37,350.41,31.77,346.08,31.78z M354.46,56.8
			c-2.31,2.28-5.14,3.48-8.38,3.52c-0.06,0.01-0.12,0.01-0.19,0.01c-3.32,0-6.21-1.21-8.56-3.53c-2.36-2.33-3.5-5.17-3.5-8.36
			c0-3.36,1.23-6.2,3.58-8.53c2.28-2.33,5.07-3.44,8.48-3.44c0.06,0,0.12,0,0.19,0.01c3.33,0.04,6.07,1.15,8.38,3.44
			c2.36,2.33,3.5,5.17,3.5,8.53C357.97,51.71,356.83,54.47,354.46,56.8z"/>
		<path class="st1" d="M387.89,47.1c2.17-1.61,3.22-3.71,3.22-6.29c0-2.8-0.98-5.04-2.94-6.71c-1.89-1.61-4.13-2.38-6.79-2.38
			h-11.33c-0.91,0-1.75,0.35-2.38,0.98c-0.7,0.7-1.05,1.54-1.05,2.52V61.3c0,1.89,1.54,3.36,3.5,3.36h12.1
			c5.95,0,10.42-3.92,10.42-9.79C392.65,51.72,390.9,48.78,387.89,47.1z M373.62,38.22h7.62c2.17,0,3.57,1.33,3.57,3.5
			c0,1.19-0.35,2.03-1.12,2.59c-0.7,0.63-1.54,0.98-2.45,0.98h-7.62V38.22z M382.36,57.94h-8.75v-7.56h8.75
			c1.19,0,2.17,0.42,2.94,1.19c0.7,0.77,1.05,1.68,1.05,2.8C386.35,56.54,384.67,57.94,382.36,57.94z"/>
		<path class="st1" d="M411.02,46.33l10.21-9.52c0.77-0.7,1.12-1.54,1.12-2.59c0-0.98-0.28-1.75-0.91-2.31
			c-0.7-0.77-1.47-1.12-2.38-1.12c-1.05-0.07-1.96,0.28-2.59,0.91l-13.01,12.24v-8.75c0-1.96-1.47-3.5-3.43-3.5
			c-0.91,0-1.75,0.35-2.52,0.98c-0.7,0.7-1.05,1.54-1.05,2.52v25.95c0,0.91,0.35,1.75,1.05,2.45c0.7,0.7,1.54,1.05,2.52,1.05
			c0.91,0,1.75-0.35,2.38-1.05c0.7-0.63,1.05-1.4,1.05-2.45v-7.62l2.52-2.38l11.75,12.38c0.7,0.77,1.54,1.12,2.52,1.12
			c0.98,0,1.82-0.35,2.45-0.98c0.7-0.63,1.05-1.47,1.12-2.38c0-0.98-0.35-1.82-1.05-2.52L411.02,46.33z"/>
		<path class="st1" d="M452.71,31.71c-0.63,0-1.12,0.14-1.54,0.42c-0.49,0.21-0.98,0.56-1.33,0.98l-15.66,18.96V35.35
			c0-2.03-1.47-3.64-3.43-3.64c-2.03,0-3.57,1.61-3.57,3.64v25.74c0,0.91,0.35,1.75,1.05,2.52c0.63,0.7,1.47,1.05,2.52,1.05
			c1.19,0,2.17-0.49,2.87-1.4l16.02-19.17v17c0,2.17,1.19,3.57,3.14,3.57c0.98,0,1.82-0.35,2.45-1.05c0.7-0.77,1.05-1.61,1.05-2.52
			V35.28C456.28,33.32,454.67,31.71,452.71,31.71z"/>
		<path class="st1" d="M486.8,31.71c-1.96,0-3.36,1.61-3.36,3.64v9.09H468.4v-9.09c0-2.03-1.4-3.64-3.36-3.64
			c-0.98,0-1.82,0.35-2.52,1.04c-0.7,0.63-1.05,1.54-1.05,2.59v25.81c0,0.98,0.35,1.82,1.05,2.45c0.7,0.7,1.54,1.05,2.45,1.05
			c1.96,0,3.43-1.54,3.43-3.5v-9.58h15.04v9.58c0,1.96,1.4,3.5,3.36,3.5c0.91,0,1.75-0.35,2.52-1.05c0.77-0.63,1.12-1.47,1.12-2.45
			V35.35C490.43,33.32,488.75,31.71,486.8,31.71z"/>
		<path class="st1" d="M267.62,31.25h-0.06c-1.91,0-3.46,1.55-3.46,3.47v0.08c-2.79-2.06-6.02-3.08-9.66-3.08
			c-4.48,0-8.67,1.75-11.82,4.9c-3.29,3.28-4.9,7.2-4.9,11.82c0,4.55,1.61,8.47,4.9,11.75c3.15,3.14,7.34,4.9,11.82,4.9
			c3.5,0,6.72-1.19,9.66-3.57c0.02,0.16,0.05,0.31,0.09,0.47c0.02,0.08,0.04,0.17,0.07,0.24c0,0.01,0.01,0.02,0.01,0.02
			c0.03,0.1,0.07,0.21,0.11,0.31c0.04,0.1,0.09,0.21,0.14,0.31c0.05,0.1,0.11,0.19,0.17,0.28c0.54,0.84,1.42,1.42,2.52,1.51
			c0.12,0.01,0.24,0.02,0.36,0.02h0.06c0.23,0,0.45-0.02,0.66-0.07c0.11-0.03,0.23-0.05,0.34-0.08c0.11-0.03,0.21-0.07,0.32-0.11
			c0.06-0.02,0.11-0.05,0.17-0.08c0.03-0.02,0.06-0.03,0.09-0.05c0.03-0.01,0.05-0.02,0.07-0.04c0.02-0.01,0.05-0.03,0.07-0.04
			c0.05-0.03,0.09-0.06,0.14-0.09c0.01-0.01,0.03-0.02,0.04-0.03c0,0,0,0,0,0c0,0,0,0,0.01,0c0,0,0,0,0,0
			c0.03-0.02,0.07-0.04,0.1-0.07c0.01-0.01,0.02-0.02,0.04-0.03c0.79-0.57,1.33-1.45,1.41-2.48c0.01-0.02,0.01-0.03,0.01-0.05
			c0.01-0.03,0.01-0.05,0.01-0.08c0-0.01,0-0.03,0.01-0.04c0.01-0.05,0.01-0.09,0.01-0.14v-0.1V34.71
			C271.09,32.8,269.54,31.25,267.62,31.25z M261.3,55.21c-1.89,1.89-4.2,2.87-6.86,2.87c-2.66,0-4.96-0.98-6.86-2.87
			c-1.89-1.89-2.8-4.19-2.8-6.78c0-2.73,0.98-5.04,2.87-6.92c1.82-1.89,4.05-2.8,6.79-2.8c2.73,0,4.96,0.91,6.86,2.8
			c1.89,1.89,2.8,4.2,2.8,6.92C264.1,51.08,263.19,53.32,261.3,55.21z"/>
	</g>
	<g>
		<path class="st2" d="M131.04,65.41L131.04,65.41c0,2.42,1.96,4.37,4.37,4.37h7.49c1.17,0,2.13,0.95,2.13,2.13v30.56
			c0,3.25-2.27,6.06-5.45,6.74l-51.41,10.97c-4.29,0.91-8.33-2.35-8.33-6.74V15.41c0-4.39,4.04-7.65,8.33-6.74l51.41,10.99
			c3.18,0.68,5.45,3.49,5.45,6.74v32.51c0,1.17-0.95,2.13-2.13,2.13h-7.49C133,61.04,131.04,63,131.04,65.41z"/>
		<path class="st3" d="M63.59,129.99L5.4,117.03c-3.15-0.7-5.4-3.5-5.4-6.73V19.86c0-3.23,2.24-6.03,5.4-6.73L63.6,0.17
			c4.3-0.96,8.39,2.32,8.39,6.73v116.37C71.98,127.67,67.9,130.95,63.59,129.99z"/>
	</g>
</g>
</svg>
