<svg width="36" height="36" viewBox="0 0 36 36" fill="none" xmlns="http://www.w3.org/2000/svg">
<path d="M36 18C36 27.9411 27.9411 36 18 36C8.05888 36 0 27.9411 0 18C0 8.05888 8.05888 0 18 0C27.9411 0 36 8.05888 36 18Z" fill="white"/>
<path fill-rule="evenodd" clip-rule="evenodd" d="M24.8966 13H11.1034C10.4966 13 10 12.55 10 12C10 11.45 10.4966 11 11.1034 11H24.8966C25.5034 11 26 11.45 26 12C26 12.55 25.5034 13 24.8966 13ZM24.8966 25H11.1034C10.4966 25 10 24.55 10 24C10 23.45 10.4966 23 11.1034 23H24.8966C25.5034 23 26 23.45 26 24C26 24.55 25.5034 25 24.8966 25ZM11.1034 19H24.8966C25.5034 19 26 18.55 26 18C26 17.45 25.5034 17 24.8966 17H11.1034C10.4966 17 10 17.45 10 18C10 18.55 10.4966 19 11.1034 19Z" fill="#F44F0C"/>
</svg>
