<svg width="63" height="63" viewBox="0 0 63 63" fill="none" xmlns="http://www.w3.org/2000/svg">
<path d="M63 31.5C63 48.897 48.897 63 31.5 63C14.103 63 0 48.897 0 31.5C0 14.103 14.103 0 31.5 0C48.897 0 63 14.103 63 31.5Z" fill="white"/>
<path d="M42.7422 25.4053H21.2578C20.3125 25.4053 19.5391 24.6318 19.5391 23.6865C19.5391 22.7412 20.3125 21.9678 21.2578 21.9678H42.7422C43.6875 21.9678 44.4609 22.7412 44.4609 23.6865C44.4609 24.6318 43.6875 25.4053 42.7422 25.4053Z" fill="#F44F0C"/>
<path d="M42.7422 40.0317H21.2578C20.3125 40.0317 19.5391 39.2583 19.5391 38.313C19.5391 37.3677 20.3125 36.5942 21.2578 36.5942H42.7422C43.6875 36.5942 44.4609 37.3677 44.4609 38.313C44.4609 39.2583 43.6875 40.0317 42.7422 40.0317Z" fill="#F44F0C"/>
<path d="M42.7422 32.7188H21.2578C20.3125 32.7188 19.5391 31.9453 19.5391 31C19.5391 30.0547 20.3125 29.2812 21.2578 29.2812H42.7422C43.6875 29.2812 44.4609 30.0547 44.4609 31C44.4609 31.9453 43.6875 32.7188 42.7422 32.7188Z" fill="#F44F0C"/>
</svg>
