<svg width="50" height="50" viewBox="0 0 50 50" fill="none" xmlns="http://www.w3.org/2000/svg">
<g clip-path="url(#clip0)">
<path d="M19.1666 15.8338V14.5838C19.1666 13.4346 18.2316 12.5005 17.0833 12.5005C15.935 12.5005 15 13.4346 15 14.5838V15.8338H10.0001C7.70264 15.8338 5.8335 17.7029 5.8335 20.0004V42.5001C5.8335 44.7976 7.70264 46.6667 10.0001 46.6667H39.9997C42.2972 46.6667 44.1663 44.7976 44.1663 42.5001V20.0004C44.1663 17.7029 42.2972 15.8338 39.9997 15.8338H19.1666ZM18.3333 21.667C18.7925 21.667 19.1666 22.0403 19.1666 22.5003V40.0001C19.1666 40.4601 18.7925 40.8334 18.3333 40.8334H12.5C12.0409 40.8334 11.6667 40.4601 11.6667 40.0001V22.5003C11.6667 22.0403 12.0409 21.667 12.5 21.667H18.3333ZM16.6667 14.5838C16.6667 14.3546 16.8533 14.1671 17.0833 14.1671C17.3133 14.1671 17.5 14.3546 17.5 14.5838V20.0004H16.6667V14.5838ZM42.4997 20.0004V42.5001C42.4997 43.8784 41.378 45.0001 39.9997 45.0001H10.0001C8.6218 45.0001 7.50015 43.8784 7.50015 42.5001V20.0004C7.50015 18.6221 8.6218 17.5004 10.0001 17.5004H15V20.0004H12.5C11.1217 20.0004 10.0001 21.122 10.0001 22.5003V40.0001C10.0001 41.3784 11.1217 42.5001 12.5 42.5001H18.3333C19.7116 42.5001 20.8333 41.3784 20.8333 40.0001V22.5003C20.8333 21.4154 20.1341 20.4987 19.1666 20.1537V17.5004H39.9997C41.378 17.5004 42.4997 18.6221 42.4997 20.0004Z" fill="white"/>
<path d="M24.9998 20.0004C24.5398 20.0004 24.1665 20.3729 24.1665 20.8337V25.0003C24.1665 25.4611 24.5398 25.8336 24.9998 25.8336H39.9996C40.4596 25.8336 40.8329 25.4611 40.8329 25.0003V20.8337C40.8329 20.3729 40.4596 20.0004 39.9996 20.0004H24.9998ZM39.1663 24.167H25.8331V21.667H39.1663V24.167Z" fill="white"/>
<path d="M29.1663 30.8336H25.833V32.5002H29.1663V30.8336Z" fill="white"/>
<path d="M34.1663 30.8336H30.833V32.5002H34.1663V30.8336Z" fill="white"/>
<path d="M39.1663 30.8336H35.833V32.5002H39.1663V30.8336Z" fill="white"/>
<path d="M29.1663 34.1669H25.833V35.8335H29.1663V34.1669Z" fill="white"/>
<path d="M34.1663 34.1669H30.833V35.8335H34.1663V34.1669Z" fill="white"/>
<path d="M39.1663 34.1669H35.833V35.8335H39.1663V34.1669Z" fill="white"/>
<path d="M29.1663 37.5002H25.833V39.1668H29.1663V37.5002Z" fill="white"/>
<path d="M34.1663 37.5002H30.833V39.1668H34.1663V37.5002Z" fill="white"/>
<path d="M39.1663 37.5002H35.833V39.1668H39.1663V37.5002Z" fill="white"/>
<path d="M29.1663 40.8334H25.833V42.5001H29.1663V40.8334Z" fill="white"/>
<path d="M34.1663 40.8334H30.833V42.5001H34.1663V40.8334Z" fill="white"/>
<path d="M39.1663 40.8334H35.833V42.5001H39.1663V40.8334Z" fill="white"/>
<path d="M27.4995 27.5002H24.9995V29.1668H27.4995V27.5002Z" fill="white"/>
<path d="M31.6665 27.5002H29.1665V29.1668H31.6665V27.5002Z" fill="white"/>
<path d="M35.833 27.5002H33.333V29.1668H35.833V27.5002Z" fill="white"/>
<path d="M39.9995 27.5002H37.4995V29.1668H39.9995V27.5002Z" fill="white"/>
<path d="M49.6052 15.1254L42.4995 10.7147V0.833948C42.4995 0.37312 42.1261 0.000625033 41.6661 0.000625033H34.1662C33.7062 0.000625033 33.3329 0.37312 33.3329 0.833948V5.02473L25.4388 0.125623C25.1697 -0.0418744 24.8297 -0.0418744 24.5597 0.125623L0.393328 15.1254C0.149165 15.2779 0 15.5454 0 15.8338V49.1667C0 49.6275 0.373329 50 0.833323 50H49.1661C49.626 50 49.9994 49.6275 49.9994 49.1667V15.8338C49.9994 15.5454 49.8502 15.2779 49.6052 15.1254ZM48.3327 48.3334H1.66665V16.2979L24.9997 1.81477L33.7271 7.23137C33.9837 7.39053 34.3079 7.3972 34.5721 7.25137C34.8354 7.10387 34.9996 6.82554 34.9996 6.52304V1.66727H40.8328V11.1788C40.8328 11.4671 40.982 11.7346 41.227 11.8871L48.3327 16.2979V48.3334Z" fill="white"/>
</g>
<defs>
<clipPath id="clip0">
<rect width="50" height="50" fill="white"/>
</clipPath>
</defs>
</svg>
