<svg width="50" height="50" viewBox="0 0 50 50" fill="none" xmlns="http://www.w3.org/2000/svg">
<mask id="mask0" mask-type="alpha" maskUnits="userSpaceOnUse" x="0" y="0" width="50" height="50">
<path d="M24.7761 0.00401619C24.5559 0.0190269 24.3446 0.0928212 24.1658 0.217067L0.493456 16.693C0.289041 16.8339 0.136701 17.0336 0.058546 17.2632C-0.019609 17.4928 -0.019513 17.7404 0.0588208 17.97C0.137154 18.1995 0.28965 18.3991 0.494176 18.5399C0.698701 18.6806 0.944616 18.7551 1.19623 18.7525H5.9307V19.8C5.92848 19.9506 5.95746 20.1001 6.01595 20.2398C6.07443 20.3795 6.16126 20.5067 6.27139 20.6139C6.38152 20.7211 6.51275 20.8063 6.65746 20.8644C6.80216 20.9225 6.95746 20.9525 7.11431 20.9525C7.27118 20.9525 7.42647 20.9225 7.57118 20.8644C7.71587 20.8063 7.8471 20.7211 7.95724 20.6139C8.06736 20.5067 8.1542 20.3795 8.21269 20.2398C8.27118 20.1001 8.30015 19.9506 8.29793 19.8V17.6162C8.2979 17.3149 8.17319 17.0259 7.95122 16.8128C7.72926 16.5997 7.42822 16.48 7.11431 16.48H4.83955L24.8685 2.54287L44.8976 16.48H42.6228C42.309 16.48 42.0079 16.5997 41.7859 16.8128C41.564 17.0259 41.4393 17.3149 41.4392 17.6162V33.524H37.2966V19.8888C37.2966 19.5874 37.1718 19.2984 36.9498 19.0854C36.7279 18.8723 36.4269 18.7525 36.1129 18.7525H27.8276C27.7906 18.7508 27.7536 18.7508 27.7167 18.7525C27.4224 18.7791 27.1491 18.9105 26.9506 19.1208C26.7521 19.331 26.6427 19.605 26.644 19.8888V33.524H8.29793V24.4516C8.30015 24.3011 8.27118 24.1516 8.21269 24.0118C8.1542 23.8721 8.06736 23.7449 7.95724 23.6377C7.8471 23.5305 7.71587 23.4453 7.57118 23.3872C7.42647 23.3291 7.27118 23.2992 7.11431 23.2992C6.95746 23.2992 6.80216 23.3291 6.65746 23.3872C6.51275 23.4453 6.38152 23.5305 6.27139 23.6377C6.16126 23.7449 6.07443 23.8721 6.01595 24.0118C5.95746 24.1516 5.92848 24.3011 5.9307 24.4516V48.8637C5.93073 49.1651 6.05544 49.4541 6.27741 49.6672C6.49936 49.8802 6.80041 50 7.11431 50H42.6228C42.9368 50 43.2378 49.8802 43.4597 49.6672C43.6817 49.4541 43.8065 49.1651 43.8065 48.8637V18.7525H48.5409C48.7925 18.7551 49.0384 18.6806 49.2429 18.5399C49.4475 18.3991 49.6 18.1995 49.6783 17.97C49.7567 17.7404 49.7568 17.4928 49.6785 17.2632C49.6004 17.0336 49.4481 16.8339 49.2436 16.693L25.5714 0.217067C25.3415 0.0567294 25.0593 -0.0188905 24.7761 0.00401619ZM13.5132 18.7525C13.219 18.7791 12.9457 18.9105 12.7472 19.1208C12.5486 19.331 12.4393 19.605 12.4406 19.8888V27.2746C12.4406 27.5759 12.5653 27.8649 12.7873 28.078C13.0093 28.2911 13.3103 28.4108 13.6242 28.4108H21.9095C22.2234 28.4108 22.5245 28.2911 22.7465 28.078C22.9684 27.8649 23.0931 27.5759 23.0931 27.2746V19.8888C23.0931 19.5874 22.9684 19.2984 22.7465 19.0854C22.5245 18.8723 22.2234 18.7525 21.9095 18.7525H13.6242C13.5872 18.7508 13.5502 18.7508 13.5132 18.7525ZM14.8078 21.0251H20.7259V26.1383H14.8078V21.0251ZM29.0112 21.0251H34.9293V33.524H29.0112V21.0251ZM8.29793 35.7966H10.6652V38.6373C10.6652 38.9386 10.7899 39.2276 11.0119 39.4407C11.2339 39.6538 11.5349 39.7735 11.8487 39.7735H15.9915V42.0461C15.9915 42.3474 16.1161 42.6364 16.3381 42.8495C16.5601 43.0626 16.8611 43.1823 17.1751 43.1824H21.3177V44.8868C21.3177 45.1881 21.4425 45.4771 21.6644 45.6902C21.8864 45.9033 22.1874 46.023 22.5014 46.023H26.644V47.7275H8.29793V35.7966ZM13.0324 35.7966H41.4392V47.7275H29.0112V44.8868C29.0111 44.5854 28.8865 44.2964 28.6645 44.0833C28.4426 43.8703 28.1416 43.7505 27.8276 43.7505H23.685V42.0461C23.6849 41.7447 23.5602 41.4557 23.3382 41.2427C23.1162 41.0296 22.8152 40.9099 22.5014 40.9098H18.3586V38.6373C18.3586 38.3359 18.234 38.0469 18.012 37.8338C17.79 37.6208 17.489 37.501 17.1751 37.501H13.0324V35.7966Z" fill="white"/>
</mask>
<g mask="url(#mask0)">
<path d="M24.7761 0.00401619C24.5559 0.0190269 24.3446 0.0928212 24.1658 0.217067L0.493456 16.693C0.289041 16.8339 0.136701 17.0336 0.058546 17.2632C-0.019609 17.4928 -0.019513 17.7404 0.0588208 17.97C0.137154 18.1995 0.28965 18.3991 0.494176 18.5399C0.698701 18.6806 0.944616 18.7551 1.19623 18.7525H5.9307V19.8C5.92848 19.9506 5.95746 20.1001 6.01595 20.2398C6.07443 20.3795 6.16126 20.5067 6.27139 20.6139C6.38152 20.7211 6.51275 20.8063 6.65746 20.8644C6.80216 20.9225 6.95746 20.9525 7.11431 20.9525C7.27118 20.9525 7.42647 20.9225 7.57118 20.8644C7.71587 20.8063 7.8471 20.7211 7.95724 20.6139C8.06736 20.5067 8.1542 20.3795 8.21269 20.2398C8.27118 20.1001 8.30015 19.9506 8.29793 19.8V17.6162C8.2979 17.3149 8.17319 17.0259 7.95122 16.8128C7.72926 16.5997 7.42822 16.48 7.11431 16.48H4.83955L24.8685 2.54287L44.8976 16.48H42.6228C42.309 16.48 42.0079 16.5997 41.7859 16.8128C41.564 17.0259 41.4393 17.3149 41.4392 17.6162V33.524H37.2966V19.8888C37.2966 19.5874 37.1718 19.2984 36.9498 19.0854C36.7279 18.8723 36.4269 18.7525 36.1129 18.7525H27.8276C27.7906 18.7508 27.7536 18.7508 27.7167 18.7525C27.4224 18.7791 27.1491 18.9105 26.9506 19.1208C26.7521 19.331 26.6427 19.605 26.644 19.8888V33.524H8.29793V24.4516C8.30015 24.3011 8.27118 24.1516 8.21269 24.0118C8.1542 23.8721 8.06736 23.7449 7.95724 23.6377C7.8471 23.5305 7.71587 23.4453 7.57118 23.3872C7.42647 23.3291 7.27118 23.2992 7.11431 23.2992C6.95746 23.2992 6.80216 23.3291 6.65746 23.3872C6.51275 23.4453 6.38152 23.5305 6.27139 23.6377C6.16126 23.7449 6.07443 23.8721 6.01595 24.0118C5.95746 24.1516 5.92848 24.3011 5.9307 24.4516V48.8637C5.93073 49.1651 6.05544 49.4541 6.27741 49.6672C6.49936 49.8802 6.80041 50 7.11431 50H42.6228C42.9368 50 43.2378 49.8802 43.4597 49.6672C43.6817 49.4541 43.8065 49.1651 43.8065 48.8637V18.7525H48.5409C48.7925 18.7551 49.0384 18.6806 49.2429 18.5399C49.4475 18.3991 49.6 18.1995 49.6783 17.97C49.7567 17.7404 49.7568 17.4928 49.6785 17.2632C49.6004 17.0336 49.4481 16.8339 49.2436 16.693L25.5714 0.217067C25.3415 0.0567294 25.0593 -0.0188905 24.7761 0.00401619ZM13.5132 18.7525C13.219 18.7791 12.9457 18.9105 12.7472 19.1208C12.5486 19.331 12.4393 19.605 12.4406 19.8888V27.2746C12.4406 27.5759 12.5653 27.8649 12.7873 28.078C13.0093 28.2911 13.3103 28.4108 13.6242 28.4108H21.9095C22.2234 28.4108 22.5245 28.2911 22.7465 28.078C22.9684 27.8649 23.0931 27.5759 23.0931 27.2746V19.8888C23.0931 19.5874 22.9684 19.2984 22.7465 19.0854C22.5245 18.8723 22.2234 18.7525 21.9095 18.7525H13.6242C13.5872 18.7508 13.5502 18.7508 13.5132 18.7525ZM14.8078 21.0251H20.7259V26.1383H14.8078V21.0251ZM29.0112 21.0251H34.9293V33.524H29.0112V21.0251ZM8.29793 35.7966H10.6652V38.6373C10.6652 38.9386 10.7899 39.2276 11.0119 39.4407C11.2339 39.6538 11.5349 39.7735 11.8487 39.7735H15.9915V42.0461C15.9915 42.3474 16.1161 42.6364 16.3381 42.8495C16.5601 43.0626 16.8611 43.1823 17.1751 43.1824H21.3177V44.8868C21.3177 45.1881 21.4425 45.4771 21.6644 45.6902C21.8864 45.9033 22.1874 46.023 22.5014 46.023H26.644V47.7275H8.29793V35.7966ZM13.0324 35.7966H41.4392V47.7275H29.0112V44.8868C29.0111 44.5854 28.8865 44.2964 28.6645 44.0833C28.4426 43.8703 28.1416 43.7505 27.8276 43.7505H23.685V42.0461C23.6849 41.7447 23.5602 41.4557 23.3382 41.2427C23.1162 41.0296 22.8152 40.9099 22.5014 40.9098H18.3586V38.6373C18.3586 38.3359 18.234 38.0469 18.012 37.8338C17.79 37.6208 17.489 37.501 17.1751 37.501H13.0324V35.7966Z" fill="white" stroke="white" stroke-width="0.4"/>
</g>
</svg>
